<?xml version="1.0" encoding="UTF-8" standalone="no"?>
<svg
   xmlns:dc="http://purl.org/dc/elements/1.1/"
   xmlns:cc="http://creativecommons.org/ns#"
   xmlns:rdf="http://www.w3.org/1999/02/22-rdf-syntax-ns#"
   xmlns:svg="http://www.w3.org/2000/svg"
   xmlns="http://www.w3.org/2000/svg"
   xmlns:sodipodi="http://sodipodi.sourceforge.net/DTD/sodipodi-0.dtd"
   xmlns:inkscape="http://www.inkscape.org/namespaces/inkscape"
   width="7.6447577mm"
   height="9.8984232mm"
   viewBox="0 0 7.6447578 9.8984229"
   version="1.1"
   id="svg2132"
   inkscape:version="1.0.1 (c497b03c, 2020-09-10)"
   sodipodi:docname="bras2.svg">
  <defs
     id="defs2126" />
  <sodipodi:namedview
     id="base"
     pagecolor="#ffffff"
     bordercolor="#666666"
     borderopacity="1.0"
     inkscape:pageopacity="0.0"
     inkscape:pageshadow="2"
     inkscape:zoom="1.08"
     inkscape:cx="135.78234"
     inkscape:cy="249.23487"
     inkscape:document-units="mm"
     inkscape:current-layer="layer1"
     inkscape:document-rotation="0"
     showgrid="false"
     inkscape:window-width="1280"
     inkscape:window-height="755"
     inkscape:window-x="1564"
     inkscape:window-y="129"
     inkscape:window-maximized="0"
     fit-margin-top="0"
     fit-margin-left="0"
     fit-margin-right="0"
     fit-margin-bottom="0" />
  <metadata
     id="metadata2129">
    <rdf:RDF>
      <cc:Work
         rdf:about="">
        <dc:format>image/svg+xml</dc:format>
        <dc:type
           rdf:resource="http://purl.org/dc/dcmitype/StillImage" />
        <dc:title></dc:title>
      </cc:Work>
    </rdf:RDF>
  </metadata>
  <g
     inkscape:label="Calque 1"
     inkscape:groupmode="layer"
     id="layer1"
     transform="translate(-69.907588,-82.223273)">
    <path
       style="display:inline;fill:#ffdf00;fill-opacity:0.74902;stroke:#000000;stroke-width:0.0349796;stroke-opacity:1"
       d="m 72.951045,90.053031 c -0.0084,-0.0088 -0.129841,-0.04182 -0.270161,-0.07305 -0.307489,-0.06857 -0.71909,-0.277226 -0.843934,-0.427812 -0.141972,-0.171328 -0.228999,-0.499305 -0.228638,-0.861766 2.5e-4,-0.278664 0.01081,-0.329751 0.09963,-0.492606 0.05467,-0.09994 0.128499,-0.221253 0.164052,-0.269624 l 0.06474,-0.08791 0.349117,0.05022 c 0.191998,0.02759 0.423979,0.04653 0.515492,0.0423 l 0.166354,-0.0079 -0.08694,0.10009 c -0.04785,0.05506 -0.134805,0.19284 -0.193379,0.306211 l -0.106439,0.206079 0.0484,0.266307 c 0.05389,0.296816 0.171479,0.605826 0.24161,0.634866 0.02516,0.01026 0.117129,0.132551 0.204164,0.271297 0.08706,0.138805 0.171358,0.260993 0.187333,0.271677 0.07363,0.04911 0.01462,0.08776 -0.133703,0.08776 -0.08954,0 -0.169498,-0.0071 -0.177745,-0.01645 z M 72.530834,88.45213 c 0.04222,-0.06959 0.04472,-0.09082 0.01081,-0.09082 -0.05696,0 -0.125377,0.07335 -0.125377,0.134431 0,0.07564 0.05507,0.05474 0.114767,-0.04371 z"
       id="path104" />
    <path
       style="fill:#ffdf00;fill-opacity:0.74902;stroke:#000000;stroke-width:0.0349796;stroke-opacity:1"
       d="m 72.376104,87.573328 c 0.02426,-0.01027 0.05341,-0.0094 0.06454,0.0028 0.01101,0.01233 -0.0084,0.02055 -0.04422,0.01937 -0.03922,-0.0019 -0.04723,-0.01028 -0.02038,-0.02202 z"
       id="path106" />
    <path
       style="display:inline;fill:#ffdf00;fill-opacity:0.74902;stroke:#000000;stroke-width:0.0349796;stroke-opacity:1"
       d="m 75.968384,90.436962 c -0.03723,-0.0173 -0.180968,-0.05172 -0.319877,-0.07667 -0.138929,-0.02495 -0.29107,-0.06663 -0.338194,-0.0926 -0.04704,-0.02584 -0.198584,-0.05858 -0.336712,-0.07244 -0.453621,-0.04559 -0.65796,-0.200207 -0.854869,-0.647195 -0.232503,-0.527695 -0.238884,-0.892333 -0.02068,-1.178078 0.05641,-0.07385 0.102575,-0.152598 0.102575,-0.175023 0,-0.0226 0.05739,-0.06507 0.127659,-0.09481 0.106418,-0.04511 0.134484,-0.04605 0.169597,-0.0053 0.08628,0.09953 0.341477,0.03334 0.343478,-0.08894 4.49e-4,-0.05723 0.004,-0.05741 0.03342,-0.0026 0.03984,0.07382 0.330207,0.152864 0.488313,0.132934 0.109902,-0.01409 0.116908,-0.0085 0.116908,0.09111 0,0.108924 0.125517,0.388299 0.174563,0.388299 0.03664,0 0.03543,-0.135839 -0.0014,-0.160378 -0.06166,-0.04136 -0.145735,-0.466858 -0.123514,-0.626111 0.02823,-0.202498 -0.03503,-0.212947 -0.06666,-0.01086 l -0.02303,0.147317 -0.06746,-0.138247 c -0.08168,-0.167334 -0.218696,-0.329657 -0.302254,-0.35832 -0.03383,-0.01115 -0.06146,-0.05325 -0.06146,-0.09258 0,-0.03948 -0.02342,-0.109775 -0.05165,-0.156473 -0.04945,-0.08139 -0.111304,-0.457558 -0.07507,-0.457558 0.01001,0 0.08808,0.09401 0.174762,0.208955 0.08648,0.114912 0.180768,0.239627 0.209434,0.277079 0.02883,0.0376 0.08748,0.143677 0.130721,0.235958 0.102095,0.217262 0.124115,0.159704 0.128519,-0.333417 0.006,-0.694393 -0.103295,-1.374001 -0.276756,-1.724162 -0.02002,-0.03995 -0.06746,-0.234225 -0.105898,-0.431525 -0.03843,-0.197302 -0.08808,-0.397835 -0.110303,-0.44562 -0.05004,-0.107368 -0.267187,-0.210774 -0.578557,-0.275494 -0.378742,-0.07869 -0.994259,-0.44985 -0.994259,-0.599503 0,-0.147579 0.02697,-0.165103 0.235438,-0.152364 0.272078,0.01643 0.30879,-0.02641 0.315216,-0.367712 0.0029,-0.183477 -0.0072,-0.262257 -0.03577,-0.262286 -0.02246,-3e-5 -0.06354,-0.03275 -0.09158,-0.07274 -0.05026,-0.07182 -0.05087,-0.0717 -0.05201,0.0088 -5.04e-4,0.05715 -0.02127,0.08178 -0.06836,0.08178 -0.0815,0 -0.08476,0.02789 -0.01441,0.112945 0.07094,0.08459 0.03305,0.155211 -0.05569,0.103904 -0.07209,-0.04162 -0.08862,-0.211067 -0.03175,-0.325653 0.01822,-0.03721 0.102435,-0.104786 0.186493,-0.150105 0.08418,-0.04535 0.229119,-0.16252 0.322225,-0.260408 0.163632,-0.172001 0.171479,-0.175846 0.234779,-0.11406 0.04162,0.04073 0.123535,0.06517 0.225756,0.06731 0.146936,0.0032 0.176163,0.01996 0.353167,0.205021 0.106099,0.110891 0.19298,0.220226 0.19298,0.242944 0,0.02289 0.02823,0.06266 0.06245,0.08879 0.04164,0.03153 0.07587,0.131084 0.102496,0.296596 0.05065,0.3145 0.127919,0.565829 0.202947,0.659364 0.07527,0.09387 0.20433,0.439701 0.20433,0.547339 0,0.04605 0.02462,0.11001 0.05485,0.142502 0.06146,0.0663 0.245307,0.547083 0.247109,0.646093 4.49e-4,0.07094 0.190576,0.695886 0.305143,1.007929 0.04044,0.109894 0.09569,0.265282 0.123114,0.345212 0.02723,0.07992 0.06987,0.169858 0.09469,0.199884 0.02482,0.03008 0.05605,0.103553 0.06947,0.163577 0.02642,0.117759 0.337333,0.837207 0.400532,0.92665 0.04824,0.06803 0.174962,0.482178 0.201626,0.6595 0.01201,0.07291 0.04765,0.171033 0.08147,0.218024 0.04044,0.05621 0.06827,0.176143 0.08147,0.350241 0.01201,0.145671 0.04384,0.315749 0.07247,0.378057 0.101293,0.218991 0.07247,0.314571 -0.177966,0.595482 -0.319536,0.358177 -0.466612,0.429129 -0.914547,0.441252 -0.194381,0.0053 -0.383857,-0.0044 -0.420891,-0.02174 z"
       id="path108" />
    <path
       style="display:inline;fill:#ffdf00;fill-opacity:0.74902;stroke:#000000;stroke-width:0.0349796;stroke-opacity:1"
       d="m 73.7438,88.133805 c -0.319304,-0.274498 -0.485929,-0.443554 -0.485929,-0.493006 0,-0.02906 -0.02366,-0.0715 -0.05284,-0.0944 -0.02907,-0.02289 -0.05811,-0.0983 -0.06484,-0.167569 -0.0062,-0.06927 -0.03067,-0.225597 -0.05327,-0.347371 -0.05489,-0.295454 -0.02786,-0.397976 0.120431,-0.455816 0.06484,-0.02524 0.117789,-0.05764 0.117789,-0.07197 0,-0.01409 0.07192,-0.05539 0.159908,-0.09126 0.08804,-0.03573 0.197804,-0.08617 0.244127,-0.111771 0.10868,-0.0602 0.631059,-0.05976 0.731617,5.6e-4 0.04124,0.02494 0.133523,0.104639 0.204609,0.177519 0.114906,0.117553 0.130121,0.153069 0.133524,0.314436 0.004,0.162842 0.04404,0.384489 0.09829,0.537299 0.01602,0.04512 -0.0014,0.05045 -0.102695,0.03008 -0.09409,-0.01937 -0.122313,-0.01262 -0.122313,0.02671 0,0.0315 0.06606,0.06997 0.170958,0.09894 0.200726,0.05553 0.447375,0.289437 0.476082,0.451446 l 0.01802,0.103377 -0.154343,-0.02495 c -0.256118,-0.04136 -0.408999,-0.186853 -0.541442,-0.514926 -0.126717,-0.313778 -0.204249,-0.596256 -0.204848,-0.745853 -3.37e-4,-0.08838 -0.05201,-0.167539 -0.08562,-0.131289 -0.02486,0.02671 0.110803,0.670347 0.165474,0.784414 0.02963,0.06232 0.05425,0.136339 0.05425,0.164546 0,0.02817 0.03483,0.106663 0.07747,0.174408 0.126117,0.200736 0.133123,0.246671 0.04124,0.271532 -0.07887,0.02114 -0.249952,-0.0747 -0.252351,-0.141711 -5.04e-4,-0.01644 -0.03717,-0.08171 -0.08133,-0.145378 -0.0443,-0.0636 -0.09002,-0.151014 -0.102275,-0.194161 -0.01141,-0.04323 -0.04416,-0.0983 -0.07137,-0.122544 -0.02697,-0.02435 -0.04929,-0.07631 -0.04929,-0.115675 0,-0.03948 -0.03019,-0.11315 -0.06739,-0.163987 -0.03717,-0.05077 -0.06738,-0.139274 -0.06738,-0.19651 0,-0.05726 -0.01501,-0.10411 -0.03361,-0.10411 -0.05243,0 -0.0396,0.183066 0.02547,0.363394 0.0671,0.186148 0.262013,0.566696 0.341454,0.666475 0.04886,0.0614 0.04801,0.07103 -0.01141,0.11811 -0.100714,0.0796 -0.203415,0.06249 -0.255453,-0.0423 -0.02547,-0.05152 -0.07451,-0.109892 -0.108981,-0.129733 -0.03433,-0.01966 -0.08986,-0.105021 -0.123375,-0.18926 -0.07065,-0.177842 -0.32171,-0.475148 -0.372608,-0.441206 -0.02038,0.0135 0.01441,0.07905 0.08303,0.157208 0.06482,0.07373 0.157666,0.220636 0.20653,0.326417 0.04886,0.105813 0.123514,0.216879 0.165913,0.246877 0.130341,0.0922 0.145756,0.341826 0.02098,0.341028 -0.03051,-1.35e-4 -0.116949,-0.05333 -0.192278,-0.118112 z"
       id="path110" />
    <path
       style="fill:#ffdf00;fill-opacity:0.74902;stroke:#000000;stroke-width:0.0349796;stroke-opacity:1"
       d="m 72.188806,87.609443 c 0.03241,-0.0094 0.08544,-0.0094 0.117849,0 0.03241,0.0094 0.0062,0.01644 -0.05889,0.01644 -0.0648,0 -0.09135,-0.0076 -0.05899,-0.01644 z"
       id="path112" />
    <path
       style="fill:#ffdf00;fill-opacity:0.74902;stroke:#000000;stroke-width:0.0349796;stroke-opacity:1"
       d="m 72.056377,87.519007 c -0.05899,-0.02172 -0.148918,-0.08598 -0.199905,-0.143442 l -0.09275,-0.104462 h 0.652488 c 0.580937,0 0.645311,0.0061 0.587121,0.05333 -0.03596,0.02906 -0.08996,0.05389 -0.120132,0.05451 -0.03011,5.59e-4 -0.07205,0.02348 -0.09321,0.05112 -0.02127,0.0273 -0.110101,0.05929 -0.197722,0.07068 -0.08768,0.01115 -0.219953,0.02906 -0.29401,0.039 -0.07405,0.01 -0.182889,5.59e-4 -0.24185,-0.02055 z"
       id="path118" />
    <path
       style="display:inline;fill:#ffdf00;fill-opacity:0.74902;stroke:#000000;stroke-width:0.0349796;stroke-opacity:1"
       d="m 72.668619,89.958973 c -0.12962,-0.03714 -0.36419,-0.13778 -0.521243,-0.223839 -0.269293,-0.14758 -0.291282,-0.168624 -0.386541,-0.370535 -0.08862,-0.187796 -0.102575,-0.259852 -0.113805,-0.587321 -0.01201,-0.348829 -0.0068,-0.384914 0.07655,-0.550485 0.04917,-0.09745 0.122794,-0.219198 0.163653,-0.270534 l 0.07429,-0.09337 0.461475,0.05506 0.461475,0.05506 -0.06196,0.09416 c -0.03407,0.05183 -0.10824,0.179074 -0.164833,0.282862 l -0.102915,0.188642 0.06474,0.292491 c 0.08205,0.370724 0.133704,0.499457 0.261024,0.650501 0.05617,0.06663 0.165013,0.217876 0.241851,0.336141 l 0.139749,0.215001 -0.178885,-0.0034 c -0.09841,-0.0019 -0.284991,-0.03334 -0.414619,-0.07059 z m -0.131062,-1.479591 c 0.06516,-0.09261 0.05679,-0.124715 -0.02877,-0.111536 -0.04869,0.0076 -0.07964,0.04088 -0.08652,0.09337 -0.01281,0.09765 0.05221,0.107926 0.115427,0.0182 z"
       id="path1041" />
    <path
       style="display:inline;fill:#ffdf00;fill-opacity:0.74902;stroke:#000000;stroke-width:0.0349796;stroke-opacity:1"
       d="m 75.71585,90.363343 c -0.138729,-0.03524 -0.305564,-0.08257 -0.370384,-0.105197 -0.06486,-0.0226 -0.223908,-0.05827 -0.353548,-0.07913 -0.457324,-0.07368 -0.654495,-0.217174 -0.835951,-0.608138 -0.240801,-0.519011 -0.251468,-0.856405 -0.03759,-1.192872 0.133343,-0.209718 0.30402,-0.334639 0.366816,-0.26848 0.05025,0.05318 0.260001,0.03948 0.322078,-0.02114 0.05025,-0.0491 0.06947,-0.0491 0.178366,0 0.06706,0.03008 0.197984,0.05504 0.29081,0.05504 0.157146,0 0.170158,0.0071 0.187574,0.09994 0.02642,0.140594 0.126117,0.346623 0.176164,0.36396 0.05966,0.02055 0.05264,-0.117846 -0.01201,-0.253245 -0.02963,-0.06202 -0.06205,-0.241095 -0.07227,-0.397933 -0.01802,-0.29296 -0.06186,-0.369972 -0.09809,-0.174643 l -0.02042,0.110451 -0.115507,-0.184886 c -0.06346,-0.101674 -0.150939,-0.202381 -0.19438,-0.223689 -0.08648,-0.04277 -0.233276,-0.441157 -0.213918,-0.581477 0.01001,-0.06349 0.04584,-0.02962 0.206291,0.188085 0.1077,0.145995 0.225349,0.328296 0.261642,0.405118 0.03644,0.07681 0.07987,0.139684 0.09709,0.139684 0.09809,0 0.07887,-1.013739 -0.02963,-1.585052 -0.03463,-0.182245 -0.09449,-0.40817 -0.132924,-0.50203 -0.03843,-0.0939 -0.110302,-0.353014 -0.159747,-0.575884 -0.113106,-0.51019 -0.157347,-0.564306 -0.551833,-0.675311 -0.371374,-0.104492 -0.661789,-0.23499 -0.913147,-0.410334 -0.175583,-0.122455 -0.200928,-0.154242 -0.191737,-0.240331 0.0098,-0.09445 0.02095,-0.10009 0.228637,-0.117378 0.190437,-0.01586 0.223428,-0.02962 0.260456,-0.109012 0.02336,-0.04998 0.0426,-0.178869 0.04302,-0.286561 3.09e-4,-0.16249 -0.01441,-0.21001 -0.08375,-0.279926 l -0.08418,-0.08423 -0.08846,0.09557 c -0.07507,0.08098 -0.08232,0.106195 -0.04814,0.165368 0.04344,0.07485 0.02068,0.134752 -0.02937,0.07849 -0.03403,-0.03802 -0.04586,-0.104344 -0.03987,-0.22357 0.0029,-0.05629 0.0624,-0.120784 0.197603,-0.213622 0.106559,-0.07312 0.257158,-0.195776 0.334847,-0.272561 0.136186,-0.134518 0.144613,-0.137658 0.235708,-0.08641 0.05201,0.02936 0.147737,0.05327 0.213071,0.05339 0.144534,2.79e-4 0.315494,0.142297 0.506171,0.420857 0.101893,0.148813 0.148737,0.268098 0.201666,0.512982 0.03784,0.175493 0.119711,0.41743 0.181768,0.537622 0.06206,0.120196 0.137328,0.308466 0.167156,0.418414 0.02963,0.109952 0.09829,0.289819 0.152342,0.399717 0.05385,0.109952 0.138528,0.355221 0.187774,0.545088 0.111904,0.42969 0.362375,1.182508 0.489994,1.471736 0.05285,0.119902 0.15094,0.357052 0.217822,0.526919 0.06686,0.169917 0.17296,0.410286 0.235478,0.534221 0.06266,0.123894 0.159148,0.385569 0.213899,0.581425 0.05485,0.195833 0.123114,0.421516 0.15154,0.501453 0.03003,0.07998 0.05245,0.197069 0.05305,0.260204 4.76e-4,0.06319 0.03003,0.212506 0.06406,0.331863 0.05245,0.181099 0.05566,0.234285 0.02101,0.321202 -0.05065,0.127946 -0.428617,0.522635 -0.589087,0.615258 -0.168356,0.09727 -0.828288,0.108013 -1.178393,0.01935 z"
       id="path1045" />
    <path
       style="display:inline;fill:#ffdf00;fill-opacity:0.74902;stroke:#000000;stroke-width:0.0349796;stroke-opacity:1"
       d="m 73.587932,87.964231 c -0.153743,-0.138423 -0.30828,-0.30438 -0.343364,-0.368797 -0.06853,-0.126066 -0.154944,-0.551257 -0.155025,-0.76384 -2.7e-5,-0.12178 0.07797,-0.250898 0.151501,-0.250898 0.01561,0 0.05243,-0.02172 0.0815,-0.04825 0.02906,-0.02671 0.148859,-0.09196 0.265819,-0.14538 0.179386,-0.08189 0.261802,-0.09713 0.52667,-0.09713 h 0.314019 l 0.163973,0.159087 c 0.161149,0.156356 0.164752,0.164369 0.202948,0.463333 0.02162,0.167334 0.04945,0.332808 0.06206,0.367812 0.02002,0.05231 0.004,0.06357 -0.08127,0.06357 -0.17196,0 -0.122113,0.09792 0.08908,0.174496 0.148938,0.0541 0.338894,0.215676 0.397689,0.338399 0.06446,0.134342 0.06246,0.14121 -0.03684,0.14121 -0.136525,0 -0.294933,-0.08823 -0.408378,-0.22771 -0.121713,-0.149782 -0.304384,-0.634685 -0.35449,-0.941687 -0.02278,-0.138745 -0.05072,-0.211537 -0.08134,-0.211537 -0.05955,0 -0.0584,0.06907 0.0042,0.363393 0.07179,0.333277 0.174842,0.64687 0.270279,0.824104 0.04484,0.08351 0.08167,0.1612 0.08167,0.172589 0,0.039 -0.155344,0.02055 -0.208514,-0.02436 -0.08176,-0.07001 -0.380693,-0.636497 -0.469566,-0.889779 -0.04374,-0.124597 -0.0909,-0.2268 -0.104696,-0.227123 -0.01441,-2.81e-4 -0.02516,0.06079 -0.02516,0.135752 1.5e-5,0.144263 0.137328,0.491999 0.307979,0.779988 0.10842,0.182861 0.103976,0.246584 -0.01681,0.246584 -0.08702,0 -0.289932,-0.213915 -0.374363,-0.394831 -0.07307,-0.15659 -0.315287,-0.441013 -0.37553,-0.441013 -0.06964,0 -0.05925,0.02583 0.105278,0.26208 0.08334,0.119638 0.15152,0.231262 0.15152,0.248081 0,0.01702 0.06054,0.106106 0.134624,0.198475 0.148419,0.185033 0.180488,0.345211 0.06909,0.345211 -0.03603,0 -0.191337,-0.113297 -0.345132,-0.251719 z"
       id="path1051" />
    <path
       style="display:inline;fill:#191964;fill-opacity:1;stroke:#000000;stroke-width:0.0349796;stroke-opacity:1"
       d="m 75.561466,91.993497 c -0.05645,-0.0609 -0.229212,-0.220315 -0.383936,-0.354324 -0.154743,-0.133991 -0.308526,-0.284447 -0.341736,-0.334452 -0.03563,-0.05374 -0.07387,-0.209891 -0.09329,-0.382286 -0.04304,-0.379742 -0.05385,-0.405023 -0.199785,-0.460842 -0.163413,-0.06255 -1.001728,-0.05803 -1.554298,0.0085 -0.231487,0.0276 -0.625442,0.04998 -0.875449,0.04936 -1.032855,-0.0026 -1.583736,-0.308746 -1.851403,-1.028724 -0.233044,-0.626885 -0.230735,-0.839735 0.01501,-1.366252 0.0841,-0.180278 0.152942,-0.339713 0.152942,-0.35428 0,-0.05962 -0.09383,-0.02025 -0.175042,0.07341 -0.176264,0.203348 -0.254372,0.442048 -0.294247,0.899388 -0.01982,0.22812 -0.02667,0.122457 -0.03101,-0.490578 -0.0042,-0.602212 0.0068,-0.843758 0.04889,-1.053835 0.09369,-0.467985 0.07661,-0.44844 0.365924,-0.419214 0.146636,0.01497 0.355206,0.0079 0.506898,-0.01702 0.141752,-0.02289 0.26444,-0.03478 0.272648,-0.02583 0.0084,0.0088 -0.144194,0.142972 -0.338667,0.298034 -0.351601,0.280338 -0.523783,0.470874 -0.523783,0.579648 0,0.08621 0.03643,0.07068 0.219471,-0.09366 0.09225,-0.0828 0.364711,-0.309499 0.605456,-0.503747 l 0.437728,-0.353199 0.353544,0.04323 c 0.369432,0.04559 0.489502,0.09346 0.731926,0.292871 l 0.142653,0.117378 -0.428875,0.02495 c -0.591287,0.03384 -0.647739,0.04653 -0.647739,0.144763 0,0.09243 0.133704,0.238922 0.301662,0.330502 0.149137,0.08133 0.566675,0.0553 0.856842,-0.05336 0.109381,-0.04088 0.204073,-0.07452 0.210455,-0.07452 0.0409,0 -3.08e-4,0.158205 -0.05726,0.219579 -0.06406,0.06912 -0.106419,0.07385 -0.614485,0.06912 l -0.545729,-0.0053 -0.109642,0.171354 c -0.163892,0.256211 -0.222438,0.515151 -0.200539,0.887545 0.04194,0.714171 0.267167,0.992088 0.990122,1.221897 0.378174,0.120226 0.974021,0.166573 1.00543,0.07822 0.01281,-0.03617 -0.02964,-0.112242 -0.118931,-0.21145 -0.318104,-0.353761 -0.674163,-1.040538 -0.674163,-1.300363 0,-0.102114 0.255961,-0.534626 0.39657,-0.670183 0.06648,-0.0641 0.06916,-0.0641 0.0858,0 0.0098,0.03666 0.02667,0.164368 0.03831,0.284271 0.05726,0.591498 0.168636,1.035668 0.259587,1.035668 0.0473,0 0.01561,-0.787095 -0.03987,-0.99241 -0.02068,-0.07611 -0.03277,-0.153686 -0.02697,-0.172382 0.0056,-0.01878 0.101434,0.0315 0.212581,0.111066 0.111123,0.07975 0.220971,0.145056 0.244128,0.145085 0.05455,1.42e-4 0.05315,0.01702 -0.01281,0.153657 -0.09359,0.195365 -0.05072,0.639937 0.09389,0.972987 0.147397,0.339571 0.359844,0.631461 0.526214,0.723073 0.06987,0.03854 0.332549,0.112298 0.583582,0.164044 0.459626,0.09469 0.817378,0.203321 0.875211,0.265752 0.04304,0.04605 0.04664,0.189933 0.01401,0.56356 l -0.02703,0.317349 0.113906,0.118727 c 0.06266,0.06528 0.159147,0.153979 0.214379,0.197007 0.08968,0.06977 0.09509,0.08433 0.05004,0.133726 -0.04124,0.04511 -0.448916,0.1332 -0.617593,0.1332 -0.02222,0 -0.08648,-0.04981 -0.142932,-0.110716 z"
       id="path1057" />
    <path
       style="display:inline;fill:#191964;fill-opacity:1;stroke:#000000;stroke-width:0.0349796;stroke-opacity:1"
       d="m 75.540727,91.968821 c -0.07967,-0.0771 -0.268809,-0.251574 -0.42047,-0.387731 -0.300619,-0.269947 -0.329946,-0.325807 -0.383135,-0.730558 -0.04044,-0.308328 -0.09229,-0.372698 -0.336394,-0.417057 -0.204314,-0.03714 -0.946486,-0.01879 -1.421837,0.03524 -0.470394,0.05348 -1.258097,0.04464 -1.558746,-0.0173 -0.52201,-0.107778 -0.885789,-0.377863 -1.085917,-0.806152 -0.134004,-0.286796 -0.241432,-0.675209 -0.241432,-0.872902 0,-0.167539 0.135405,-0.582055 0.265308,-0.811994 0.126818,-0.22451 0.05746,-0.302735 -0.103656,-0.116848 -0.1287,0.14846 -0.20048,0.320963 -0.268423,0.645018 l -0.06095,0.290699 0.01441,-0.744955 c 0.01401,-0.731725 0.06245,-1.115536 0.153242,-1.213474 0.02246,-0.02436 0.192238,-0.04136 0.431222,-0.0437 0.216686,-0.0019 0.437873,-0.01643 0.491562,-0.03244 0.142632,-0.04276 0.09427,0.01732 -0.223218,0.278488 -0.335316,0.275495 -0.530984,0.489005 -0.530984,0.579437 0,0.09542 0.02906,0.08626 0.202037,-0.06375 0.08334,-0.07226 0.356839,-0.299024 0.607777,-0.503898 l 0.456274,-0.372511 0.346626,0.04846 c 0.364569,0.05099 0.549956,0.125742 0.74304,0.299727 l 0.11659,0.10505 -0.45173,0.02671 c -0.631226,0.0376 -0.698812,0.0772 -0.521314,0.304897 0.186974,0.239832 0.622052,0.287148 1.073374,0.116819 0.237566,-0.0897 0.22202,-0.08832 0.22202,-0.01878 0,0.031 -0.03722,0.09633 -0.08266,0.145378 -0.08079,0.08726 -0.09435,0.08917 -0.619739,0.08917 h -0.537106 l -0.105477,0.171912 c -0.16073,0.261905 -0.216327,0.513907 -0.19428,0.880726 0.04394,0.731281 0.299069,1.027396 1.072142,1.244466 0.313773,0.08812 0.905318,0.115118 0.928337,0.0423 0.0072,-0.0226 -0.07476,-0.14937 -0.182049,-0.282186 -0.229209,-0.283891 -0.493214,-0.760019 -0.573342,-1.033999 l -0.05674,-0.194043 0.09955,-0.198623 c 0.05473,-0.109247 0.16243,-0.275377 0.239306,-0.369174 l 0.139749,-0.170562 0.01862,0.12718 c 0.121813,0.831662 0.154884,1.018632 0.200808,1.135599 0.02937,0.07493 0.07166,0.136251 0.09401,0.136251 0.04674,0 0.02038,-0.748943 -0.03489,-0.998304 -0.01762,-0.07939 -0.02636,-0.150632 -0.01922,-0.158382 0.0072,-0.0079 0.102995,0.04511 0.212999,0.117084 0.109982,0.07212 0.217165,0.131085 0.238137,0.131085 0.02606,0 0.02188,0.04182 -0.01281,0.131613 -0.144734,0.373775 0.01581,1.014918 0.373648,1.491131 0.153203,0.204052 0.321493,0.283507 0.838052,0.395909 0.240743,0.05239 0.536218,0.130616 0.656569,0.173909 l 0.218863,0.07867 v 0.469725 0.469725 l 0.185172,0.163429 c 0.101894,0.08988 0.184971,0.180278 0.184971,0.200971 0,0.04653 -0.208433,0.113152 -0.461327,0.147021 -0.188776,0.02525 -0.19438,0.02349 -0.336693,-0.114468 z"
       id="path1061" />
    <path
       style="display:inline;fill:#ffdf00;fill-opacity:0.74902;stroke:#000000;stroke-width:0.0349796;stroke-opacity:1"
       d="m 75.648507,90.322042 c -0.138929,-0.03807 -0.401853,-0.102057 -0.584322,-0.14265 -0.18257,-0.04042 -0.394606,-0.103758 -0.471397,-0.140386 -0.289448,-0.13819 -0.556108,-0.622165 -0.586164,-1.063872 -0.02068,-0.307293 0.02606,-0.456853 0.21393,-0.682525 l 0.1502,-0.180249 0.178766,0.01966 c 0.107299,0.01174 0.208052,0.0032 0.251874,-0.02202 0.05205,-0.03008 0.109501,-0.03196 0.199184,-0.0061 0.06947,0.02025 0.196983,0.04605 0.283723,0.05774 0.137728,0.01878 0.160349,0.03384 0.177965,0.120958 0.02582,0.126358 0.140931,0.332804 0.185772,0.332804 0.04765,0 0.04163,-0.136222 -0.01201,-0.308889 -0.02542,-0.07998 -0.05665,-0.256651 -0.06987,-0.392619 -0.02403,-0.252278 -0.07727,-0.308939 -0.123114,-0.131554 -0.01201,0.04849 -0.02422,0.06936 -0.02602,0.04653 -0.0014,-0.02289 -0.09149,-0.146788 -0.199385,-0.275142 -0.133124,-0.158764 -0.209857,-0.286854 -0.239364,-0.400607 -0.07326,-0.282392 -0.02422,-0.270123 0.192778,0.04849 0.114506,0.168126 0.230675,0.338351 0.258,0.378337 0.08528,0.124833 0.118309,-0.0012 0.11871,-0.454219 4.48e-4,-0.535076 -0.05225,-0.995906 -0.156145,-1.362722 -0.04524,-0.159908 -0.126918,-0.462442 -0.181368,-0.672281 -0.174963,-0.675196 -0.161149,-0.659537 -0.769604,-0.870958 -0.524406,-0.182215 -0.89019,-0.405869 -0.906161,-0.554027 -0.0098,-0.09366 -0.0029,-0.09806 0.194841,-0.122221 0.257549,-0.03146 0.303864,-0.09222 0.303864,-0.398695 0,-0.189348 -0.01281,-0.234226 -0.08376,-0.306772 -0.0829,-0.084 -0.0846,-0.08418 -0.155485,-0.01527 -0.03945,0.03825 -0.08404,0.10229 -0.09929,0.142238 -0.02727,0.07174 -0.02757,0.07174 -0.02964,-0.0022 -0.0029,-0.10097 0.04658,-0.160583 0.284061,-0.343417 0.111103,-0.08547 0.240951,-0.194161 0.288466,-0.241506 0.07248,-0.0722 0.102415,-0.0806 0.185251,-0.0521 0.05429,0.01878 0.156546,0.04432 0.227063,0.057 0.267468,0.04799 0.544245,0.423309 0.683954,0.927403 0.04704,0.169917 0.136327,0.431526 0.198585,0.581431 0.24827,0.598841 0.395146,1.009157 0.601037,1.679124 0.199986,0.65062 0.551031,1.572947 0.814235,2.139256 0.16155,0.347606 0.341957,0.929362 0.453941,1.463728 0.08848,0.421002 0.09309,0.47709 0.04964,0.567475 -0.07787,0.162579 -0.515037,0.576824 -0.652064,0.617894 -0.205871,0.06173 -0.865783,0.04042 -1.149806,-0.03714 z"
       id="path1063" />
    <path
       style="display:inline;fill:#ffdf00;fill-opacity:0.74902;stroke:#000000;stroke-width:0.0349796;stroke-opacity:1"
       d="m 72.672279,89.94124 c -0.09059,-0.0267 -0.307144,-0.123161 -0.481225,-0.213975 -0.315252,-0.164488 -0.31692,-0.166043 -0.415832,-0.394171 -0.08784,-0.202556 -0.09985,-0.271532 -0.103976,-0.596978 -0.0048,-0.36377 -0.0032,-0.370442 0.119531,-0.588592 0.0683,-0.121369 0.138709,-0.230323 0.156505,-0.24221 0.04222,-0.02819 0.813521,0.05771 0.851822,0.09486 0.01622,0.01586 -0.02547,0.123307 -0.09257,0.239128 -0.0671,0.115822 -0.122013,0.189494 -0.122013,0.163753 0,-0.08838 -0.150679,-0.03005 -0.162911,0.06325 -0.0092,0.07118 4.49e-4,0.08344 0.05537,0.06798 0.05827,-0.01644 0.07185,0.0094 0.107019,0.202234 0.06642,0.364334 0.156585,0.573521 0.386991,0.89759 0.120392,0.169333 0.219084,0.320213 0.219263,0.335201 5.05e-4,0.04371 -0.338025,0.02525 -0.517896,-0.02815 z"
       id="path1067" />
    <path
       style="display:inline;fill:#ffdf00;fill-opacity:1;stroke:#000000;stroke-width:0.0349796;stroke-opacity:1"
       d="m 75.265251,91.725597 c -0.220063,-0.205342 -0.419789,-0.412679 -0.443831,-0.460704 -0.02403,-0.04801 -0.05365,-0.169094 -0.06546,-0.269037 -0.06667,-0.55389 -0.08868,-0.5689 -0.830005,-0.567393 -0.295985,7.46e-4 -0.726586,0.02025 -0.956946,0.04371 -0.559681,0.05679 -1.483516,0.02581 -1.73131,-0.05771 -0.575608,-0.194427 -0.844991,-0.496915 -1.065488,-1.196408 -0.130441,-0.413811 -0.09685,-0.678648 0.153883,-1.214841 0.05935,-0.126858 0.09907,-0.240157 0.08828,-0.251749 -0.04212,-0.04559 -0.208237,0.136161 -0.295236,0.32275 -0.05036,0.107985 -0.114566,0.310817 -0.142592,0.450695 -0.05049,0.251573 -0.05091,0.246055 -0.03763,-0.490578 0.01341,-0.74636 0.05779,-1.092311 0.156465,-1.220657 0.03603,-0.04699 0.08338,-0.05436 0.231815,-0.03665 0.102595,0.01233 0.314403,0.0061 0.470682,-0.0135 0.156285,-0.01966 0.290113,-0.02906 0.297392,-0.02114 0.0072,0.0079 -0.1287,0.136251 -0.302169,0.285299 -0.339546,0.291726 -0.531907,0.505233 -0.531907,0.590356 0,0.02906 0.009,0.05325 0.02038,0.05325 0.01141,0 0.143834,-0.103847 0.294635,-0.230793 0.150801,-0.126945 0.425725,-0.353478 0.610919,-0.503378 l 0.33671,-0.272559 0.269382,0.0315 c 0.367949,0.04276 0.576467,0.115968 0.769082,0.269507 0.08964,0.07147 0.157786,0.135546 0.1514,0.142414 -0.0062,0.0071 -0.190076,0.02407 -0.408244,0.03854 -0.668907,0.04371 -0.744127,0.09149 -0.513647,0.326085 0.216417,0.220314 0.561807,0.250077 1.036798,0.08937 0.115727,-0.039 0.214198,-0.07139 0.218843,-0.07165 0.0042,-2.82e-4 0.0084,0.03102 0.0084,0.06959 0,0.03854 -0.0399,0.103934 -0.0887,0.145378 -0.08121,0.06892 -0.133524,0.07532 -0.618439,0.07532 h -0.529731 l -0.0866,0.141241 c -0.202516,0.330271 -0.263601,0.68225 -0.19364,1.115758 0.09365,0.580345 0.363721,0.844437 1.059747,1.036223 0.304597,0.08392 0.820561,0.127476 0.890904,0.07517 0.03631,-0.0273 -0.0056,-0.103638 -0.195141,-0.356532 -0.256469,-0.342159 -0.575298,-0.971176 -0.574769,-1.133944 3.36e-4,-0.121752 0.152942,-0.410569 0.329331,-0.623559 0.158207,-0.19105 0.131282,-0.247288 0.237627,0.495459 0.07079,0.494392 0.140751,0.740069 0.210606,0.740069 0.04772,0 0.01982,-0.711992 -0.03815,-0.97687 -0.01922,-0.08759 -0.02727,-0.167451 -0.01802,-0.177519 0.0098,-0.01027 0.109401,0.04136 0.222438,0.113796 0.113085,0.07271 0.218635,0.132083 0.234722,0.132083 0.01622,0 0.0056,0.07555 -0.02366,0.167892 -0.110543,0.350333 0.0056,0.87769 0.29341,1.318733 0.215248,0.331211 0.310558,0.385434 0.92795,0.528035 0.294874,0.06813 0.611908,0.15436 0.704514,0.191667 l 0.168356,0.06786 v 0.464653 c 0,0.517485 -0.02282,0.460518 0.287928,0.719158 0.08308,0.06915 0.106098,0.108073 0.08027,0.136776 -0.04023,0.04511 -0.457464,0.147965 -0.587125,0.14491 -0.05665,-0.0015 -0.214138,-0.123247 -0.484289,-0.375375 z"
       id="path1075" />
    <path
       style="display:inline;fill:#ffdf00;fill-opacity:0.74902;stroke:#000000;stroke-width:0.0349796;stroke-opacity:1"
       d="m 72.760536,89.957992 c -0.209884,-0.04465 -0.765153,-0.316361 -0.863577,-0.422599 -0.144153,-0.155564 -0.221629,-0.442707 -0.221629,-0.821323 0,-0.322373 0.0048,-0.3438 0.128159,-0.570976 0.144794,-0.266601 0.104757,-0.254185 0.647903,-0.201382 0.355045,0.03431 0.372333,0.05168 0.264769,0.263403 -0.07247,0.142708 -0.103616,0.171736 -0.185172,0.17291 -0.07559,0.0012 -0.100513,0.02025 -0.108781,0.08316 -0.0084,0.06032 0.0062,0.08174 0.05363,0.08174 0.05085,0 0.07331,0.0437 0.1073,0.208955 0.07369,0.358224 0.162531,0.56169 0.384573,0.881221 0.118069,0.169918 0.208059,0.321157 0.199945,0.336144 -0.01822,0.03431 -0.218903,0.02879 -0.407037,-0.01115 z"
       id="path1077" />
    <path
       style="display:inline;fill:#ffdf00;fill-opacity:0.74902;stroke:#000000;stroke-width:0.0349796;stroke-opacity:1"
       d="m 75.86735,90.359979 c -0.406157,-0.06193 -1.285833,-0.316551 -1.395254,-0.403896 -0.12906,-0.103083 -0.322339,-0.409252 -0.392224,-0.621691 -0.02817,-0.08553 -0.05997,-0.256913 -0.07094,-0.380917 -0.01742,-0.195043 -0.0086,-0.251516 0.06794,-0.419029 0.04828,-0.106458 0.132884,-0.240301 0.188174,-0.297427 0.09359,-0.09683 0.121514,-0.10455 0.413604,-0.114559 0.17216,-0.0061 0.408099,0.0061 0.524046,0.02671 l 0.210875,0.0376 0.09209,0.20373 c 0.05065,0.112065 0.111304,0.209805 0.134325,0.217262 0.05165,0.01702 0.05566,-0.130264 0.008,-0.267043 -0.01802,-0.05366 -0.04964,-0.213797 -0.06827,-0.355923 -0.03683,-0.281454 -0.08808,-0.385855 -0.121913,-0.247671 -0.02002,0.07931 -0.02782,0.07458 -0.167356,-0.09149 -0.18633,-0.221811 -0.302518,-0.430493 -0.330003,-0.593039 l -0.02162,-0.127181 0.122714,0.145379 c 0.06746,0.07992 0.182369,0.239392 0.255176,0.354327 0.07287,0.114941 0.146736,0.208955 0.164153,0.208955 0.06186,0 0.07607,-0.198506 0.05525,-0.759246 -0.02463,-0.656485 -0.03804,-0.738791 -0.242886,-1.493779 -0.268529,-0.989804 -0.241384,-0.948905 -0.748995,-1.12793 -0.621662,-0.219228 -1.055821,-0.490505 -1.006607,-0.628912 0.01141,-0.03099 0.08988,-0.06314 0.193119,-0.07846 0.246644,-0.03666 0.30177,-0.108453 0.30177,-0.393202 0,-0.20065 -0.01141,-0.241067 -0.08748,-0.317967 l -0.08748,-0.08809 -0.09787,0.125832 c -0.05912,0.07605 -0.09773,0.103904 -0.09773,0.07039 0,-0.06439 0.09587,-0.16343 0.415941,-0.429438 0.222829,-0.185238 0.236129,-0.190962 0.387208,-0.16707 0.444271,0.07024 0.661152,0.320866 0.880997,1.018063 0.05025,0.159908 0.190576,0.544186 0.311528,0.853973 0.120912,0.309783 0.303281,0.824901 0.405296,1.144685 0.321479,1.008022 0.411161,1.248353 0.847326,2.271198 0.281601,0.660251 0.556536,1.636738 0.556536,1.976257 0,0.151865 -0.204629,0.41287 -0.490275,0.625103 -0.189575,0.140916 -0.191377,0.141386 -0.548609,0.148136 -0.197182,0.0038 -0.449396,-0.0071 -0.560519,-0.02405 z"
       id="path1079" />
    <path
       style="fill:#ffdf00;fill-opacity:0.74902;stroke:#000000;stroke-width:0.0349796;stroke-opacity:1"
       d="m 71.995195,87.461126 c -0.05553,-0.03807 -0.121813,-0.09642 -0.147217,-0.129646 -0.04262,-0.05577 -0.01441,-0.0602 0.370379,-0.05723 0.22915,0.0019 0.49103,0.01408 0.582022,0.0273 l 0.165434,0.02407 -0.17198,0.08071 c -0.103196,0.04846 -0.277111,0.08937 -0.434803,0.10235 -0.222947,0.01819 -0.2781,0.01115 -0.363802,-0.04762 z"
       id="path1083" />
    <path
       style="fill:#ffdf00;fill-opacity:0.74902;stroke:#000000;stroke-width:0.00805452;stroke-opacity:1"
       d="m 73.568299,83.33748 c 0,-0.09487 4.49e-4,-0.100412 0.01561,-0.100412 0.0098,0 0.01562,-0.0056 0.01562,-0.01673 0,-0.0094 0.0042,-0.01673 0.01141,-0.01673 0.0056,0 0.01141,0.0074 0.01141,0.01673 0,0.01115 0.0042,0.01673 0.01562,0.01673 0.0098,0 0.01521,0.0056 0.01521,0.01702 0,0.01115 -0.0042,0.01702 -0.01521,0.01702 -0.01441,0 -0.01562,0.0056 -0.01562,0.0502 v 0.05019 h 0.0426 c 0.03759,0 0.0426,-0.0022 0.0426,-0.01702 0,-0.01115 0.0042,-0.01702 0.01561,-0.01702 0.0098,0 0.01561,-0.0056 0.01561,-0.01702 0,-0.01586 0.0042,-0.01702 0.09303,-0.01702 h 0.09303 v 0.03337 c 0,0.02407 -0.0029,0.03337 -0.01141,0.03337 -0.0056,0 -0.01141,0.0076 -0.01141,0.01702 0,0.0135 -0.0042,0.01703 -0.02697,0.01703 -0.02188,0 -0.02697,0.0032 -0.02697,0.01702 0,0.01586 -0.0056,0.01702 -0.139609,0.01702 h -0.13945 z"
       id="path1295" />
    <path
       style="fill:#ffdf00;fill-opacity:0.74902;stroke:#000000;stroke-width:0.00805452;stroke-opacity:1"
       d="m 73.847418,83.011148 c 0,-0.01115 -0.0042,-0.01673 -0.01521,-0.01673 -0.01281,0 -0.01561,-0.0056 -0.01561,-0.03346 0,-0.0327 -5.05e-4,-0.03346 -0.02697,-0.03346 -0.03221,0 -0.03603,-0.01291 -0.0056,-0.01937 0.01141,-0.0026 0.03091,-0.0074 0.0426,-0.01027 0.01822,-0.0047 0.02127,-0.0032 0.02127,0.01203 0,0.01 0.0042,0.01761 0.01141,0.01761 0.0098,0 0.01141,0.01115 0.01141,0.05019 0,0.03904 -0.0029,0.05019 -0.01141,0.05019 -0.0056,0 -0.01141,-0.0074 -0.01141,-0.01673 z"
       id="path1297" />
    <path
       style="fill:#ffdf00;fill-opacity:0.74902;stroke:#000000;stroke-width:0.00805452;stroke-opacity:1"
       d="m 73.901693,83.011148 c 0,-0.0094 0.0056,-0.01673 0.01141,-0.01673 0.0056,0 0.01141,0.0074 0.01141,0.01673 0,0.0094 -0.0042,0.01673 -0.01141,0.01673 -0.0056,0 -0.01141,-0.0074 -0.01141,-0.01673 z"
       id="path1299" />
    <path
       style="fill:#ffdf00;fill-opacity:0.74902;stroke:#000000;stroke-width:0.00805452;stroke-opacity:1"
       d="m 73.901693,82.977678 c 0,-0.0094 0.0056,-0.01673 0.01141,-0.01673 0.0056,0 0.01141,0.0074 0.01141,0.01673 0,0.0094 -0.0042,0.01673 -0.01141,0.01673 -0.0056,0 -0.01141,-0.0074 -0.01141,-0.01673 z"
       id="path1303" />
    <path
       style="display:inline;fill:#ffdf00;fill-opacity:0.74902;stroke:#000000;stroke-width:0.0298218;stroke-opacity:1"
       d="m 75.81258,90.370492 c -0.110303,-0.0229 -0.280541,-0.06475 -0.377811,-0.09235 -0.09709,-0.0276 -0.30204,-0.07798 -0.455043,-0.111977 -0.152941,-0.03386 -0.331767,-0.08743 -0.397268,-0.118843 -0.167736,-0.08033 -0.32324,-0.280836 -0.45831,-0.590712 -0.09871,-0.226624 -0.117951,-0.304237 -0.12878,-0.521404 -0.01141,-0.22733 -0.0042,-0.272943 0.06126,-0.418231 0.04074,-0.08976 0.125496,-0.21735 0.188375,-0.283713 0.112664,-0.118698 0.117528,-0.120489 0.317099,-0.115059 0.111304,0.0032 0.229193,-0.01 0.261563,-0.02877 0.04284,-0.02494 0.08528,-0.02435 0.155744,5.6e-4 0.05325,0.01878 0.176164,0.04418 0.272894,0.05609 l 0.175963,0.02172 0.06886,0.183477 c 0.03784,0.100941 0.08848,0.204493 0.112104,0.230088 0.06986,0.07541 0.08728,-0.02906 0.03403,-0.203348 -0.02522,-0.08157 -0.05945,-0.259616 -0.07667,-0.395675 -0.01602,-0.136074 -0.03784,-0.258295 -0.04524,-0.271591 -0.02303,-0.03995 -0.06726,0.0071 -0.06726,0.07156 0,0.0329 -0.01201,0.06014 -0.02883,0.06014 -0.01401,0 -0.02883,-0.01321 -0.02883,-0.02962 0,-0.01644 -0.07847,-0.120518 -0.174562,-0.23132 -0.18297,-0.211068 -0.2853,-0.432559 -0.28388,-0.614372 l 4.77e-4,-0.100354 0.08528,0.108455 c 0.04704,0.05962 0.163552,0.230411 0.25918,0.379511 0.09549,0.149078 0.185372,0.271063 0.199585,0.271063 0.04965,0 0.06546,-0.232642 0.04925,-0.726163 -0.01602,-0.517227 -0.08228,-0.956575 -0.193179,-1.303115 -0.03263,-0.102231 -0.104897,-0.360103 -0.160749,-0.573015 -0.05585,-0.212946 -0.126518,-0.431103 -0.157346,-0.484813 -0.06426,-0.112241 -0.203328,-0.188027 -0.52851,-0.28794 -0.445293,-0.136779 -0.990339,-0.460892 -0.990339,-0.588904 0,-0.08142 0.04246,-0.104022 0.24323,-0.129587 0.232772,-0.02962 0.273486,-0.08626 0.273486,-0.380864 0,-0.204112 -0.0072,-0.230235 -0.08062,-0.306502 l -0.08078,-0.08339 -0.08078,0.09105 c -0.06354,0.07147 -0.0768,0.108659 -0.06184,0.173115 0.01281,0.05345 0.0086,0.07511 -0.01141,0.06214 -0.01642,-0.01085 -0.02997,-0.07429 -0.02997,-0.140799 0,-0.114941 0.01141,-0.129529 0.222468,-0.29735 0.122374,-0.09707 0.266237,-0.217379 0.319719,-0.267364 0.07476,-0.06997 0.114526,-0.08635 0.1722,-0.07118 0.04131,0.01085 0.139609,0.03395 0.218563,0.05139 0.182969,0.04045 0.327462,0.147668 0.468994,0.348428 0.149338,0.212007 0.164753,0.247081 0.282842,0.64959 0.05566,0.190346 0.137128,0.422785 0.180769,0.516504 0.04384,0.09375 0.112103,0.267952 0.152341,0.387263 0.04023,0.119257 0.111302,0.307482 0.158346,0.418229 0.04704,0.110745 0.133324,0.368658 0.192178,0.573148 0.207171,0.720557 0.609586,1.798638 0.922214,2.470619 0.146135,0.314338 0.366182,1.040561 0.455082,1.502782 0.06706,0.348969 0.07367,0.42443 0.04344,0.502576 -0.04724,0.123426 -0.466113,0.551499 -0.598115,0.611394 -0.146536,0.06657 -0.78675,0.08313 -1.052757,0.0273 z"
       id="path842" />
    <path
       style="display:inline;fill:#ffdf00;fill-opacity:0.74902;stroke:#000000;stroke-width:0.0298218;stroke-opacity:1"
       d="m 75.81258,90.370492 c -0.110303,-0.0229 -0.280541,-0.06475 -0.377811,-0.09235 -0.09709,-0.0276 -0.30204,-0.07798 -0.455043,-0.111977 -0.152941,-0.03386 -0.331767,-0.08743 -0.397268,-0.118843 -0.167736,-0.08033 -0.32324,-0.280836 -0.45831,-0.590712 -0.09871,-0.226624 -0.117951,-0.304237 -0.12878,-0.521404 -0.01141,-0.22733 -0.0042,-0.272943 0.06126,-0.418231 0.04074,-0.08976 0.125496,-0.21735 0.188375,-0.283713 0.112664,-0.118698 0.117528,-0.120489 0.317099,-0.115059 0.111304,0.0032 0.229193,-0.01 0.261563,-0.02877 0.04284,-0.02494 0.08528,-0.02435 0.155744,5.6e-4 0.05325,0.01878 0.176164,0.04418 0.272894,0.05609 l 0.175963,0.02172 0.06886,0.183477 c 0.03784,0.100941 0.08848,0.204493 0.112104,0.230088 0.06986,0.07541 0.08728,-0.02906 0.03403,-0.203348 -0.02522,-0.08157 -0.05945,-0.259616 -0.07667,-0.395675 -0.01602,-0.136074 -0.03784,-0.258295 -0.04524,-0.271591 -0.02303,-0.03995 -0.06726,0.0071 -0.06726,0.07156 0,0.0329 -0.01201,0.06014 -0.02883,0.06014 -0.01401,0 -0.02883,-0.01321 -0.02883,-0.02962 0,-0.01644 -0.07847,-0.120518 -0.174562,-0.23132 -0.18297,-0.211068 -0.2853,-0.432559 -0.28388,-0.614372 l 4.77e-4,-0.100354 0.08528,0.108455 c 0.04704,0.05962 0.163552,0.230411 0.25918,0.379511 0.09549,0.149078 0.185372,0.271063 0.199585,0.271063 0.04965,0 0.06546,-0.232642 0.04925,-0.726163 -0.01602,-0.517227 -0.08228,-0.956575 -0.193179,-1.303115 -0.03263,-0.102231 -0.104897,-0.360103 -0.160749,-0.573015 -0.05585,-0.212946 -0.126518,-0.431103 -0.157346,-0.484813 -0.06426,-0.112241 -0.203328,-0.188027 -0.52851,-0.28794 -0.445293,-0.136779 -0.990339,-0.460892 -0.990339,-0.588904 0,-0.08142 0.04246,-0.104022 0.24323,-0.129587 0.232772,-0.02962 0.273486,-0.08626 0.273486,-0.380864 0,-0.204112 -0.0072,-0.230235 -0.08062,-0.306502 l -0.08078,-0.08339 -0.08078,0.09105 c -0.06354,0.07147 -0.0768,0.108659 -0.06184,0.173115 0.01281,0.05345 0.0086,0.07511 -0.01141,0.06214 -0.01642,-0.01085 -0.02997,-0.07429 -0.02997,-0.140799 0,-0.114941 0.01141,-0.129529 0.222468,-0.29735 0.122374,-0.09707 0.266237,-0.217379 0.319719,-0.267364 0.07476,-0.06997 0.114526,-0.08635 0.1722,-0.07118 0.04131,0.01085 0.139609,0.03395 0.218563,0.05139 0.182969,0.04045 0.327462,0.147668 0.468994,0.348428 0.149338,0.212007 0.164753,0.247081 0.282842,0.64959 0.05566,0.190346 0.137128,0.422785 0.180769,0.516504 0.04384,0.09375 0.112103,0.267952 0.152341,0.387263 0.04023,0.119257 0.111302,0.307482 0.158346,0.418229 0.04704,0.110745 0.133324,0.368658 0.192178,0.573148 0.207171,0.720557 0.609586,1.798638 0.922214,2.470619 0.146135,0.314338 0.366182,1.040561 0.455082,1.502782 0.06706,0.348969 0.07367,0.42443 0.04344,0.502576 -0.04724,0.123426 -0.466113,0.551499 -0.598115,0.611394 -0.146536,0.06657 -0.78675,0.08313 -1.052757,0.0273 z"
       id="path844" />
    <path
       id="path846"
       style="display:inline;fill:#ffdf00;fill-opacity:0;stroke:#000000;stroke-width:0.0298218;stroke-opacity:1"
       d="m 71.52698,86.665636 -0.606253,0.495584 c -0.33344,0.272559 -0.618974,0.495611 -0.63452,0.495611 -0.124115,0 0.146016,-0.327451 0.584182,-0.70815 0.123695,-0.107457 0.220551,-0.199239 0.215278,-0.203936 -0.0056,-0.0047 -0.100033,0.0028 -0.210545,0.01644 -0.110523,0.0135 -0.32531,0.02583 -0.477309,0.02671 -0.210484,0.0012 -0.284961,0.01262 -0.312462,0.04849 -0.0855,0.111183 -0.120271,0.404885 -0.132023,1.11487 l -0.01161,0.712547 0.06576,-0.268187 c 0.04098,-0.167069 0.102996,-0.327074 0.164532,-0.42443 0.09215,-0.145701 0.211203,-0.251515 0.243649,-0.216557 0.0078,0.0085 -0.05019,0.167891 -0.128639,0.354516 -0.217047,0.516002 -0.232476,0.669159 -0.110404,1.096763 0.199106,0.697264 0.569039,1.088492 1.157977,1.224497 0.323542,0.0747 0.902537,0.09093 1.529036,0.04277 0.311612,-0.02405 0.807812,-0.04371 1.102697,-0.04371 0.500525,0 0.541563,0.0044 0.617152,0.06528 0.09409,0.07575 0.134325,0.187468 0.181969,0.502789 0.04124,0.274407 0.07287,0.31777 0.559039,0.769505 0.387279,0.35987 0.392704,0.361843 0.755281,0.272532 0.305503,-0.07529 0.306844,-0.08002 0.08448,-0.296205 L 75.97047,91.554838 V 91.094086 90.63343 l -0.222486,-0.07517 c -0.122313,-0.04136 -0.40978,-0.119286 -0.638712,-0.173293 -0.560721,-0.132171 -0.73498,-0.224685 -0.903573,-0.47966 -0.175942,-0.266132 -0.295714,-0.553483 -0.349676,-0.839011 -0.04416,-0.234225 -0.03775,-0.352116 0.03475,-0.62329 0.01501,-0.05624 -0.01441,-0.084 -0.202726,-0.195981 -0.121092,-0.07177 -0.226392,-0.123777 -0.233941,-0.115646 -0.0072,0.0079 -2.42e-4,0.09346 0.01622,0.189641 0.04886,0.284271 0.07321,0.903172 0.03675,0.927494 -0.07649,0.05093 -0.166774,-0.266927 -0.25006,-0.879404 -0.07264,-0.534191 -0.05413,-0.507165 -0.214737,-0.314905 -0.198184,0.237367 -0.326599,0.508823 -0.305882,0.646597 0.03596,0.23948 0.305159,0.748918 0.612621,1.159632 0.224265,0.299586 0.210635,0.319795 -0.199666,0.295924 -0.585438,-0.03431 -1.106651,-0.226654 -1.352554,-0.49976 -0.184632,-0.205047 -0.251917,-0.41536 -0.268933,-0.840847 -0.01622,-0.403661 0.02186,-0.583719 0.180967,-0.857147 l 0.103656,-0.178136 0.492966,-0.0019 c 0.555803,-0.0019 0.677526,-0.02906 0.720174,-0.16026 0.01501,-0.04653 0.02038,-0.09205 0.01201,-0.101264 -0.0084,-0.0094 -0.09809,0.01233 -0.199104,0.04793 -0.261804,0.0921 -0.67695,0.11544 -0.842074,0.0474 -0.11843,-0.04881 -0.331951,-0.258999 -0.331951,-0.326696 0,-0.01644 0.02486,-0.04418 0.05557,-0.06194 0.0657,-0.03807 0.51546,-0.09266 0.768001,-0.0934 0.09779,-2.81e-4 0.184771,-0.01321 0.193459,-0.02817 0.01922,-0.03337 -0.125857,-0.156005 -0.294785,-0.248844 -0.124457,-0.06841 -0.392386,-0.133402 -0.697807,-0.169152 z" />
    <path
       style="display:inline;fill:#ffdf00;fill-opacity:0.74902;stroke:#000000;stroke-width:0.0184242;stroke-opacity:1"
       d="m 76.004317,90.403056 c -0.09269,-0.01 -0.315173,-0.0568 -0.494479,-0.105019 -0.179366,-0.04819 -0.413863,-0.104728 -0.521304,-0.125596 -0.462048,-0.08979 -0.640811,-0.21829 -0.815928,-0.586577 -0.208267,-0.438008 -0.249101,-0.768143 -0.12962,-1.04813 0.05585,-0.130997 0.190256,-0.318381 0.271449,-0.378526 0.06438,-0.04769 0.07451,-0.04928 0.245142,-0.039 0.155744,0.01 0.186573,0.0061 0.24745,-0.02759 0.06866,-0.03807 0.07066,-0.03807 0.166754,-0.0026 0.05345,0.01966 0.153542,0.04088 0.222466,0.04653 0.240384,0.01966 0.23664,0.01819 0.264786,0.120577 0.02642,0.0958 0.09829,0.254773 0.142933,0.316032 0.03223,0.04418 0.08107,0.02818 0.08107,-0.02641 0,-0.02172 -0.02002,-0.101205 -0.04444,-0.176961 -0.02462,-0.07572 -0.05665,-0.237103 -0.07087,-0.358511 -0.03483,-0.28926 -0.04264,-0.326085 -0.06987,-0.326085 -0.01201,0 -0.03243,0.03995 -0.04384,0.08899 -0.01201,0.04897 -0.02662,0.08125 -0.03404,0.0718 -0.008,-0.0094 -0.05905,-0.08318 -0.114906,-0.163812 -0.05605,-0.08063 -0.129521,-0.169477 -0.163553,-0.197449 -0.06766,-0.05577 -0.147536,-0.210598 -0.192178,-0.372417 -0.03183,-0.116115 -0.03784,-0.230998 -0.01201,-0.230998 0.02602,0 0.264226,0.328575 0.39899,0.550277 0.06566,0.107868 0.126117,0.196216 0.134725,0.196216 0.05025,0 0.06106,-0.09495 0.06006,-0.526359 -0.0014,-0.676306 -0.04864,-1.027639 -0.20531,-1.531226 -0.04925,-0.157913 -0.120312,-0.413952 -0.157946,-0.569038 -0.03784,-0.155065 -0.08628,-0.325522 -0.1075,-0.37876 -0.05685,-0.142796 -0.162351,-0.233669 -0.339756,-0.29287 -0.475256,-0.158588 -0.570799,-0.194955 -0.732967,-0.2789 -0.325985,-0.168861 -0.486129,-0.296344 -0.486129,-0.387123 0,-0.05879 0.04044,-0.112357 0.08548,-0.113238 0.08036,-0.0015 0.286937,-0.03854 0.327778,-0.05858 0.05983,-0.02959 0.09545,-0.112946 0.110703,-0.260261 0.01982,-0.189789 -4.49e-4,-0.283743 -0.08476,-0.381784 -0.03975,-0.04661 -0.07735,-0.0823 -0.08349,-0.07931 -0.0056,0.0032 -0.04573,0.0462 -0.08804,0.09604 l -0.0768,0.09064 0.02847,0.07684 c 0.02516,0.06792 0.02547,0.07684 0.0014,0.07684 -0.03505,0 -0.06137,-0.07732 -0.06137,-0.179308 0,-0.09413 0.03561,-0.137308 0.239426,-0.289995 0.06824,-0.05116 0.190537,-0.15166 0.271625,-0.223367 0.08107,-0.0717 0.159308,-0.13035 0.173882,-0.13035 0.01501,0 0.04942,0.01291 0.07761,0.02847 0.02817,0.01586 0.109122,0.03751 0.180068,0.04834 0.163151,0.02494 0.242525,0.07516 0.394546,0.249078 0.163952,0.187645 0.233657,0.312393 0.296394,0.530963 0.02943,0.102349 0.07306,0.25442 0.09749,0.337885 0.02403,0.08351 0.08708,0.251426 0.140131,0.373262 0.05305,0.12178 0.124715,0.30762 0.159948,0.412869 0.03523,0.105256 0.102495,0.281835 0.149738,0.392388 0.04744,0.110568 0.131122,0.356016 0.186173,0.545501 0.25916,0.892904 0.469035,1.460701 0.888204,2.403036 0.127318,0.28615 0.200186,0.484291 0.309266,0.842173 0.07847,0.257385 0.151341,0.532218 0.161751,0.610699 0.01201,0.07846 0.03804,0.22287 0.06166,0.320825 0.07647,0.317349 0.06386,0.353481 -0.230674,0.662541 -0.2154,0.226039 -0.33303,0.30917 -0.474901,0.335391 -0.163151,0.03006 -0.547188,0.04088 -0.741387,0.02114 z"
       id="path1673" />
    <path
       style="display:inline;fill:#ffdf00;fill-opacity:0.74902;stroke:#000000;stroke-width:0.0184242;stroke-opacity:1"
       d="m 76.004317,90.403056 c -0.09269,-0.01 -0.315173,-0.0568 -0.494479,-0.105019 -0.179366,-0.04819 -0.413863,-0.104728 -0.521304,-0.125596 -0.462048,-0.08979 -0.640811,-0.21829 -0.815928,-0.586577 -0.208267,-0.438008 -0.249101,-0.768143 -0.12962,-1.04813 0.05585,-0.130997 0.190256,-0.318381 0.271449,-0.378526 0.06438,-0.04769 0.07451,-0.04928 0.245142,-0.039 0.155744,0.01 0.186573,0.0061 0.24745,-0.02759 0.06866,-0.03807 0.07066,-0.03807 0.166754,-0.0026 0.05345,0.01966 0.153542,0.04088 0.222466,0.04653 0.240384,0.01966 0.23664,0.01819 0.264786,0.120577 0.02642,0.0958 0.09829,0.254773 0.142933,0.316032 0.03223,0.04418 0.08107,0.02818 0.08107,-0.02641 0,-0.02172 -0.02002,-0.101205 -0.04444,-0.176961 -0.02462,-0.07572 -0.05665,-0.237103 -0.07087,-0.358511 -0.03483,-0.28926 -0.04264,-0.326085 -0.06987,-0.326085 -0.01201,0 -0.03243,0.03995 -0.04384,0.08899 -0.01201,0.04897 -0.02662,0.08125 -0.03404,0.0718 -0.008,-0.0094 -0.05905,-0.08318 -0.114906,-0.163812 -0.05605,-0.08063 -0.129521,-0.169477 -0.163553,-0.197449 -0.06766,-0.05577 -0.147536,-0.210598 -0.192178,-0.372417 -0.03183,-0.116115 -0.03784,-0.230998 -0.01201,-0.230998 0.02602,0 0.264226,0.328575 0.39899,0.550277 0.06566,0.107868 0.126117,0.196216 0.134725,0.196216 0.05025,0 0.06106,-0.09495 0.06006,-0.526359 -0.0014,-0.676306 -0.04864,-1.027639 -0.20531,-1.531226 -0.04925,-0.157913 -0.120312,-0.413952 -0.157946,-0.569038 -0.03784,-0.155065 -0.08628,-0.325522 -0.1075,-0.37876 -0.05685,-0.142796 -0.162351,-0.233669 -0.339756,-0.29287 -0.475256,-0.158588 -0.570799,-0.194955 -0.732967,-0.2789 -0.325985,-0.168861 -0.486129,-0.296344 -0.486129,-0.387123 0,-0.05879 0.04044,-0.112357 0.08548,-0.113238 0.08036,-0.0015 0.286937,-0.03854 0.327778,-0.05858 0.05983,-0.02959 0.09545,-0.112946 0.110703,-0.260261 0.01982,-0.189789 -4.49e-4,-0.283743 -0.08476,-0.381784 -0.03975,-0.04661 -0.07735,-0.0823 -0.08349,-0.07931 -0.0056,0.0032 -0.04573,0.0462 -0.08804,0.09604 l -0.0768,0.09064 0.02847,0.07684 c 0.02516,0.06792 0.02547,0.07684 0.0014,0.07684 -0.03505,0 -0.06137,-0.07732 -0.06137,-0.179308 0,-0.09413 0.03561,-0.137308 0.239426,-0.289995 0.06824,-0.05116 0.190537,-0.15166 0.271625,-0.223367 0.08107,-0.0717 0.159308,-0.13035 0.173882,-0.13035 0.01501,0 0.04942,0.01291 0.07761,0.02847 0.02817,0.01586 0.109122,0.03751 0.180068,0.04834 0.163151,0.02494 0.242525,0.07516 0.394546,0.249078 0.163952,0.187645 0.233657,0.312393 0.296394,0.530963 0.02943,0.102349 0.07306,0.25442 0.09749,0.337885 0.02403,0.08351 0.08708,0.251426 0.140131,0.373262 0.05305,0.12178 0.124715,0.30762 0.159948,0.412869 0.03523,0.105256 0.102495,0.281835 0.149738,0.392388 0.04744,0.110568 0.131122,0.356016 0.186173,0.545501 0.25916,0.892904 0.469035,1.460701 0.888204,2.403036 0.127318,0.28615 0.200186,0.484291 0.309266,0.842173 0.07847,0.257385 0.151341,0.532218 0.161751,0.610699 0.01201,0.07846 0.03804,0.22287 0.06166,0.320825 0.07647,0.317349 0.06386,0.353481 -0.230674,0.662541 -0.2154,0.226039 -0.33303,0.30917 -0.474901,0.335391 -0.163151,0.03006 -0.547188,0.04088 -0.741387,0.02114 z"
       id="path1675" />
    <path
       style="display:inline;fill:#ffdf00;fill-opacity:0.74902;stroke:#000000;stroke-width:0.0184242;stroke-opacity:1"
       d="m 76.004317,90.403056 c -0.09269,-0.01 -0.315173,-0.0568 -0.494479,-0.105019 -0.179366,-0.04819 -0.413863,-0.104728 -0.521304,-0.125596 -0.462048,-0.08979 -0.640811,-0.21829 -0.815928,-0.586577 -0.208267,-0.438008 -0.249101,-0.768143 -0.12962,-1.04813 0.05585,-0.130997 0.190256,-0.318381 0.271449,-0.378526 0.06438,-0.04769 0.07451,-0.04928 0.245142,-0.039 0.155744,0.01 0.186573,0.0061 0.24745,-0.02759 0.06866,-0.03807 0.07066,-0.03807 0.166754,-0.0026 0.05345,0.01966 0.153542,0.04088 0.222466,0.04653 0.240384,0.01966 0.23664,0.01819 0.264786,0.120577 0.02642,0.0958 0.09829,0.254773 0.142933,0.316032 0.03223,0.04418 0.08107,0.02818 0.08107,-0.02641 0,-0.02172 -0.02002,-0.101205 -0.04444,-0.176961 -0.02462,-0.07572 -0.05665,-0.237103 -0.07087,-0.358511 -0.03483,-0.28926 -0.04264,-0.326085 -0.06987,-0.326085 -0.01201,0 -0.03243,0.03995 -0.04384,0.08899 -0.01201,0.04897 -0.02662,0.08125 -0.03404,0.0718 -0.008,-0.0094 -0.05905,-0.08318 -0.114906,-0.163812 -0.05605,-0.08063 -0.129521,-0.169477 -0.163553,-0.197449 -0.06766,-0.05577 -0.147536,-0.210598 -0.192178,-0.372417 -0.03183,-0.116115 -0.03784,-0.230998 -0.01201,-0.230998 0.02602,0 0.264226,0.328575 0.39899,0.550277 0.06566,0.107868 0.126117,0.196216 0.134725,0.196216 0.05025,0 0.06106,-0.09495 0.06006,-0.526359 -0.0014,-0.676306 -0.04864,-1.027639 -0.20531,-1.531226 -0.04925,-0.157913 -0.120312,-0.413952 -0.157946,-0.569038 -0.03784,-0.155065 -0.08628,-0.325522 -0.1075,-0.37876 -0.05685,-0.142796 -0.162351,-0.233669 -0.339756,-0.29287 -0.475256,-0.158588 -0.570799,-0.194955 -0.732967,-0.2789 -0.325985,-0.168861 -0.486129,-0.296344 -0.486129,-0.387123 0,-0.05879 0.04044,-0.112357 0.08548,-0.113238 0.08036,-0.0015 0.286937,-0.03854 0.327778,-0.05858 0.05983,-0.02959 0.09545,-0.112946 0.110703,-0.260261 0.01982,-0.189789 -4.49e-4,-0.283743 -0.08476,-0.381784 -0.03975,-0.04661 -0.07735,-0.0823 -0.08349,-0.07931 -0.0056,0.0032 -0.04573,0.0462 -0.08804,0.09604 l -0.0768,0.09064 0.02847,0.07684 c 0.02516,0.06792 0.02547,0.07684 0.0014,0.07684 -0.03505,0 -0.06137,-0.07732 -0.06137,-0.179308 0,-0.09413 0.03561,-0.137308 0.239426,-0.289995 0.06824,-0.05116 0.190537,-0.15166 0.271625,-0.223367 0.08107,-0.0717 0.159308,-0.13035 0.173882,-0.13035 0.01501,0 0.04942,0.01291 0.07761,0.02847 0.02817,0.01586 0.109122,0.03751 0.180068,0.04834 0.163151,0.02494 0.242525,0.07516 0.394546,0.249078 0.163952,0.187645 0.233657,0.312393 0.296394,0.530963 0.02943,0.102349 0.07306,0.25442 0.09749,0.337885 0.02403,0.08351 0.08708,0.251426 0.140131,0.373262 0.05305,0.12178 0.124715,0.30762 0.159948,0.412869 0.03523,0.105256 0.102495,0.281835 0.149738,0.392388 0.04744,0.110568 0.131122,0.356016 0.186173,0.545501 0.25916,0.892904 0.469035,1.460701 0.888204,2.403036 0.127318,0.28615 0.200186,0.484291 0.309266,0.842173 0.07847,0.257385 0.151341,0.532218 0.161751,0.610699 0.01201,0.07846 0.03804,0.22287 0.06166,0.320825 0.07647,0.317349 0.06386,0.353481 -0.230674,0.662541 -0.2154,0.226039 -0.33303,0.30917 -0.474901,0.335391 -0.163151,0.03006 -0.547188,0.04088 -0.741387,0.02114 z"
       id="path1677" />
    <path
       style="display:inline;fill:#ffdf00;fill-opacity:0.74902;stroke:#000000;stroke-width:0.0184242;stroke-opacity:1"
       d="m 76.004317,90.403056 c -0.09269,-0.01 -0.315173,-0.0568 -0.494479,-0.105019 -0.179366,-0.04819 -0.413863,-0.104728 -0.521304,-0.125596 -0.462048,-0.08979 -0.640811,-0.21829 -0.815928,-0.586577 -0.208267,-0.438008 -0.249101,-0.768143 -0.12962,-1.04813 0.05585,-0.130997 0.190256,-0.318381 0.271449,-0.378526 0.06438,-0.04769 0.07451,-0.04928 0.245142,-0.039 0.155744,0.01 0.186573,0.0061 0.24745,-0.02759 0.06866,-0.03807 0.07066,-0.03807 0.166754,-0.0026 0.05345,0.01966 0.153542,0.04088 0.222466,0.04653 0.240384,0.01966 0.23664,0.01819 0.264786,0.120577 0.02642,0.0958 0.09829,0.254773 0.142933,0.316032 0.03223,0.04418 0.08107,0.02818 0.08107,-0.02641 0,-0.02172 -0.02002,-0.101205 -0.04444,-0.176961 -0.02462,-0.07572 -0.05665,-0.237103 -0.07087,-0.358511 -0.03483,-0.28926 -0.04264,-0.326085 -0.06987,-0.326085 -0.01201,0 -0.03243,0.03995 -0.04384,0.08899 -0.01201,0.04897 -0.02662,0.08125 -0.03404,0.0718 -0.008,-0.0094 -0.05905,-0.08318 -0.114906,-0.163812 -0.05605,-0.08063 -0.129521,-0.169477 -0.163553,-0.197449 -0.06766,-0.05577 -0.147536,-0.210598 -0.192178,-0.372417 -0.03183,-0.116115 -0.03784,-0.230998 -0.01201,-0.230998 0.02602,0 0.264226,0.328575 0.39899,0.550277 0.06566,0.107868 0.126117,0.196216 0.134725,0.196216 0.05025,0 0.06106,-0.09495 0.06006,-0.526359 -0.0014,-0.676306 -0.04864,-1.027639 -0.20531,-1.531226 -0.04925,-0.157913 -0.120312,-0.413952 -0.157946,-0.569038 -0.03784,-0.155065 -0.08628,-0.325522 -0.1075,-0.37876 -0.05685,-0.142796 -0.162351,-0.233669 -0.339756,-0.29287 -0.475256,-0.158588 -0.570799,-0.194955 -0.732967,-0.2789 -0.325985,-0.168861 -0.486129,-0.296344 -0.486129,-0.387123 0,-0.05879 0.04044,-0.112357 0.08548,-0.113238 0.08036,-0.0015 0.286937,-0.03854 0.327778,-0.05858 0.05983,-0.02959 0.09545,-0.112946 0.110703,-0.260261 0.01982,-0.189789 -4.49e-4,-0.283743 -0.08476,-0.381784 -0.03975,-0.04661 -0.07735,-0.0823 -0.08349,-0.07931 -0.0056,0.0032 -0.04573,0.0462 -0.08804,0.09604 l -0.0768,0.09064 0.02847,0.07684 c 0.02516,0.06792 0.02547,0.07684 0.0014,0.07684 -0.03505,0 -0.06137,-0.07732 -0.06137,-0.179308 0,-0.09413 0.03561,-0.137308 0.239426,-0.289995 0.06824,-0.05116 0.190537,-0.15166 0.271625,-0.223367 0.08107,-0.0717 0.159308,-0.13035 0.173882,-0.13035 0.01501,0 0.04942,0.01291 0.07761,0.02847 0.02817,0.01586 0.109122,0.03751 0.180068,0.04834 0.163151,0.02494 0.242525,0.07516 0.394546,0.249078 0.163952,0.187645 0.233657,0.312393 0.296394,0.530963 0.02943,0.102349 0.07306,0.25442 0.09749,0.337885 0.02403,0.08351 0.08708,0.251426 0.140131,0.373262 0.05305,0.12178 0.124715,0.30762 0.159948,0.412869 0.03523,0.105256 0.102495,0.281835 0.149738,0.392388 0.04744,0.110568 0.131122,0.356016 0.186173,0.545501 0.25916,0.892904 0.469035,1.460701 0.888204,2.403036 0.127318,0.28615 0.200186,0.484291 0.309266,0.842173 0.07847,0.257385 0.151341,0.532218 0.161751,0.610699 0.01201,0.07846 0.03804,0.22287 0.06166,0.320825 0.07647,0.317349 0.06386,0.353481 -0.230674,0.662541 -0.2154,0.226039 -0.33303,0.30917 -0.474901,0.335391 -0.163151,0.03006 -0.547188,0.04088 -0.741387,0.02114 z"
       id="path1679" />
  </g>
</svg>
