<?xml version="1.0" encoding="UTF-8" standalone="no"?>
<svg
   xmlns:dc="http://purl.org/dc/elements/1.1/"
   xmlns:cc="http://creativecommons.org/ns#"
   xmlns:rdf="http://www.w3.org/1999/02/22-rdf-syntax-ns#"
   xmlns:svg="http://www.w3.org/2000/svg"
   xmlns="http://www.w3.org/2000/svg"
   xmlns:sodipodi="http://sodipodi.sourceforge.net/DTD/sodipodi-0.dtd"
   xmlns:inkscape="http://www.inkscape.org/namespaces/inkscape"
   width="10.992052mm"
   height="14.22424mm"
   viewBox="0 0 10.992052 14.22424"
   version="1.1"
   id="svg784"
   inkscape:version="1.0.1 (c497b03c, 2020-09-10)"
   sodipodi:docname="bras.svg">
  <defs
     id="defs778" />
  <sodipodi:namedview
     id="base"
     pagecolor="#ffffff"
     bordercolor="#666666"
     borderopacity="1.0"
     inkscape:pageopacity="0.0"
     inkscape:pageshadow="2"
     inkscape:zoom="1.8803892"
     inkscape:cx="-63.682696"
     inkscape:cy="101.47544"
     inkscape:document-units="mm"
     inkscape:current-layer="layer1"
     inkscape:document-rotation="0"
     showgrid="false"
     inkscape:window-width="1280"
     inkscape:window-height="755"
     inkscape:window-x="0"
     inkscape:window-y="23"
     inkscape:window-maximized="1"
     fit-margin-top="1"
     fit-margin-left="0"
     fit-margin-right="0"
     fit-margin-bottom="0" />
  <metadata
     id="metadata781">
    <rdf:RDF>
      <cc:Work
         rdf:about="">
        <dc:format>image/svg+xml</dc:format>
        <dc:type
           rdf:resource="http://purl.org/dc/dcmitype/StillImage" />
        <dc:title></dc:title>
      </cc:Work>
    </rdf:RDF>
  </metadata>
  <g
     inkscape:label="Calque 1"
     inkscape:groupmode="layer"
     id="layer1"
     transform="translate(-97.731197,-8.7849589)">
    <path
       style="display:inline;fill:#ffdf00;fill-opacity:0.74902;stroke:#000000;stroke-width:0.0484815;stroke-opacity:1"
       d="m 102.10692,20.244989 c -0.012,-0.01185 -0.18669,-0.05582 -0.38852,-0.09761 -0.44218,-0.09156 -1.03408,-0.370305 -1.21361,-0.571504 -0.20418,-0.228843 -0.32933,-0.666976 -0.32879,-1.151159 3.6e-4,-0.372272 0.0153,-0.440484 0.1433,-0.658038 0.0786,-0.133479 0.18476,-0.295556 0.23593,-0.360142 l 0.0931,-0.117433 0.50204,0.0671 c 0.2761,0.0369 0.6097,0.06233 0.7413,0.05652 l 0.23925,-0.01063 -0.12503,0.133711 c -0.0688,0.07354 -0.19386,0.257602 -0.27807,0.409022 l -0.15306,0.275305 0.0696,0.355752 c 0.0775,0.39651 0.2466,0.809279 0.34743,0.848069 0.0363,0.01398 0.16842,0.177066 0.29361,0.362428 0.12518,0.185382 0.24642,0.348689 0.2694,0.362932 0.10584,0.06559 0.0211,0.117242 -0.19224,0.117242 -0.12877,0 -0.24373,-0.0097 -0.25559,-0.0217 z m -0.60428,-2.138525 c 0.0607,-0.09294 0.0643,-0.12137 0.0153,-0.12137 -0.0819,0 -0.18028,0.09798 -0.18028,0.179599 0,0.101073 0.0792,0.07311 0.16502,-0.05823 z"
       id="path104" />
    <path
       style="fill:#ffdf00;fill-opacity:0.74902;stroke:#000000;stroke-width:0.0484815;stroke-opacity:1"
       d="m 101.28013,16.932546 c 0.0351,-0.01397 0.0768,-0.01226 0.0928,0.0037 0.016,0.01616 -0.012,0.0276 -0.0636,0.0255 -0.0564,-0.0025 -0.0679,-0.01374 -0.0292,-0.02934 z"
       id="path106" />
    <path
       style="display:inline;fill:#ffdf00;fill-opacity:0.74902;stroke:#000000;stroke-width:0.0484815;stroke-opacity:1"
       d="m 106.44596,20.757856 c -0.0534,-0.0229 -0.26027,-0.0691 -0.45999,-0.102435 -0.19963,-0.03333 -0.41859,-0.08899 -0.48634,-0.123672 -0.0676,-0.03471 -0.28565,-0.07824 -0.4842,-0.09676 -0.65231,-0.06084 -0.94617,-0.267463 -1.22934,-0.864534 -0.33433,-0.704912 -0.3435,-1.192006 -0.0297,-1.573704 0.0811,-0.09866 0.14752,-0.203847 0.14752,-0.233783 0,-0.02991 0.0826,-0.08692 0.18351,-0.126668 0.15295,-0.06026 0.19345,-0.06149 0.2439,-0.0072 0.12398,0.132907 0.49104,0.04457 0.49393,-0.118836 7.1e-4,-0.07643 0.006,-0.0767 0.048,-0.0034 0.0574,0.09863 0.47487,0.204207 0.70224,0.177597 0.15804,-0.01857 0.16823,-0.01103 0.16823,0.121724 0,0.145466 0.18058,0.518697 0.25114,0.518697 0.0526,0 0.051,-0.181429 -0.003,-0.214259 -0.0886,-0.05496 -0.20954,-0.623631 -0.17763,-0.836379 0.0405,-0.270515 -0.0504,-0.284425 -0.0958,-0.0147 l -0.0333,0.196808 -0.0971,-0.18466 c -0.11753,-0.22349 -0.31448,-0.440393 -0.43467,-0.478629 -0.0486,-0.01543 -0.0883,-0.07108 -0.0883,-0.123631 0,-0.05252 -0.0336,-0.1466 -0.0744,-0.209028 -0.0711,-0.108728 -0.15992,-0.61122 -0.10794,-0.61122 0.0135,0 0.12683,0.125606 0.25141,0.279124 0.12443,0.153518 0.25999,0.32009 0.30117,0.370167 0.0411,0.05006 0.12578,0.191916 0.18809,0.315176 0.14676,0.290256 0.1787,0.213343 0.18487,-0.445367 0.008,-0.927589 -0.14842,-1.835426 -0.39798,-2.303176 -0.0285,-0.05349 -0.0971,-0.31287 -0.15241,-0.576445 -0.0553,-0.263576 -0.12668,-0.531439 -0.15856,-0.595252 -0.072,-0.143394 -0.38426,-0.281596 -0.83201,-0.368027 -0.54467,-0.105146 -1.4298,-0.600905 -1.4298,-0.800836 0,-0.197145 0.039,-0.220527 0.33857,-0.203534 0.39125,0.02218 0.44405,-0.03502 0.45329,-0.491199 0.004,-0.24509 -0.0105,-0.350311 -0.0514,-0.350362 -0.0322,-3.6e-5 -0.0914,-0.04377 -0.13162,-0.09716 -0.0724,-0.09596 -0.0732,-0.09579 -0.0748,0.01199 -7.1e-4,0.07634 -0.0307,0.109219 -0.0984,0.109219 -0.11708,0 -0.12188,0.0374 -0.0196,0.15089 0.10195,0.11302 0.0475,0.207341 -0.0802,0.138789 -0.10359,-0.0556 -0.12743,-0.281933 -0.0456,-0.435018 0.0265,-0.04973 0.14722,-0.139971 0.26818,-0.200519 0.12098,-0.06056 0.32948,-0.217105 0.46337,-0.347865 0.23531,-0.229755 0.24659,-0.2348795 0.33762,-0.1523527 0.0598,0.054422 0.17762,0.087041 0.32463,0.089917 0.21142,0.00417 0.25328,0.026656 0.50788,0.2738667 0.15267,0.148141 0.27738,0.294173 0.27738,0.32452 0,0.03038 0.0405,0.08372 0.09,0.118618 0.0598,0.04213 0.10914,0.17509 0.14752,0.396205 0.0727,0.42012 0.18407,0.755848 0.29181,0.880794 0.10809,0.125416 0.29385,0.587336 0.29385,0.73115 0,0.0613 0.0354,0.146937 0.0789,0.190372 0.0883,0.08858 0.35277,0.73081 0.35535,0.863073 6.7e-4,0.09478 0.27393,0.929579 0.4388,1.346416 0.0582,0.146841 0.13763,0.354361 0.17709,0.461158 0.0391,0.106781 0.10059,0.226936 0.13627,0.266983 0.0357,0.04006 0.0808,0.138333 0.1,0.218453 0.0378,0.157278 0.48505,1.118368 0.57598,1.237844 0.0693,0.0909 0.25141,0.64411 0.29007,0.880978 0.016,0.09741 0.0687,0.22848 0.11724,0.291259 0.058,0.07504 0.0982,0.23535 0.11693,0.467846 0.016,0.194543 0.0628,0.421791 0.10404,0.505017 0.14572,0.292552 0.10434,0.420207 -0.25597,0.79546 -0.45951,0.478483 -0.67099,0.573265 -1.31513,0.589421 -0.27964,0.0069 -0.55199,-0.006 -0.60526,-0.0291 z"
       id="path108" />
    <path
       style="display:inline;fill:#ffdf00;fill-opacity:0.74902;stroke:#000000;stroke-width:0.0484815;stroke-opacity:1"
       d="m 103.24693,17.681244 c -0.45918,-0.366671 -0.69879,-0.5925 -0.69879,-0.658571 0,-0.03878 -0.0342,-0.09554 -0.0759,-0.12611 -0.0417,-0.03057 -0.0836,-0.131272 -0.0932,-0.223803 -0.009,-0.0925 -0.0441,-0.301335 -0.0766,-0.464038 -0.0789,-0.394679 -0.04,-0.531614 0.1732,-0.60888 0.0932,-0.03374 0.16933,-0.07703 0.16933,-0.09616 0,-0.01904 0.10344,-0.07398 0.22997,-0.121873 0.12653,-0.04789 0.28448,-0.11509 0.35105,-0.149348 0.15622,-0.08037 0.90749,-0.07985 1.0521,7.67e-4 0.0594,0.03305 0.19185,0.139778 0.29425,0.237157 0.16529,0.157061 0.18702,0.204473 0.19185,0.420021 0.006,0.21756 0.0633,0.513633 0.14137,0.717736 0.0241,0.06036 -0.003,0.0674 -0.14781,0.0401 -0.13523,-0.02546 -0.17601,-0.01711 -0.17601,0.03593 0,0.04232 0.0949,0.09347 0.24578,0.132212 0.28865,0.07417 0.64332,0.386615 0.68459,0.603086 l 0.0268,0.138067 -0.22189,-0.03333 c -0.36831,-0.05537 -0.58816,-0.249608 -0.77861,-0.687857 -0.18218,-0.419182 -0.29372,-0.796492 -0.2946,-0.996328 -4.7e-4,-0.118032 -0.0747,-0.223804 -0.12309,-0.175355 -0.0357,0.03589 0.15938,0.895467 0.238,1.04784 0.0429,0.08323 0.0781,0.182152 0.0781,0.219803 0,0.03768 0.0499,0.142502 0.11139,0.232987 0.18139,0.268141 0.19131,0.329525 0.0595,0.362734 -0.11349,0.02854 -0.35946,-0.09979 -0.36289,-0.189287 -7e-4,-0.02193 -0.0534,-0.109192 -0.11694,-0.19418 -0.0636,-0.08499 -0.12952,-0.201701 -0.14706,-0.259363 -0.016,-0.05766 -0.0636,-0.131341 -0.10255,-0.163713 -0.039,-0.03239 -0.0709,-0.101904 -0.0709,-0.154506 0,-0.05259 -0.0435,-0.151155 -0.0968,-0.219055 -0.0534,-0.06788 -0.0969,-0.18601 -0.0969,-0.262508 0,-0.07649 -0.0217,-0.139079 -0.0484,-0.139079 -0.0753,0 -0.057,0.244554 0.0364,0.485432 0.0964,0.248694 0.37681,0.757002 0.49103,0.890287 0.0703,0.08206 0.069,0.09492 -0.016,0.15776 -0.14482,0.106304 -0.2925,0.08351 -0.36735,-0.05669 -0.0367,-0.06882 -0.10719,-0.146792 -0.15662,-0.173306 -0.0493,-0.02653 -0.12923,-0.140285 -0.17732,-0.252837 -0.10165,-0.237592 -0.46263,-0.634709 -0.53582,-0.589359 -0.0291,0.01808 0.0207,0.105596 0.11933,0.210017 0.0931,0.09849 0.22674,0.294715 0.29699,0.436048 0.0703,0.141321 0.17762,0.289731 0.23858,0.329772 0.18753,0.123168 0.20958,0.45663 0.0301,0.455572 -0.0438,-1.85e-4 -0.16818,-0.07126 -0.27652,-0.157759 z"
       id="path110" />
    <path
       style="fill:#ffdf00;fill-opacity:0.74902;stroke:#000000;stroke-width:0.0484815;stroke-opacity:1"
       d="m 101.01079,16.980788 c 0.0466,-0.01226 0.12286,-0.01226 0.16947,0 0.0466,0.01226 0.009,0.02218 -0.0847,0.02218 -0.0932,0 -0.13134,-0.0099 -0.0848,-0.02218 z"
       id="path112" />
    <path
       style="fill:#ffdf00;fill-opacity:0.74902;stroke:#000000;stroke-width:0.0484815;stroke-opacity:1"
       d="m 100.82035,16.859982 c -0.0848,-0.02863 -0.21414,-0.114886 -0.28747,-0.191625 l -0.13336,-0.139538 h 0.9383 c 0.83541,0 0.92798,0.0078 0.8443,0.07127 -0.0517,0.03919 -0.12938,0.07198 -0.17278,0.07282 -0.0433,7.69e-4 -0.10359,0.03155 -0.13403,0.06826 -0.0304,0.03666 -0.15832,0.07918 -0.28433,0.09441 -0.12608,0.01519 -0.31628,0.03866 -0.42281,0.05209 -0.10651,0.01348 -0.26302,7.67e-4 -0.3478,-0.02769 z"
       id="path118" />
    <path
       style="display:inline;fill:#ffdf00;fill-opacity:0.74902;stroke:#000000;stroke-width:0.0484815;stroke-opacity:1"
       d="m 101.70078,20.119347 c -0.18642,-0.04949 -0.52372,-0.184032 -0.74957,-0.29901 -0.38727,-0.197146 -0.41888,-0.225298 -0.55586,-0.494965 -0.12742,-0.250852 -0.14749,-0.347074 -0.16365,-0.78456 -0.0172,-0.465948 -0.01,-0.514165 0.11009,-0.735354 0.0707,-0.130183 0.17657,-0.292818 0.23533,-0.361397 l 0.10682,-0.124693 0.66362,0.07357 0.66362,0.07357 -0.0891,0.125824 c -0.049,0.0692 -0.15564,0.239231 -0.23703,0.377842 l -0.14797,0.252023 0.0931,0.390708 c 0.11799,0.4952 0.19228,0.667188 0.37535,0.868956 0.0808,0.08899 0.23727,0.291047 0.34779,0.44902 l 0.20096,0.287223 -0.25728,-0.0044 c -0.14153,-0.0025 -0.40982,-0.04486 -0.59624,-0.09434 z m -0.18846,-1.976476 c 0.0937,-0.123672 0.0817,-0.166557 -0.0415,-0.14901 -0.07,0.0099 -0.11453,0.05454 -0.12443,0.124734 -0.0184,0.130456 0.0751,0.144166 0.16598,0.02427 z"
       id="path1041" />
    <path
       style="display:inline;fill:#ffdf00;fill-opacity:0.74902;stroke:#000000;stroke-width:0.0484815;stroke-opacity:1"
       d="m 106.08281,20.659515 c -0.19963,-0.04708 -0.43943,-0.110295 -0.53263,-0.14055 -0.0931,-0.03025 -0.32198,-0.07781 -0.5084,-0.105718 -0.65765,-0.09844 -0.9412,-0.290075 -1.20214,-0.812367 -0.3463,-0.693306 -0.36161,-1.144007 -0.054,-1.593472 0.19166,-0.280094 0.43719,-0.447024 0.5275,-0.358616 0.0724,0.07104 0.37389,0.05252 0.46316,-0.02847 0.0724,-0.06563 0.0998,-0.06563 0.2565,0 0.0965,0.04042 0.28468,0.07349 0.4182,0.07349 0.22591,0 0.24469,0.0091 0.26968,0.13348 0.0378,0.187817 0.18137,0.463059 0.25329,0.486199 0.0856,0.02747 0.0759,-0.157423 -0.0161,-0.3383 -0.0427,-0.08288 -0.0893,-0.322068 -0.10389,-0.531558 -0.0268,-0.391333 -0.0888,-0.494191 -0.14092,-0.233348 l -0.0295,0.147539 -0.16583,-0.246972 c -0.0913,-0.135823 -0.21706,-0.270318 -0.27947,-0.29885 -0.12443,-0.05691 -0.33547,-0.589315 -0.30762,-0.776756 0.0135,-0.08477 0.066,-0.03962 0.29664,0.251227 0.15482,0.195001 0.32402,0.438531 0.37627,0.54115 0.0523,0.102613 0.11483,0.186588 0.13957,0.186588 0.14092,0 0.11349,-1.354182 -0.0427,-2.117357 -0.0499,-0.24345 -0.13582,-0.545231 -0.19104,-0.670628 -0.0553,-0.125388 -0.15858,-0.471572 -0.22967,-0.769275 -0.1626,-0.681526 -0.22619,-0.753814 -0.79354,-0.9021 -0.53406,-0.139586 -0.9517,-0.313898 -1.31315,-0.548122 -0.25251,-0.163593 -0.28895,-0.206039 -0.27573,-0.321056 0.015,-0.126178 0.0303,-0.133683 0.3288,-0.156795 0.27388,-0.02121 0.3213,-0.03965 0.37454,-0.145636 0.0336,-0.06675 0.0612,-0.23899 0.0618,-0.382776 4.5e-4,-0.217055 -0.0198,-0.280519 -0.12038,-0.373942 l -0.12113,-0.112515 -0.12728,0.127635 c -0.10794,0.108184 -0.11844,0.141852 -0.0693,0.220912 0.0624,0.09998 0.03,0.180008 -0.0421,0.104846 -0.0489,-0.05078 -0.066,-0.139415 -0.0574,-0.298663 0.005,-0.0752 0.0898,-0.16135 0.28414,-0.285346 0.15315,-0.09769 0.36983,-0.261526 0.48153,-0.364083 0.19587,-0.1796938 0.20795,-0.183883 0.33896,-0.1154287 0.0748,0.039077 0.2125,0.071167 0.30639,0.071336 0.20793,3.712e-4 0.45371,0.1900837 0.72789,0.5621857 0.14647,0.198784 0.21384,0.358131 0.29001,0.68526 0.0544,0.234434 0.17227,0.55761 0.26134,0.718168 0.0893,0.160557 0.19748,0.412068 0.24041,0.558906 0.0429,0.146841 0.14137,0.387135 0.21895,0.533973 0.0775,0.146841 0.19907,0.474506 0.27001,0.728143 0.16073,0.573995 0.5211,1.579621 0.70464,1.965985 0.076,0.160194 0.21707,0.476933 0.31321,0.703871 0.0961,0.226937 0.24873,0.548066 0.33877,0.713623 0.0901,0.165545 0.22859,0.515064 0.30767,0.776684 0.0789,0.261625 0.17708,0.563051 0.21786,0.669848 0.0411,0.106808 0.0754,0.263219 0.0765,0.347611 7e-4,0.08439 0.0427,0.283895 0.0921,0.443349 0.0751,0.241876 0.0802,0.312975 0.0306,0.429073 -0.073,0.170921 -0.61637,0.698144 -0.84714,0.821878 -0.24228,0.129938 -1.19105,0.144335 -1.69449,0.02572 z"
       id="path1045" />
    <path
       style="display:inline;fill:#ffdf00;fill-opacity:0.74902;stroke:#000000;stroke-width:0.0484815;stroke-opacity:1"
       d="m 103.02279,17.454717 c -0.22111,-0.184924 -0.44332,-0.406616 -0.49378,-0.492659 -0.0986,-0.168414 -0.22282,-0.736382 -0.22294,-1.020357 -4e-5,-0.162678 0.11214,-0.335194 0.21784,-0.335194 0.0225,0 0.0753,-0.029 0.11724,-0.06443 0.042,-0.03546 0.21405,-0.122813 0.38224,-0.19418 0.25796,-0.109437 0.37649,-0.129747 0.75738,-0.129747 h 0.45157 l 0.23585,0.212548 c 0.23181,0.208884 0.23691,0.219562 0.29181,0.618923 0.0309,0.223516 0.0711,0.444601 0.0893,0.491322 0.0274,0.06985 0.006,0.08494 -0.11694,0.08494 -0.24737,0 -0.17547,0.13081 0.12803,0.233109 0.21411,0.07224 0.48735,0.288118 0.57191,0.452031 0.0925,0.179453 0.09,0.188637 -0.0529,0.188637 -0.19641,0 -0.42412,-0.117896 -0.58726,-0.304142 -0.17521,-0.200087 -0.43771,-0.847828 -0.50978,-1.257927 -0.0325,-0.185359 -0.073,-0.282559 -0.11693,-0.282559 -0.0856,0 -0.084,0.09225 0.007,0.485429 0.1033,0.445178 0.25142,0.864101 0.38868,1.100855 0.0646,0.111548 0.11753,0.215318 0.11753,0.230577 0,0.05234 -0.22349,0.02782 -0.29986,-0.03292 -0.11753,-0.09353 -0.54745,-0.850251 -0.67525,-1.188585 -0.0628,-0.166485 -0.13073,-0.302999 -0.15066,-0.303392 -0.0198,-3.76e-4 -0.0363,0.08121 -0.0363,0.181333 2e-5,0.192662 0.19753,0.657223 0.4429,1.041927 0.15589,0.244273 0.14947,0.329406 -0.0241,0.329406 -0.12518,0 -0.41694,-0.285775 -0.53835,-0.527388 -0.1051,-0.209172 -0.4534,-0.589097 -0.54002,-0.589097 -0.10014,0 -0.0853,0.03445 0.15143,0.350084 0.11993,0.159833 0.21789,0.308944 0.21789,0.331375 0,0.02242 0.0871,0.14173 0.19366,0.265128 0.21342,0.247185 0.25955,0.461157 0.0994,0.461157 -0.0519,0 -0.27518,-0.1513 -0.4963,-0.33622 z"
       id="path1051" />
    <path
       style="display:inline;fill:#191964;fill-opacity:1;stroke:#000000;stroke-width:0.0484815;stroke-opacity:1"
       d="m 105.86079,22.83712 c -0.0812,-0.08135 -0.32959,-0.294328 -0.5521,-0.473294 -0.22243,-0.178972 -0.44367,-0.380008 -0.49145,-0.44675 -0.0513,-0.07179 -0.10629,-0.280397 -0.13418,-0.510668 -0.0618,-0.507274 -0.0775,-0.54106 -0.28712,-0.615604 -0.23504,-0.08351 -1.44053,-0.07752 -2.23515,0.01103 -0.33289,0.03715 -0.89941,0.06681 -1.25893,0.06594 -1.485283,-0.0037 -2.277474,-0.412409 -2.662384,-1.374201 -0.335133,-0.837411 -0.33179,-1.12174 0.02147,-1.825074 0.120953,-0.240821 0.219907,-0.453805 0.219907,-0.473286 0,-0.07963 -0.13494,-0.02707 -0.251728,0.09805 -0.2535,0.271646 -0.365815,0.590511 -0.42314,1.201432 -0.02858,0.304722 -0.03818,0.163593 -0.04457,-0.655331 -0.0061,-0.804451 0.0099,-1.127114 0.07033,-1.407741 0.134716,-0.625174 0.110174,-0.59906 0.526213,-0.559974 0.210892,0.01976 0.5108,0.01035 0.728941,-0.02265 0.203835,-0.03098 0.380279,-0.04661 0.392084,-0.03478 0.01184,0.01185 -0.207349,0.190998 -0.487015,0.398121 -0.505618,0.374462 -0.753222,0.628999 -0.753222,0.774309 0,0.115185 0.05237,0.09441 0.315624,-0.125075 0.132646,-0.110608 0.524472,-0.413438 0.870673,-0.672917 l 0.629467,-0.471779 0.50841,0.05804 c 0.53126,0.06064 0.70392,0.12483 1.05254,0.391241 l 0.20514,0.156795 -0.61674,0.03298 c -0.85029,0.04544 -0.93147,0.06229 -0.93147,0.193409 0,0.123481 0.19225,0.319147 0.4338,0.441518 0.21444,0.108633 0.8149,0.07388 1.23217,-0.07132 0.1573,-0.05475 0.29348,-0.09952 0.30263,-0.09952 0.0588,0 -4.5e-4,0.211319 -0.0823,0.293334 -0.0921,0.09231 -0.15303,0.09868 -0.88365,0.09234 l -0.78478,-0.0068 -0.15769,0.228937 c -0.23571,0.342258 -0.31986,0.688149 -0.2884,1.185604 0.0603,0.954001 0.38418,1.325253 1.42383,1.632241 0.54383,0.160579 1.40067,0.222502 1.44584,0.104492 0.0184,-0.04864 -0.0427,-0.149974 -0.17097,-0.282462 -0.45744,-0.472571 -0.96946,-1.389988 -0.96946,-1.737066 0,-0.13638 0.36806,-0.714164 0.57028,-0.895245 0.0956,-0.08564 0.0995,-0.08564 0.12338,0 0.0135,0.0487 0.0384,0.219562 0.0552,0.379756 0.0824,0.790139 0.24251,1.38347 0.37329,1.38347 0.0681,0 0.0225,-1.051421 -0.0574,-1.325685 -0.0297,-0.101713 -0.0471,-0.205316 -0.0388,-0.230264 0.009,-0.02493 0.14587,0.04185 0.30569,0.148359 0.15978,0.106536 0.31777,0.193748 0.35106,0.193843 0.0784,1.91e-4 0.0765,0.02265 -0.0177,0.205245 -0.13462,0.260972 -0.073,0.854849 0.13493,1.299747 0.21196,0.45358 0.51748,0.843521 0.7567,0.965893 0.1006,0.05144 0.47822,0.150023 0.83922,0.219104 0.66097,0.126492 1.17543,0.271593 1.2586,0.355002 0.0618,0.06171 0.067,0.253727 0.0214,0.752823 l -0.039,0.423931 0.16366,0.15858 c 0.0901,0.08721 0.22887,0.205654 0.30829,0.263165 0.12878,0.09319 0.13658,0.112666 0.072,0.178634 -0.0594,0.06048 -0.64558,0.177959 -0.88812,0.177959 -0.0319,0 -0.12443,-0.06656 -0.20552,-0.147901 z"
       id="path1057" />
    <path
       style="display:inline;fill:#191964;fill-opacity:1;stroke:#000000;stroke-width:0.0484815;stroke-opacity:1"
       d="m 105.83096,22.804156 c -0.11454,-0.102993 -0.38655,-0.336075 -0.60463,-0.517964 -0.4323,-0.360574 -0.47446,-0.435246 -0.55097,-0.975903 -0.0582,-0.411891 -0.13283,-0.497849 -0.48374,-0.557135 -0.29381,-0.04965 -1.36108,-0.02505 -2.04466,0.04717 -0.67644,0.07145 -1.80919,0.05973 -2.241535,-0.02314 -0.750665,-0.143997 -1.273798,-0.504749 -1.56159,-1.076883 -0.192702,-0.383114 -0.347205,-0.901962 -0.347205,-1.16604 0,-0.223853 0.194739,-0.777526 0.381521,-1.084686 0.182371,-0.299926 0.08263,-0.4044 -0.149048,-0.15612 -0.185081,0.198325 -0.288311,0.428752 -0.38601,0.861633 l -0.08766,0.388341 0.02039,-0.995127 c 0.02012,-0.977462 0.08983,-1.49016 0.220336,-1.620992 0.03252,-0.03261 0.276465,-0.05551 0.620112,-0.05823 0.311584,-0.0025 0.629679,-0.02193 0.706887,-0.04348 0.205097,-0.05695 0.1356,0.02362 -0.320986,0.372016 -0.4822,0.367996 -0.763575,0.653227 -0.763575,0.77403 0,0.127459 0.04166,0.11524 0.290515,-0.0852 0.119858,-0.09651 0.513147,-0.399423 0.874009,-0.673124 l 0.656139,-0.497632 0.49846,0.06472 c 0.52426,0.06807 0.79086,0.167956 1.06852,0.400355 l 0.1677,0.140357 -0.6496,0.03602 c -0.90773,0.05033 -1.00492,0.103143 -0.74967,0.407262 0.26888,0.320356 0.89453,0.383596 1.54355,0.156025 0.34165,-0.11979 0.31926,-0.118005 0.31926,-0.02526 0,0.04126 -0.0535,0.128643 -0.11888,0.19418 -0.11619,0.116548 -0.13568,0.119149 -0.89121,0.119149 h -0.77238 l -0.1517,0.229638 c -0.23115,0.349824 -0.31108,0.686489 -0.27937,1.176499 0.0632,0.976861 0.43008,1.372417 1.54178,1.662388 0.45122,0.117706 1.30189,0.153783 1.33498,0.05663 0.0105,-0.02991 -0.10764,-0.199556 -0.26182,-0.376972 -0.32962,-0.379223 -0.70925,-1.015251 -0.82448,-1.381244 l -0.0816,-0.259249 0.14317,-0.265309 c 0.0787,-0.145925 0.23358,-0.367843 0.34412,-0.493162 l 0.20096,-0.227853 0.0268,0.169908 c 0.17514,1.110953 0.2227,1.360712 0.28875,1.51696 0.0424,0.100133 0.10314,0.182032 0.13523,0.182032 0.0672,0 0.0294,-1.000463 -0.0502,-1.333564 -0.0255,-0.106058 -0.0378,-0.201243 -0.0274,-0.21156 0.0105,-0.01035 0.14812,0.06007 0.30629,0.15641 0.15818,0.09635 0.31228,0.175139 0.34244,0.175139 0.0375,0 0.0316,0.05575 -0.0184,0.175837 -0.2081,0.499295 0.0228,1.35575 0.53734,1.991894 0.22028,0.2726 0.46232,0.378761 1.20515,0.528892 0.3462,0.06997 0.77109,0.174487 0.94417,0.232264 l 0.31474,0.105051 v 0.627493 0.627492 l 0.26643,0.218284 c 0.14647,0.120062 0.26616,0.240846 0.26616,0.268414 0,0.06243 -0.29973,0.151131 -0.66339,0.196375 -0.27137,0.03374 -0.27955,0.03114 -0.48419,-0.152916 z"
       id="path1061" />
    <path
       style="display:inline;fill:#ffdf00;fill-opacity:0.74902;stroke:#000000;stroke-width:0.0484815;stroke-opacity:1"
       d="m 105.98597,20.604346 c -0.19963,-0.05062 -0.57787,-0.136356 -0.84029,-0.190565 -0.26242,-0.05421 -0.56745,-0.138597 -0.67787,-0.187577 -0.41623,-0.184586 -0.7997,-0.831105 -0.84294,-1.421145 -0.03,-0.410493 0.0373,-0.610283 0.30766,-0.911733 l 0.21599,-0.240749 0.25705,0.0266 c 0.15428,0.01591 0.29918,0.0041 0.36221,-0.02974 0.0748,-0.04016 0.15723,-0.0424 0.28634,-0.0078 0.0999,0.02673 0.28331,0.06143 0.408,0.07715 0.19801,0.02497 0.23048,0.04546 0.25597,0.161544 0.037,0.168799 0.20284,0.444583 0.26724,0.444583 0.0684,0 0.0601,-0.181983 -0.0187,-0.412608 -0.0364,-0.106808 -0.0815,-0.34282 -0.10029,-0.524501 -0.0346,-0.337007 -0.11109,-0.412677 -0.17709,-0.175765 -0.0187,0.06477 -0.0349,0.09266 -0.0376,0.06197 -0.003,-0.0307 -0.13177,-0.19606 -0.28662,-0.367534 -0.19158,-0.212066 -0.30177,-0.383179 -0.34423,-0.535173 -0.10539,-0.377231 -0.0351,-0.360818 0.27717,0.06474 0.16474,0.224576 0.33172,0.452 0.371,0.5054 0.12263,0.166775 0.17011,-0.0016 0.17064,-0.606785 6.7e-4,-0.714762 -0.0751,-1.330352 -0.22458,-1.820357 -0.0652,-0.213585 -0.18245,-0.617705 -0.2608,-0.898042 -0.25166,-0.901952 -0.23181,-0.881029 -1.10667,-1.163451 -0.75411,-0.243435 -1.28012,-0.542195 -1.30309,-0.740087 -0.015,-0.125102 -0.005,-0.130987 0.2802,-0.163255 0.37034,-0.04201 0.43696,-0.123222 0.43696,-0.532585 0,-0.252916 -0.0177,-0.312872 -0.12053,-0.409795 -0.11919,-0.112202 -0.12174,-0.112447 -0.22359,-0.02049 -0.0567,0.05112 -0.12083,0.136621 -0.14272,0.19001 -0.0391,0.09584 -0.0397,0.09581 -0.0427,-0.0029 -0.005,-0.134882 0.0669,-0.2145 0.4085,-0.458735 0.15978,-0.11419 0.34648,-0.259371 0.41482,-0.3226109 0.10434,-0.096442 0.14736,-0.107662 0.26643,-0.069607 0.0781,0.024969 0.22511,0.059211 0.32646,0.076132 0.38462,0.064128 0.78265,0.5654649 0.98354,1.2388369 0.0676,0.226938 0.19614,0.576451 0.28559,0.776692 0.35698,0.799948 0.56823,1.34806 0.86433,2.243017 0.28757,0.869116 0.79237,2.101187 1.17085,2.857674 0.23236,0.464313 0.49176,1.241463 0.6528,1.955292 0.12698,0.562398 0.13388,0.637301 0.0717,0.75804 -0.11214,0.21715 -0.74066,0.77054 -0.93768,0.825394 -0.29606,0.08244 -1.24505,0.05406 -1.6535,-0.04942 z"
       id="path1063" />
    <path
       style="display:inline;fill:#ffdf00;fill-opacity:0.74902;stroke:#000000;stroke-width:0.0484815;stroke-opacity:1"
       d="m 101.70604,20.095656 c -0.13027,-0.03587 -0.44168,-0.164485 -0.69202,-0.285806 -0.45334,-0.219731 -0.45574,-0.221828 -0.59798,-0.526559 -0.12632,-0.270611 -0.14358,-0.362723 -0.14953,-0.797458 -0.007,-0.485914 -0.005,-0.494855 0.17188,-0.786261 0.0982,-0.162122 0.19949,-0.307707 0.22506,-0.323536 0.0607,-0.03762 1.16987,0.07711 1.22495,0.126709 0.0234,0.02096 -0.0367,0.164702 -0.13312,0.319409 -0.0965,0.154699 -0.17548,0.25313 -0.17548,0.218743 0,-0.118087 -0.21671,-0.0399 -0.23426,0.08448 -0.0135,0.09507 6.9e-4,0.111453 0.0796,0.09084 0.0838,-0.02193 0.1033,0.01226 0.15391,0.270134 0.0955,0.486674 0.22519,0.766127 0.55651,1.199025 0.17313,0.226239 0.31505,0.427725 0.3153,0.447747 6.9e-4,0.05823 -0.48608,0.03374 -0.74474,-0.03749 z"
       id="path1067" />
    <path
       style="display:inline;fill:#ffdf00;fill-opacity:1;stroke:#000000;stroke-width:0.0484815;stroke-opacity:1"
       d="m 105.43483,22.479251 c -0.31647,-0.274313 -0.60367,-0.551247 -0.63825,-0.615412 -0.0346,-0.06416 -0.0771,-0.225876 -0.0941,-0.359379 -0.0958,-0.739898 -0.12743,-0.759955 -1.19358,-0.757937 -0.42563,7.65e-4 -1.04487,0.02703 -1.37613,0.05823 -0.80484,0.07587 -2.133351,0.03473 -2.489688,-0.07706 -0.827743,-0.259718 -1.215133,-0.663791 -1.532214,-1.598196 -0.187576,-0.552755 -0.139303,-0.906553 0.221329,-1.622811 0.08532,-0.16945 0.142451,-0.320796 0.126965,-0.336335 -0.06058,-0.06071 -0.299437,0.181863 -0.424572,0.431123 -0.07241,0.144261 -0.164715,0.415186 -0.20507,0.602074 -0.07258,0.336016 -0.07319,0.328714 -0.05412,-0.655326 0.01932,-0.997006 0.0831,-1.459139 0.225033,-1.630582 0.05181,-0.06259 0.119888,-0.07263 0.333365,-0.04909 0.147548,0.01616 0.452127,0.0082 0.676861,-0.01808 0.224738,-0.02621 0.41719,-0.03903 0.427668,-0.02851 0.01049,0.01063 -0.185053,0.182008 -0.434531,0.381114 -0.488282,0.389715 -0.764903,0.674905 -0.764903,0.788612 0,0.03912 0.01319,0.07113 0.02932,0.07113 0.0161,0 0.206813,-0.138742 0.423679,-0.308315 0.216875,-0.16957 0.612209,-0.472165 0.878523,-0.672426 l 0.484205,-0.364112 0.38736,0.04194 c 0.52913,0.05727 0.82898,0.154892 1.10597,0.360006 0.12892,0.09548 0.2269,0.181092 0.21775,0.190275 -0.009,0.0091 -0.27334,0.03226 -0.58707,0.05134 -0.96191,0.05842 -1.07008,0.1222 -0.73864,0.435592 0.31123,0.294279 0.8079,0.33404 1.49095,0.119368 0.16644,-0.05231 0.30805,-0.09538 0.3147,-0.09575 0.006,-3.75e-4 0.012,0.04148 0.012,0.09294 0,0.05146 -0.0574,0.138839 -0.12758,0.194181 -0.11679,0.0921 -0.192,0.10061 -0.88934,0.10061 h -0.76177 l -0.12455,0.188685 c -0.29122,0.441168 -0.379067,0.911367 -0.27848,1.490463 0.13468,0.775239 0.52305,1.128013 1.52396,1.384213 0.43802,0.112134 1.17999,0.170269 1.28114,0.100419 0.0523,-0.03611 -0.009,-0.138452 -0.28061,-0.476253 -0.36881,-0.457065 -0.8273,-1.29732 -0.82654,-1.514751 4.7e-4,-0.162653 0.21991,-0.548473 0.47359,-0.832969 0.22751,-0.255213 0.18877,-0.330324 0.34169,0.661849 0.10179,0.660427 0.20237,0.988606 0.30288,0.988606 0.0687,0 0.0285,-0.951096 -0.055,-1.304926 -0.0276,-0.116997 -0.0391,-0.223708 -0.0258,-0.237158 0.0135,-0.01349 0.15737,0.05498 0.31988,0.152047 0.16254,0.09707 0.31442,0.176464 0.33752,0.176464 0.0231,0 0.009,0.100923 -0.0342,0.224287 -0.15905,0.467951 0.009,1.172439 0.42191,1.761598 0.30955,0.442434 0.4466,0.51487 1.33444,0.705363 0.42404,0.09099 0.87994,0.206208 1.01309,0.256057 l 0.24201,0.09062 v 0.620722 c 0,0.691272 -0.0327,0.615176 0.41406,0.960673 0.11948,0.09237 0.1524,0.144382 0.11559,0.182684 -0.0577,0.06009 -0.65784,0.197651 -0.84432,0.193554 -0.0816,-0.002 -0.30792,-0.164654 -0.6964,-0.501416 z"
       id="path1075" />
    <path
       style="display:inline;fill:#ffdf00;fill-opacity:0.74902;stroke:#000000;stroke-width:0.0484815;stroke-opacity:1"
       d="m 101.83296,20.118038 c -0.30181,-0.05965 -1.10032,-0.422631 -1.24186,-0.564536 -0.20729,-0.207822 -0.31872,-0.591375 -0.31872,-1.097141 0,-0.430609 0.007,-0.459261 0.18431,-0.762725 0.20821,-0.356163 0.15065,-0.339546 0.93171,-0.26904 0.51057,0.04608 0.53543,0.06906 0.38073,0.351872 -0.10419,0.190613 -0.14902,0.229421 -0.2663,0.231012 -0.10869,0.0016 -0.14452,0.02697 -0.15645,0.111113 -0.012,0.08059 0.009,0.109219 0.0771,0.109219 0.0731,0 0.10539,0.05835 0.15432,0.279117 0.10599,0.478537 0.2337,0.750319 0.55303,1.177165 0.16976,0.226938 0.29917,0.429 0.28752,0.449022 -0.0265,0.0458 -0.31478,0.03837 -0.58533,-0.01519 z"
       id="path1077" />
    <path
       style="display:inline;fill:#ffdf00;fill-opacity:0.74902;stroke:#000000;stroke-width:0.0484815;stroke-opacity:1"
       d="m 106.30069,20.655024 c -0.58409,-0.08272 -1.84908,-0.422856 -2.00645,-0.539508 -0.18567,-0.137707 -0.46353,-0.546662 -0.56402,-0.830468 -0.0405,-0.114259 -0.0863,-0.343231 -0.10194,-0.50885 -0.0247,-0.260539 -0.012,-0.335971 0.0977,-0.559721 0.0694,-0.142237 0.19118,-0.321008 0.27057,-0.397284 0.13463,-0.129366 0.17467,-0.139658 0.5948,-0.153036 0.24765,-0.0079 0.58685,0.0084 0.7536,0.03602 l 0.30324,0.05037 0.13252,0.272147 c 0.073,0.149685 0.1599,0.280273 0.19319,0.290212 0.0743,0.02218 0.0802,-0.173982 0.0105,-0.356703 -0.0273,-0.07166 -0.0714,-0.285602 -0.0982,-0.475425 -0.0531,-0.375947 -0.12683,-0.515431 -0.1752,-0.330846 -0.0276,0.105963 -0.0402,0.09962 -0.24068,-0.122187 -0.26804,-0.29631 -0.43512,-0.575094 -0.47464,-0.792192 l -0.0309,-0.169909 0.17654,0.194182 c 0.0971,0.106781 0.26215,0.31977 0.36694,0.473291 0.10464,0.153517 0.2109,0.27912 0.23612,0.27912 0.0888,0 0.10944,-0.26521 0.0795,-1.014218 -0.0354,-0.876946 -0.0547,-0.986896 -0.34929,-1.995434 -0.38615,-1.322202 -0.34711,-1.267567 -1.07707,-1.506715 -0.89397,-0.292877 -1.51832,-0.655224 -1.44754,-0.840113 0.0159,-0.0416 0.12923,-0.08436 0.2777,-0.104833 0.35469,-0.0489 0.43395,-0.14484 0.43395,-0.525256 0,-0.268016 -0.0159,-0.322038 -0.12578,-0.424749 l -0.12578,-0.117678 -0.14062,0.168076 c -0.085,0.101604 -0.14062,0.13879 -0.14062,0.09403 0,-0.08602 0.13792,-0.218284 0.59814,-0.573644 0.32043,-0.2474276 0.33956,-0.255085 0.55682,-0.2231753 0.63887,0.093823 0.95076,0.4286213 1.26693,1.3599453 0.0724,0.213584 0.27411,0.726934 0.44797,1.140758 0.17387,0.413826 0.43614,1.101924 0.58283,1.5291 0.46231,1.346541 0.59127,1.667581 1.21848,3.033924 0.40488,0.881979 0.80031,2.186402 0.80031,2.639934 0,0.202857 -0.29436,0.551505 -0.705,0.835029 -0.27259,0.188226 -0.27509,0.188853 -0.78895,0.197892 -0.28354,0.005 -0.64623,-0.0094 -0.80604,-0.03208 z"
       id="path1079" />
    <path
       style="fill:#ffdf00;fill-opacity:0.74902;stroke:#000000;stroke-width:0.0484815;stroke-opacity:1"
       d="m 100.73237,16.782662 c -0.0799,-0.05086 -0.17515,-0.128793 -0.2117,-0.173162 -0.0613,-0.07448 -0.0207,-0.08037 0.53262,-0.07643 0.3295,0.0025 0.70612,0.0188 0.83697,0.0364 l 0.23787,0.03213 -0.24734,0.107857 c -0.14842,0.06472 -0.39848,0.119408 -0.62526,0.136741 -0.3206,0.02452 -0.39993,0.01494 -0.52316,-0.06359 z"
       id="path1083" />
    <path
       style="fill:#ffdf00;fill-opacity:0.74902;stroke:#000000;stroke-width:0.0111635;stroke-opacity:1"
       d="m 102.99455,11.274189 c 0,-0.126696 6.9e-4,-0.134134 0.0223,-0.134134 0.015,0 0.0223,-0.0075 0.0223,-0.02242 0,-0.01253 0.007,-0.02242 0.0166,-0.02242 0.009,0 0.0166,0.0099 0.0166,0.02242 0,0.01494 0.007,0.02242 0.0223,0.02242 0.015,0 0.0222,0.0075 0.0222,0.02242 0,0.01494 -0.007,0.02242 -0.0222,0.02242 -0.0198,0 -0.0223,0.0075 -0.0223,0.06706 v 0.06706 h 0.0612 c 0.054,0 0.0613,-0.0029 0.0613,-0.02242 0,-0.01494 0.007,-0.02242 0.0223,-0.02242 0.015,0 0.0223,-0.0075 0.0223,-0.02242 0,-0.02121 0.007,-0.02242 0.13373,-0.02242 h 0.13372 v 0.04472 c 0,0.0323 -0.004,0.04471 -0.0166,0.04471 -0.009,0 -0.0166,0.0099 -0.0166,0.02242 0,0.01808 -0.007,0.02242 -0.039,0.02242 -0.0315,0 -0.039,0.0044 -0.039,0.02242 0,0.02145 -0.008,0.02242 -0.2007,0.02242 h -0.20062 z"
       id="path1295" />
    <path
       style="fill:#ffdf00;fill-opacity:0.74902;stroke:#000000;stroke-width:0.0111635;stroke-opacity:1"
       d="m 103.39594,10.838263 c 0,-0.01494 -0.007,-0.02242 -0.0222,-0.02242 -0.0186,0 -0.0223,-0.0075 -0.0223,-0.04471 0,-0.04366 -6.9e-4,-0.04471 -0.039,-0.04471 -0.0463,0 -0.0519,-0.01711 -0.009,-0.026 0.0169,-0.0034 0.0445,-0.0097 0.0613,-0.01374 0.0262,-0.0065 0.0306,-0.0041 0.0306,0.01615 0,0.01349 0.007,0.02362 0.0166,0.02362 0.0135,0 0.0166,0.01494 0.0166,0.06706 0,0.05216 -0.004,0.06706 -0.0166,0.06706 -0.009,0 -0.0166,-0.0099 -0.0166,-0.02242 z"
       id="path1297" />
    <path
       style="fill:#ffdf00;fill-opacity:0.74902;stroke:#000000;stroke-width:0.0111635;stroke-opacity:1"
       d="m 103.47398,10.838263 c 0,-0.01253 0.008,-0.02242 0.0166,-0.02242 0.009,0 0.0166,0.0099 0.0166,0.02242 0,0.01253 -0.007,0.02242 -0.0166,0.02242 -0.009,0 -0.0166,-0.0099 -0.0166,-0.02242 z"
       id="path1299" />
    <path
       style="fill:#ffdf00;fill-opacity:0.74902;stroke:#000000;stroke-width:0.0111635;stroke-opacity:1"
       d="m 103.47398,10.793553 c 0,-0.01253 0.008,-0.02242 0.0166,-0.02242 0.009,0 0.0166,0.0099 0.0166,0.02242 0,0.01253 -0.007,0.02242 -0.0166,0.02242 -0.009,0 -0.0166,-0.0099 -0.0166,-0.02242 z"
       id="path1303" />
    <path
       style="display:inline;fill:#ffdf00;fill-opacity:0.74902;stroke:#000000;stroke-width:0.0413328;stroke-opacity:1"
       d="m 106.22191,20.669064 c -0.15883,-0.03098 -0.40342,-0.08651 -0.5433,-0.123358 -0.13972,-0.0369 -0.43436,-0.104179 -0.65437,-0.149541 -0.22002,-0.04539 -0.47709,-0.116806 -0.57127,-0.158724 -0.2412,-0.107353 -0.46486,-0.375127 -0.65908,-0.78909 -0.14197,-0.302735 -0.1696,-0.406434 -0.18521,-0.696506 -0.0163,-0.303633 -0.006,-0.364582 0.088,-0.558697 0.0585,-0.119844 0.18037,-0.290368 0.27087,-0.378957 0.16206,-0.158531 0.16904,-0.160967 0.45602,-0.153711 0.16019,0.0041 0.32958,-0.01308 0.37613,-0.03803 0.0615,-0.03305 0.12263,-0.03286 0.22403,7.65e-4 0.0765,0.02534 0.25329,0.05908 0.39241,0.07496 l 0.25301,0.02888 0.0992,0.245118 c 0.0544,0.134815 0.12713,0.27314 0.16125,0.307392 0.10029,0.100706 0.12563,-0.03862 0.0489,-0.271621 -0.036,-0.108974 -0.0856,-0.34681 -0.11049,-0.528551 -0.0241,-0.181744 -0.0544,-0.344997 -0.0652,-0.362795 -0.033,-0.05349 -0.0969,0.0097 -0.0969,0.0956 0,0.04417 -0.0187,0.08031 -0.0414,0.08031 -0.0214,0 -0.0411,-0.01783 -0.0411,-0.03984 0,-0.02193 -0.11289,-0.16099 -0.25114,-0.309004 -0.26321,-0.281941 -0.41026,-0.577832 -0.40822,-0.820695 l 6.6e-4,-0.134065 0.12263,0.14484 c 0.0676,0.07966 0.23529,0.307802 0.37268,0.506969 0.13732,0.19917 0.2667,0.362117 0.28712,0.362117 0.0714,0 0.0941,-0.310725 0.0706,-0.970026 -0.0241,-0.690924 -0.11829,-1.277817 -0.27781,-1.740735 -0.0469,-0.136549 -0.15106,-0.481001 -0.2313,-0.765444 -0.0802,-0.284445 -0.1819,-0.575877 -0.22617,-0.647627 -0.0923,-0.149975 -0.2924,-0.251175 -0.75999,-0.384597 -0.64036,-0.182732 -1.42415,-0.615685 -1.42415,-0.786673 0,-0.108783 0.061,-0.138982 0.34977,-0.173113 0.33476,-0.03958 0.39327,-0.115267 0.39327,-0.508764 0,-0.272654 -0.0105,-0.307556 -0.11588,-0.409438 l -0.11604,-0.111385 -0.11618,0.121629 c -0.0913,0.0955 -0.11034,0.145177 -0.0888,0.231252 0.018,0.07139 0.012,0.100351 -0.0156,0.08301 -0.0235,-0.0147 -0.043,-0.09926 -0.043,-0.188083 0,-0.153541 0.0156,-0.173041 0.31992,-0.397193 0.17596,-0.129652 0.38286,-0.290361 0.45975,-0.3571365 0.10764,-0.093482 0.16475,-0.1153583 0.24765,-0.095092 0.0594,0.014487 0.20071,0.045375 0.31426,0.06866 0.2632,0.054016 0.4709,0.1972725 0.67444,0.4654415 0.21492,0.283182 0.23693,0.330066 0.40671,0.867726 0.0802,0.254286 0.1972,0.56477 0.25999,0.689958 0.0628,0.125197 0.16126,0.357979 0.21895,0.517311 0.0577,0.159324 0.16017,0.410751 0.22778,0.5587 0.0676,0.147948 0.19185,0.492483 0.27651,0.765623 0.29793,0.962544 0.87662,2.402668 1.32619,3.300315 0.21037,0.419889 0.52657,1.390008 0.65445,2.00746 0.0965,0.466143 0.10599,0.566942 0.0628,0.671355 -0.0682,0.164895 -0.67033,0.736703 -0.86011,0.816718 -0.21088,0.0889 -1.13143,0.111071 -1.51396,0.03646 z"
       id="path842" />
    <path
       style="display:inline;fill:#ffdf00;fill-opacity:0.74902;stroke:#000000;stroke-width:0.0413328;stroke-opacity:1"
       d="m 106.22191,20.669064 c -0.15883,-0.03098 -0.40342,-0.08651 -0.5433,-0.123358 -0.13972,-0.0369 -0.43436,-0.104179 -0.65437,-0.149541 -0.22002,-0.04539 -0.47709,-0.116806 -0.57127,-0.158724 -0.2412,-0.107353 -0.46486,-0.375127 -0.65908,-0.78909 -0.14197,-0.302735 -0.1696,-0.406434 -0.18521,-0.696506 -0.0163,-0.303633 -0.006,-0.364582 0.088,-0.558697 0.0585,-0.119844 0.18037,-0.290368 0.27087,-0.378957 0.16206,-0.158531 0.16904,-0.160967 0.45602,-0.153711 0.16019,0.0041 0.32958,-0.01308 0.37613,-0.03803 0.0615,-0.03305 0.12263,-0.03286 0.22403,7.65e-4 0.0765,0.02534 0.25329,0.05908 0.39241,0.07496 l 0.25301,0.02888 0.0992,0.245118 c 0.0544,0.134815 0.12713,0.27314 0.16125,0.307392 0.10029,0.100706 0.12563,-0.03862 0.0489,-0.271621 -0.036,-0.108974 -0.0856,-0.34681 -0.11049,-0.528551 -0.0241,-0.181744 -0.0544,-0.344997 -0.0652,-0.362795 -0.033,-0.05349 -0.0969,0.0097 -0.0969,0.0956 0,0.04417 -0.0187,0.08031 -0.0414,0.08031 -0.0214,0 -0.0411,-0.01783 -0.0411,-0.03984 0,-0.02193 -0.11289,-0.16099 -0.25114,-0.309004 -0.26321,-0.281941 -0.41026,-0.577832 -0.40822,-0.820695 l 6.6e-4,-0.134065 0.12263,0.14484 c 0.0676,0.07966 0.23529,0.307802 0.37268,0.506969 0.13732,0.19917 0.2667,0.362117 0.28712,0.362117 0.0714,0 0.0941,-0.310725 0.0706,-0.970026 -0.0241,-0.690924 -0.11829,-1.277817 -0.27781,-1.740735 -0.0469,-0.136549 -0.15106,-0.481001 -0.2313,-0.765444 -0.0802,-0.284445 -0.1819,-0.575877 -0.22617,-0.647627 -0.0923,-0.149975 -0.2924,-0.251175 -0.75999,-0.384597 -0.64036,-0.182732 -1.42415,-0.615685 -1.42415,-0.786673 0,-0.108783 0.061,-0.138982 0.34977,-0.173113 0.33476,-0.03958 0.39327,-0.115267 0.39327,-0.508764 0,-0.272654 -0.0105,-0.307556 -0.11588,-0.409438 l -0.11604,-0.111385 -0.11618,0.121629 c -0.0913,0.0955 -0.11034,0.145177 -0.0888,0.231252 0.018,0.07139 0.012,0.100351 -0.0156,0.08301 -0.0235,-0.0147 -0.043,-0.09926 -0.043,-0.188083 0,-0.153541 0.0156,-0.173041 0.31992,-0.397193 0.17596,-0.129652 0.38286,-0.290361 0.45975,-0.3571365 0.10764,-0.093482 0.16475,-0.1153583 0.24765,-0.095092 0.0594,0.014487 0.20071,0.045375 0.31426,0.06866 0.2632,0.054016 0.4709,0.1972725 0.67444,0.4654415 0.21492,0.283182 0.23693,0.330066 0.40671,0.867726 0.0802,0.254286 0.1972,0.56477 0.25999,0.689958 0.0628,0.125197 0.16126,0.357979 0.21895,0.517311 0.0577,0.159324 0.16017,0.410751 0.22778,0.5587 0.0676,0.147948 0.19185,0.492483 0.27651,0.765623 0.29793,0.962544 0.87662,2.402668 1.32619,3.300315 0.21037,0.419889 0.52657,1.390008 0.65445,2.00746 0.0965,0.466143 0.10599,0.566942 0.0628,0.671355 -0.0682,0.164895 -0.67033,0.736703 -0.86011,0.816718 -0.21088,0.0889 -1.13143,0.111071 -1.51396,0.03646 z"
       id="path844" />
    <path
       id="path846"
       style="display:inline;fill:#ffdf00;fill-opacity:0;stroke:#000000;stroke-width:0.0413328;stroke-opacity:1"
       d="m 100.05906,15.720026 -0.871816,0.662011 c -0.4795,0.36411 -0.890107,0.662048 -0.912462,0.662048 -0.178506,0 0.209981,-0.437437 0.840072,-0.945965 0.17789,-0.143563 0.317173,-0.266135 0.309586,-0.272403 -0.0081,-0.0063 -0.143845,0.0037 -0.302771,0.02193 -0.158921,0.01832 -0.467805,0.03427 -0.686383,0.03549 -0.302701,0.0016 -0.409803,0.01711 -0.449333,0.06481 -0.122947,0.148504 -0.172953,0.540838 -0.189856,1.489274 l -0.0169,0.951836 0.09455,-0.358246 c 0.05892,-0.223177 0.148103,-0.436925 0.236596,-0.566939 0.132496,-0.194638 0.30373,-0.336013 0.350363,-0.289266 0.01124,0.01103 -0.07215,0.224288 -0.185,0.473598 -0.312142,0.689294 -0.334315,0.893886 -0.158732,1.465087 0.286291,0.93143 0.818295,1.454036 1.665211,1.635716 0.465265,0.09982 1.297885,0.121437 2.198815,0.05714 0.4481,-0.03198 1.16166,-0.05814 1.58573,-0.05814 0.71976,0 0.77877,0.0057 0.88749,0.08721 0.13522,0.101209 0.19318,0.250438 0.2616,0.671634 0.0595,0.366553 0.10495,0.424511 0.80393,1.027928 0.55694,0.480748 0.56472,0.48339 1.08612,0.364057 0.43932,-0.100542 0.44125,-0.106876 0.12158,-0.395682 l -0.27862,-0.251796 v -0.615392 -0.615352 l -0.31995,-0.10042 c -0.17602,-0.05522 -0.58926,-0.159351 -0.91848,-0.231469 -0.80633,-0.176584 -1.05693,-0.300158 -1.29937,-0.64074 -0.25302,-0.355508 -0.42524,-0.739359 -0.50284,-1.120774 -0.0636,-0.312921 -0.0543,-0.4704 0.0499,-0.832609 0.0217,-0.07514 -0.0196,-0.112229 -0.29154,-0.261819 -0.17419,-0.09584 -0.32558,-0.165353 -0.33643,-0.154481 -0.0105,0.0109 -3.4e-4,0.124884 0.0234,0.253326 0.0702,0.379742 0.10524,1.206483 0.0528,1.238969 -0.10989,0.06807 -0.23982,-0.356585 -0.35956,-1.174729 -0.10449,-0.713581 -0.0778,-0.677478 -0.3088,-0.420636 -0.28499,0.317102 -0.46966,0.679699 -0.43987,0.863738 0.0517,0.319912 0.43883,1.000429 0.88098,1.549073 0.32252,0.400179 0.3029,0.427209 -0.28713,0.395287 -0.84188,-0.04555 -1.5914,-0.302815 -1.94502,-0.66759 -0.26552,-0.2739 -0.36228,-0.554884 -0.38674,-1.12323 -0.0233,-0.539249 0.0315,-0.779746 0.26024,-1.144998 l 0.14904,-0.237953 0.7089,-0.0025 c 0.79927,-0.0025 0.97431,-0.03883 1.03564,-0.214139 0.0217,-0.06216 0.0295,-0.123004 0.0174,-0.13525 -0.012,-0.01226 -0.14107,0.01663 -0.28634,0.06402 -0.3765,0.123004 -0.97348,0.154217 -1.21093,0.06333 -0.17032,-0.06522 -0.47736,-0.345938 -0.47736,-0.436431 0,-0.02193 0.0359,-0.05913 0.0799,-0.08272 0.0945,-0.05069 0.74125,-0.123767 1.10441,-0.124802 0.14062,-3.77e-4 0.26573,-0.01735 0.27822,-0.0375 0.0277,-0.04479 -0.18097,-0.208354 -0.42391,-0.332402 -0.17895,-0.09137 -0.56426,-0.178151 -1.00347,-0.22595 z" />
    <path
       style="display:inline;fill:#ffdf00;fill-opacity:0.74902;stroke:#000000;stroke-width:0.0255358;stroke-opacity:1"
       d="m 106.49764,20.712565 c -0.13328,-0.0128 -0.45323,-0.07587 -0.71109,-0.14026 -0.25784,-0.06438 -0.59515,-0.139875 -0.74965,-0.167762 -0.66445,-0.11994 -0.92151,-0.291621 -1.17333,-0.783567 -0.2995,-0.585088 -0.35822,-1.0261 -0.18644,-1.400117 0.0804,-0.175019 0.27362,-0.425322 0.39036,-0.505626 0.0926,-0.06371 0.10704,-0.06583 0.35254,-0.05183 0.22404,0.01281 0.26838,0.0082 0.35586,-0.03681 0.0988,-0.05078 0.10164,-0.05084 0.23987,-0.0034 0.0768,0.02654 0.22081,0.05447 0.31995,0.06209 0.34565,0.0266 0.34028,0.02434 0.38077,0.161086 0.0378,0.127963 0.14138,0.34028 0.20552,0.422174 0.0462,0.0587 0.11664,0.03762 0.11664,-0.03486 0,-0.02885 -0.0289,-0.135195 -0.0639,-0.236387 -0.0352,-0.101182 -0.0813,-0.316693 -0.10195,-0.478919 -0.0499,-0.386356 -0.0612,-0.435585 -0.10059,-0.435585 -0.0187,0 -0.0466,0.05349 -0.0631,0.118849 -0.016,0.06537 -0.0384,0.108511 -0.0489,0.09588 -0.0105,-0.01253 -0.0849,-0.111099 -0.16528,-0.218791 -0.0805,-0.107693 -0.18647,-0.226383 -0.23531,-0.263734 -0.0974,-0.07448 -0.21223,-0.281334 -0.27628,-0.4975 -0.0459,-0.15506 -0.0543,-0.308564 -0.016,-0.308564 0.0373,0 0.37995,0.438932 0.57378,0.73508 0.0944,0.144141 0.18139,0.262076 0.19372,0.262076 0.0721,0 0.0877,-0.126832 0.0862,-0.703123 -0.003,-0.903427 -0.07,-1.372749 -0.29522,-2.045451 -0.0706,-0.210932 -0.17279,-0.552997 -0.22727,-0.760138 -0.0544,-0.207148 -0.12399,-0.434812 -0.15454,-0.505938 -0.0818,-0.190757 -0.23343,-0.312101 -0.48858,-0.391196 -0.68344,-0.211824 -0.82084,-0.260401 -1.05403,-0.372604 -0.46879,-0.225564 -0.69907,-0.395894 -0.69907,-0.517103 0,-0.07853 0.0582,-0.150046 0.12294,-0.151251 0.11558,-0.002 0.41266,-0.05149 0.47137,-0.07828 0.0861,-0.03928 0.13717,-0.150889 0.15921,-0.347676 0.0285,-0.253518 -6.9e-4,-0.379041 -0.12189,-0.509998 -0.0571,-0.06224 -0.11123,-0.109914 -0.12008,-0.105964 -0.009,0.0041 -0.0658,0.06168 -0.12653,0.128276 l -0.11034,0.121097 0.0409,0.10264 c 0.0363,0.09072 0.0364,0.102639 0.003,0.102639 -0.0504,0 -0.0884,-0.103279 -0.0884,-0.239544 0,-0.125742 0.0513,-0.18343 0.3443,-0.38738 0.0982,-0.06834 0.27397,-0.20261 0.39062,-0.298378 0.11663,-0.095768 0.22913,-0.1741219 0.25006,-0.1741219 0.0214,0 0.0711,0.01721 0.11169,0.03825 0.0405,0.021043 0.15695,0.050086 0.25891,0.064577 0.23451,0.03334 0.34878,0.1004099 0.56737,0.3327379 0.23585,0.250675 0.33604,0.417303 0.42624,0.709278 0.0421,0.13674 0.1051,0.339863 0.14003,0.451353 0.0346,0.111508 0.12533,0.335856 0.2015,0.498581 0.0762,0.162725 0.17949,0.410916 0.22994,0.551542 0.0505,0.140623 0.14737,0.376488 0.21545,0.524144 0.0682,0.147659 0.18862,0.475571 0.26778,0.728693 0.37271,1.192768 0.6745,1.951246 1.27729,3.210043 0.18299,0.382225 0.28766,0.646923 0.4447,1.124997 0.11304,0.343843 0.2176,0.710945 0.23262,0.815783 0.0161,0.104846 0.0547,0.297701 0.0888,0.428587 0.11003,0.423903 0.0917,0.472173 -0.33159,0.88504 -0.30968,0.301986 -0.47888,0.412992 -0.6829,0.448028 -0.2345,0.04028 -0.78687,0.05481 -1.06615,0.02806 z"
       id="path1673" />
    <path
       style="display:inline;fill:#ffdf00;fill-opacity:0.74902;stroke:#000000;stroke-width:0.0255358;stroke-opacity:1"
       d="m 106.49764,20.712565 c -0.13328,-0.0128 -0.45323,-0.07587 -0.71109,-0.14026 -0.25784,-0.06438 -0.59515,-0.139875 -0.74965,-0.167762 -0.66445,-0.11994 -0.92151,-0.291621 -1.17333,-0.783567 -0.2995,-0.585088 -0.35822,-1.0261 -0.18644,-1.400117 0.0804,-0.175019 0.27362,-0.425322 0.39036,-0.505626 0.0926,-0.06371 0.10704,-0.06583 0.35254,-0.05183 0.22404,0.01281 0.26838,0.0082 0.35586,-0.03681 0.0988,-0.05078 0.10164,-0.05084 0.23987,-0.0034 0.0768,0.02654 0.22081,0.05447 0.31995,0.06209 0.34565,0.0266 0.34028,0.02434 0.38077,0.161086 0.0378,0.127963 0.14138,0.34028 0.20552,0.422174 0.0462,0.0587 0.11664,0.03762 0.11664,-0.03486 0,-0.02885 -0.0289,-0.135195 -0.0639,-0.236387 -0.0352,-0.101182 -0.0813,-0.316693 -0.10195,-0.478919 -0.0499,-0.386356 -0.0612,-0.435585 -0.10059,-0.435585 -0.0187,0 -0.0466,0.05349 -0.0631,0.118849 -0.016,0.06537 -0.0384,0.108511 -0.0489,0.09588 -0.0105,-0.01253 -0.0849,-0.111099 -0.16528,-0.218791 -0.0805,-0.107693 -0.18647,-0.226383 -0.23531,-0.263734 -0.0974,-0.07448 -0.21223,-0.281334 -0.27628,-0.4975 -0.0459,-0.15506 -0.0543,-0.308564 -0.016,-0.308564 0.0373,0 0.37995,0.438932 0.57378,0.73508 0.0944,0.144141 0.18139,0.262076 0.19372,0.262076 0.0721,0 0.0877,-0.126832 0.0862,-0.703123 -0.003,-0.903427 -0.07,-1.372749 -0.29522,-2.045451 -0.0706,-0.210932 -0.17279,-0.552997 -0.22727,-0.760138 -0.0544,-0.207148 -0.12399,-0.434812 -0.15454,-0.505938 -0.0818,-0.190757 -0.23343,-0.312101 -0.48858,-0.391196 -0.68344,-0.211824 -0.82084,-0.260401 -1.05403,-0.372604 -0.46879,-0.225564 -0.69907,-0.395894 -0.69907,-0.517103 0,-0.07853 0.0582,-0.150046 0.12294,-0.151251 0.11558,-0.002 0.41266,-0.05149 0.47137,-0.07828 0.0861,-0.03928 0.13717,-0.150889 0.15921,-0.347676 0.0285,-0.253518 -6.9e-4,-0.379041 -0.12189,-0.509998 -0.0571,-0.06224 -0.11123,-0.109914 -0.12008,-0.105964 -0.009,0.0041 -0.0658,0.06168 -0.12653,0.128276 l -0.11034,0.121097 0.0409,0.10264 c 0.0363,0.09072 0.0364,0.102639 0.003,0.102639 -0.0504,0 -0.0884,-0.103279 -0.0884,-0.239544 0,-0.125742 0.0513,-0.18343 0.3443,-0.38738 0.0982,-0.06834 0.27397,-0.20261 0.39062,-0.298378 0.11663,-0.095768 0.22913,-0.1741219 0.25006,-0.1741219 0.0214,0 0.0711,0.01721 0.11169,0.03825 0.0405,0.021043 0.15695,0.050086 0.25891,0.064577 0.23451,0.03334 0.34878,0.1004099 0.56737,0.3327379 0.23585,0.250675 0.33604,0.417303 0.42624,0.709278 0.0421,0.13674 0.1051,0.339863 0.14003,0.451353 0.0346,0.111508 0.12533,0.335856 0.2015,0.498581 0.0762,0.162725 0.17949,0.410916 0.22994,0.551542 0.0505,0.140623 0.14737,0.376488 0.21545,0.524144 0.0682,0.147659 0.18862,0.475571 0.26778,0.728693 0.37271,1.192768 0.6745,1.951246 1.27729,3.210043 0.18299,0.382225 0.28766,0.646923 0.4447,1.124997 0.11304,0.343843 0.2176,0.710945 0.23262,0.815783 0.0161,0.104846 0.0547,0.297701 0.0888,0.428587 0.11003,0.423903 0.0917,0.472173 -0.33159,0.88504 -0.30968,0.301986 -0.47888,0.412992 -0.6829,0.448028 -0.2345,0.04028 -0.78687,0.05481 -1.06615,0.02806 z"
       id="path1675" />
    <path
       style="display:inline;fill:#ffdf00;fill-opacity:0.74902;stroke:#000000;stroke-width:0.0255358;stroke-opacity:1"
       d="m 106.49764,20.712565 c -0.13328,-0.0128 -0.45323,-0.07587 -0.71109,-0.14026 -0.25784,-0.06438 -0.59515,-0.139875 -0.74965,-0.167762 -0.66445,-0.11994 -0.92151,-0.291621 -1.17333,-0.783567 -0.2995,-0.585088 -0.35822,-1.0261 -0.18644,-1.400117 0.0804,-0.175019 0.27362,-0.425322 0.39036,-0.505626 0.0926,-0.06371 0.10704,-0.06583 0.35254,-0.05183 0.22404,0.01281 0.26838,0.0082 0.35586,-0.03681 0.0988,-0.05078 0.10164,-0.05084 0.23987,-0.0034 0.0768,0.02654 0.22081,0.05447 0.31995,0.06209 0.34565,0.0266 0.34028,0.02434 0.38077,0.161086 0.0378,0.127963 0.14138,0.34028 0.20552,0.422174 0.0462,0.0587 0.11664,0.03762 0.11664,-0.03486 0,-0.02885 -0.0289,-0.135195 -0.0639,-0.236387 -0.0352,-0.101182 -0.0813,-0.316693 -0.10195,-0.478919 -0.0499,-0.386356 -0.0612,-0.435585 -0.10059,-0.435585 -0.0187,0 -0.0466,0.05349 -0.0631,0.118849 -0.016,0.06537 -0.0384,0.108511 -0.0489,0.09588 -0.0105,-0.01253 -0.0849,-0.111099 -0.16528,-0.218791 -0.0805,-0.107693 -0.18647,-0.226383 -0.23531,-0.263734 -0.0974,-0.07448 -0.21223,-0.281334 -0.27628,-0.4975 -0.0459,-0.15506 -0.0543,-0.308564 -0.016,-0.308564 0.0373,0 0.37995,0.438932 0.57378,0.73508 0.0944,0.144141 0.18139,0.262076 0.19372,0.262076 0.0721,0 0.0877,-0.126832 0.0862,-0.703123 -0.003,-0.903427 -0.07,-1.372749 -0.29522,-2.045451 -0.0706,-0.210932 -0.17279,-0.552997 -0.22727,-0.760138 -0.0544,-0.207148 -0.12399,-0.434812 -0.15454,-0.505938 -0.0818,-0.190757 -0.23343,-0.312101 -0.48858,-0.391196 -0.68344,-0.211824 -0.82084,-0.260401 -1.05403,-0.372604 -0.46879,-0.225564 -0.69907,-0.395894 -0.69907,-0.517103 0,-0.07853 0.0582,-0.150046 0.12294,-0.151251 0.11558,-0.002 0.41266,-0.05149 0.47137,-0.07828 0.0861,-0.03928 0.13717,-0.150889 0.15921,-0.347676 0.0285,-0.253518 -6.9e-4,-0.379041 -0.12189,-0.509998 -0.0571,-0.06224 -0.11123,-0.109914 -0.12008,-0.105964 -0.009,0.0041 -0.0658,0.06168 -0.12653,0.128276 l -0.11034,0.121097 0.0409,0.10264 c 0.0363,0.09072 0.0364,0.102639 0.003,0.102639 -0.0504,0 -0.0884,-0.103279 -0.0884,-0.239544 0,-0.125742 0.0513,-0.18343 0.3443,-0.38738 0.0982,-0.06834 0.27397,-0.20261 0.39062,-0.298378 0.11663,-0.095768 0.22913,-0.1741219 0.25006,-0.1741219 0.0214,0 0.0711,0.01721 0.11169,0.03825 0.0405,0.021043 0.15695,0.050086 0.25891,0.064577 0.23451,0.03334 0.34878,0.1004099 0.56737,0.3327379 0.23585,0.250675 0.33604,0.417303 0.42624,0.709278 0.0421,0.13674 0.1051,0.339863 0.14003,0.451353 0.0346,0.111508 0.12533,0.335856 0.2015,0.498581 0.0762,0.162725 0.17949,0.410916 0.22994,0.551542 0.0505,0.140623 0.14737,0.376488 0.21545,0.524144 0.0682,0.147659 0.18862,0.475571 0.26778,0.728693 0.37271,1.192768 0.6745,1.951246 1.27729,3.210043 0.18299,0.382225 0.28766,0.646923 0.4447,1.124997 0.11304,0.343843 0.2176,0.710945 0.23262,0.815783 0.0161,0.104846 0.0547,0.297701 0.0888,0.428587 0.11003,0.423903 0.0917,0.472173 -0.33159,0.88504 -0.30968,0.301986 -0.47888,0.412992 -0.6829,0.448028 -0.2345,0.04028 -0.78687,0.05481 -1.06615,0.02806 z"
       id="path1677" />
    <path
       style="display:inline;fill:#ffdf00;fill-opacity:0.74902;stroke:#000000;stroke-width:0.0255358;stroke-opacity:1"
       d="m 106.49764,20.712565 c -0.13328,-0.0128 -0.45323,-0.07587 -0.71109,-0.14026 -0.25784,-0.06438 -0.59515,-0.139875 -0.74965,-0.167762 -0.66445,-0.11994 -0.92151,-0.291621 -1.17333,-0.783567 -0.2995,-0.585088 -0.35822,-1.0261 -0.18644,-1.400117 0.0804,-0.175019 0.27362,-0.425322 0.39036,-0.505626 0.0926,-0.06371 0.10704,-0.06583 0.35254,-0.05183 0.22404,0.01281 0.26838,0.0082 0.35586,-0.03681 0.0988,-0.05078 0.10164,-0.05084 0.23987,-0.0034 0.0768,0.02654 0.22081,0.05447 0.31995,0.06209 0.34565,0.0266 0.34028,0.02434 0.38077,0.161086 0.0378,0.127963 0.14138,0.34028 0.20552,0.422174 0.0462,0.0587 0.11664,0.03762 0.11664,-0.03486 0,-0.02885 -0.0289,-0.135195 -0.0639,-0.236387 -0.0352,-0.101182 -0.0813,-0.316693 -0.10195,-0.478919 -0.0499,-0.386356 -0.0612,-0.435585 -0.10059,-0.435585 -0.0187,0 -0.0466,0.05349 -0.0631,0.118849 -0.016,0.06537 -0.0384,0.108511 -0.0489,0.09588 -0.0105,-0.01253 -0.0849,-0.111099 -0.16528,-0.218791 -0.0805,-0.107693 -0.18647,-0.226383 -0.23531,-0.263734 -0.0974,-0.07448 -0.21223,-0.281334 -0.27628,-0.4975 -0.0459,-0.15506 -0.0543,-0.308564 -0.016,-0.308564 0.0373,0 0.37995,0.438932 0.57378,0.73508 0.0944,0.144141 0.18139,0.262076 0.19372,0.262076 0.0721,0 0.0877,-0.126832 0.0862,-0.703123 -0.003,-0.903427 -0.07,-1.372749 -0.29522,-2.045451 -0.0706,-0.210932 -0.17279,-0.552997 -0.22727,-0.760138 -0.0544,-0.207148 -0.12399,-0.434812 -0.15454,-0.505938 -0.0818,-0.190757 -0.23343,-0.312101 -0.48858,-0.391196 -0.68344,-0.211824 -0.82084,-0.260401 -1.05403,-0.372604 -0.46879,-0.225564 -0.69907,-0.395894 -0.69907,-0.517103 0,-0.07853 0.0582,-0.150046 0.12294,-0.151251 0.11558,-0.002 0.41266,-0.05149 0.47137,-0.07828 0.0861,-0.03928 0.13717,-0.150889 0.15921,-0.347676 0.0285,-0.253518 -6.9e-4,-0.379041 -0.12189,-0.509998 -0.0571,-0.06224 -0.11123,-0.109914 -0.12008,-0.105964 -0.009,0.0041 -0.0658,0.06168 -0.12653,0.128276 l -0.11034,0.121097 0.0409,0.10264 c 0.0363,0.09072 0.0364,0.102639 0.003,0.102639 -0.0504,0 -0.0884,-0.103279 -0.0884,-0.239544 0,-0.125742 0.0513,-0.18343 0.3443,-0.38738 0.0982,-0.06834 0.27397,-0.20261 0.39062,-0.298378 0.11663,-0.095768 0.22913,-0.1741219 0.25006,-0.1741219 0.0214,0 0.0711,0.01721 0.11169,0.03825 0.0405,0.021043 0.15695,0.050086 0.25891,0.064577 0.23451,0.03334 0.34878,0.1004099 0.56737,0.3327379 0.23585,0.250675 0.33604,0.417303 0.42624,0.709278 0.0421,0.13674 0.1051,0.339863 0.14003,0.451353 0.0346,0.111508 0.12533,0.335856 0.2015,0.498581 0.0762,0.162725 0.17949,0.410916 0.22994,0.551542 0.0505,0.140623 0.14737,0.376488 0.21545,0.524144 0.0682,0.147659 0.18862,0.475571 0.26778,0.728693 0.37271,1.192768 0.6745,1.951246 1.27729,3.210043 0.18299,0.382225 0.28766,0.646923 0.4447,1.124997 0.11304,0.343843 0.2176,0.710945 0.23262,0.815783 0.0161,0.104846 0.0547,0.297701 0.0888,0.428587 0.11003,0.423903 0.0917,0.472173 -0.33159,0.88504 -0.30968,0.301986 -0.47888,0.412992 -0.6829,0.448028 -0.2345,0.04028 -0.78687,0.05481 -1.06615,0.02806 z"
       id="path1679" />
  </g>
</svg>
