<?xml version="1.0" encoding="UTF-8" standalone="no"?>
<svg
   xmlns:dc="http://purl.org/dc/elements/1.1/"
   xmlns:cc="http://creativecommons.org/ns#"
   xmlns:rdf="http://www.w3.org/1999/02/22-rdf-syntax-ns#"
   xmlns:svg="http://www.w3.org/2000/svg"
   xmlns="http://www.w3.org/2000/svg"
   xmlns:sodipodi="http://sodipodi.sourceforge.net/DTD/sodipodi-0.dtd"
   xmlns:inkscape="http://www.inkscape.org/namespaces/inkscape"
   width="13.806965mm"
   height="17.460426mm"
   viewBox="0 0 13.806965 17.460426"
   version="1.1"
   id="svg784"
   inkscape:version="1.0.1 (3bc2e813f5, 2020-09-07)"
   sodipodi:docname="bras.svg">
  <defs
     id="defs778" />
  <sodipodi:namedview
     id="base"
     pagecolor="#ffffff"
     bordercolor="#666666"
     borderopacity="1.0"
     inkscape:pageopacity="0.0"
     inkscape:pageshadow="2"
     inkscape:zoom="1.8803892"
     inkscape:cx="-148.11667"
     inkscape:cy="101.47494"
     inkscape:document-units="mm"
     inkscape:current-layer="layer1"
     inkscape:document-rotation="0"
     showgrid="false"
     inkscape:window-width="1920"
     inkscape:window-height="1017"
     inkscape:window-x="-8"
     inkscape:window-y="-8"
     inkscape:window-maximized="1"
     fit-margin-top="1"
     fit-margin-left="0"
     fit-margin-right="0"
     fit-margin-bottom="0" />
  <metadata
     id="metadata781">
    <rdf:RDF>
      <cc:Work
         rdf:about="">
        <dc:format>image/svg+xml</dc:format>
        <dc:type
           rdf:resource="http://purl.org/dc/dcmitype/StillImage" />
        <dc:title></dc:title>
      </cc:Work>
    </rdf:RDF>
  </metadata>
  <g
     inkscape:label="Calque 1"
     inkscape:groupmode="layer"
     id="layer1"
     transform="translate(-97.7312,-8.7850918)">
    <path
       style="display:inline;fill:#ffdf00;fill-opacity:0.74902;stroke:#000000;stroke-width:0.0606174;stroke-opacity:1"
       d="m 103.22682,22.804651 c -0.0149,-0.01479 -0.23449,-0.06949 -0.48797,-0.121509 -0.55536,-0.113969 -1.29877,-0.46092 -1.52425,-0.711353 -0.25646,-0.284853 -0.41363,-0.830182 -0.41296,-1.432846 4.6e-4,-0.463366 0.0192,-0.548267 0.17999,-0.819058 0.0987,-0.166158 0.23204,-0.36788 0.29631,-0.448268 l 0.11691,-0.146164 0.63053,0.08351 c 0.34679,0.04592 0.76577,0.07759 0.93105,0.07036 l 0.30051,-0.01315 -0.15699,0.166434 c -0.0864,0.09154 -0.24349,0.320638 -0.34923,0.509109 l -0.19224,0.342674 0.0874,0.442803 c 0.0973,0.493536 0.30974,1.007309 0.43637,1.055589 0.0456,0.01736 0.21154,0.220384 0.36877,0.451116 0.15722,0.230728 0.30948,0.434012 0.33836,0.451739 0.13298,0.08165 0.0265,0.145939 -0.24146,0.145939 -0.16166,0 -0.30613,-0.01212 -0.32103,-0.02691 z m -0.75895,-2.661818 c 0.0763,-0.1157 0.0808,-0.151054 0.0192,-0.151054 -0.1029,0 -0.22641,0.121951 -0.22641,0.223559 0,0.125791 0.0994,0.09101 0.20726,-0.0725 z"
       id="path104" />
    <path
       style="fill:#ffdf00;fill-opacity:0.74902;stroke:#000000;stroke-width:0.0606174;stroke-opacity:1"
       d="m 102.1884,18.681659 c 0.044,-0.01746 0.0964,-0.0153 0.11656,0.0046 0.0202,0.02008 -0.0157,0.03435 -0.0799,0.03174 -0.0708,-0.003 -0.0853,-0.01721 -0.0367,-0.03652 z"
       id="path106" />
    <path
       style="display:inline;fill:#ffdf00;fill-opacity:0.74902;stroke:#000000;stroke-width:0.0606174;stroke-opacity:1"
       d="m 108.67654,23.443018 c -0.067,-0.02865 -0.32687,-0.08603 -0.57773,-0.127517 -0.25087,-0.0415 -0.52573,-0.110759 -0.61083,-0.153951 -0.0851,-0.04319 -0.35876,-0.09738 -0.60814,-0.12042 -0.81929,-0.07571 -1.18835,-0.33291 -1.54402,-1.076085 -0.4199,-0.877403 -0.43143,-1.483688 -0.0373,-1.958788 0.10182,-0.122799 0.18524,-0.253741 0.18524,-0.290974 0,-0.03723 0.10375,-0.108182 0.23052,-0.157658 0.19219,-0.07501 0.24312,-0.07654 0.30645,-0.0091 0.15556,0.165434 0.61673,0.05547 0.62037,-0.147912 8.7e-4,-0.09513 0.006,-0.09546 0.0604,-0.0041 0.0722,0.122772 0.59646,0.254173 0.88203,0.221048 0.19837,-0.02301 0.21121,-0.01382 0.21121,0.151515 0,0.181076 0.22685,0.645624 0.31527,0.645624 0.0662,0 0.0639,-0.225818 -0.003,-0.266693 -0.11135,-0.06841 -0.26317,-0.776232 -0.2232,-1.04104 0.0508,-0.33671 -0.0633,-0.354023 -0.12037,-0.01828 l -0.0417,0.244958 -0.12191,-0.229855 c -0.1476,-0.27818 -0.39498,-0.548159 -0.54592,-0.595751 -0.061,-0.01927 -0.11096,-0.08848 -0.11096,-0.153873 0,-0.06539 -0.042,-0.182479 -0.0932,-0.26018 -0.0892,-0.135349 -0.20073,-0.760785 -0.1356,-0.760785 0.0173,0 0.15937,0.156344 0.31574,0.347424 0.15636,0.191081 0.32659,0.398416 0.37829,0.460747 0.0517,0.06232 0.15801,0.238867 0.23629,0.3923 0.18435,0.361279 0.22442,0.265551 0.23207,-0.55435 0.0103,-1.154567 -0.18625,-2.28455 -0.49986,-2.86676 -0.0358,-0.06656 -0.12191,-0.389428 -0.19134,-0.717502 -0.0694,-0.328072 -0.15899,-0.661481 -0.19912,-0.740908 -0.0902,-0.178478 -0.48259,-0.350501 -1.04495,-0.458082 -0.6841,-0.13087 -1.79581,-0.747945 -1.79581,-0.996801 0,-0.24538 0.0489,-0.274494 0.42524,-0.253341 0.4914,0.02763 0.55773,-0.0436 0.56932,-0.611394 0.006,-0.305066 -0.0131,-0.436034 -0.0645,-0.436096 -0.0404,-4.6e-5 -0.11483,-0.05448 -0.16531,-0.120933 -0.0909,-0.119423 -0.0919,-0.119243 -0.0939,0.0151 -8.7e-4,0.09502 -0.0385,0.135945 -0.12358,0.135945 -0.14702,0 -0.15307,0.04658 -0.0245,0.187803 0.12809,0.14067 0.0596,0.258074 -0.10079,0.172762 -0.13015,-0.0692 -0.15998,-0.350922 -0.0573,-0.541468 0.0333,-0.06189 0.18492,-0.174205 0.33683,-0.24959 0.15193,-0.07538 0.41383,-0.270227 0.58201,-0.432984 0.29549,-0.2859767 0.30976,-0.2923557 0.42401,-0.1896327 0.0753,0.06774 0.22327,0.108341 0.40772,0.111921 0.26571,0.0052 0.31813,0.03318 0.63789,0.3408807 0.19161,0.18439 0.34839,0.366159 0.34839,0.403932 0,0.0378 0.0508,0.104211 0.1129,0.147633 0.075,0.05246 0.13722,0.217929 0.18535,0.493157 0.0914,0.522923 0.23113,0.940803 0.36651,1.096325 0.1359,0.156107 0.36906,0.731054 0.36906,0.91006 0,0.07628 0.0445,0.182906 0.099,0.236963 0.11096,0.110252 0.44308,0.909635 0.44631,1.074262 8.7e-4,0.117981 0.34404,1.157048 0.55114,1.675884 0.073,0.182771 0.17296,0.441073 0.22222,0.574002 0.0493,0.132926 0.12641,0.28247 0.17134,0.332316 0.0449,0.04986 0.10157,0.172196 0.12577,0.271894 0.0475,0.195749 0.60922,1.392029 0.72342,1.54074 0.0869,0.113133 0.31565,0.801726 0.36432,1.096555 0.02,0.121248 0.0862,0.284386 0.14731,0.362528 0.0729,0.0934 0.12333,0.292926 0.14709,0.582328 0.02,0.242133 0.0788,0.525003 0.13073,0.628593 0.18285,0.364142 0.13127,0.523032 -0.32133,0.99011 -0.57714,0.595567 -0.84276,0.713543 -1.65178,0.733653 -0.3512,0.0087 -0.69329,-0.0076 -0.76018,-0.03621 z"
       id="path108" />
    <path
       style="display:inline;fill:#ffdf00;fill-opacity:0.74902;stroke:#000000;stroke-width:0.0606174;stroke-opacity:1"
       d="m 104.65865,19.613562 c -0.57671,-0.456396 -0.87767,-0.737484 -0.87767,-0.819721 0,-0.04828 -0.0429,-0.118925 -0.0953,-0.15698 -0.0524,-0.03805 -0.10504,-0.1634 -0.11714,-0.278556 -0.0116,-0.115156 -0.0553,-0.375068 -0.0962,-0.577587 -0.0991,-0.491256 -0.0502,-0.661697 0.21753,-0.757872 0.11702,-0.04201 0.21267,-0.09588 0.21267,-0.119685 0,-0.02383 0.12999,-0.09207 0.28885,-0.15168 0.15888,-0.05962 0.3573,-0.143269 0.4409,-0.185889 0.19624,-0.100026 1.1398,-0.09941 1.32144,9.55e-4 0.0745,0.04113 0.24086,0.173991 0.36959,0.295191 0.20766,0.195497 0.23485,0.254495 0.24101,0.522799 0.006,0.270791 0.0796,0.639318 0.17759,0.893366 0.0291,0.07512 -0.003,0.08388 -0.18582,0.04991 -0.16996,-0.03169 -0.221,-0.02136 -0.221,0.04472 0,0.05269 0.11946,0.116349 0.30876,0.16455 0.36252,0.09231 0.80799,0.481218 0.85982,0.750658 l 0.0331,0.171847 -0.2787,-0.0415 c -0.46257,-0.06892 -0.73871,-0.310684 -0.97791,-0.856174 -0.22878,-0.521756 -0.36891,-0.991393 -0.37002,-1.240126 -5.6e-4,-0.14693 -0.0938,-0.278561 -0.15459,-0.218253 -0.0449,0.04467 0.20036,1.114586 0.29907,1.304245 0.054,0.103611 0.0981,0.226732 0.0981,0.273595 0,0.04689 0.0628,0.177358 0.13979,0.289997 0.22779,0.333753 0.24041,0.410156 0.0747,0.451492 -0.14247,0.03554 -0.45147,-0.124215 -0.4558,-0.235617 -8.7e-4,-0.02717 -0.0671,-0.135898 -0.14688,-0.241681 -0.0798,-0.105789 -0.1629,-0.25106 -0.18479,-0.322829 -0.0219,-0.07177 -0.0798,-0.163468 -0.12873,-0.203767 -0.0489,-0.04032 -0.089,-0.126833 -0.089,-0.192297 0,-0.06545 -0.0547,-0.188148 -0.12164,-0.272645 -0.067,-0.0845 -0.12165,-0.231528 -0.12165,-0.326743 0,-0.09521 -0.0273,-0.173117 -0.0609,-0.173117 -0.0946,0 -0.0716,0.304398 0.0457,0.604216 0.12113,0.309549 0.47323,0.942241 0.61673,1.108141 0.0883,0.102117 0.0867,0.11815 -0.021,0.196371 -0.18209,0.132298 -0.36739,0.103965 -0.4614,-0.07056 -0.0461,-0.08565 -0.13466,-0.182725 -0.19671,-0.215722 -0.062,-0.03302 -0.16228,-0.174616 -0.22272,-0.314705 -0.12757,-0.295719 -0.58105,-0.790021 -0.67296,-0.733575 -0.0365,0.02244 0.0258,0.131455 0.14986,0.261412 0.11688,0.122593 0.28477,0.366832 0.373,0.542747 0.0883,0.175915 0.22308,0.360628 0.29964,0.410469 0.23551,0.153319 0.26322,0.568368 0.0378,0.567049 -0.055,-2.32e-4 -0.21124,-0.08869 -0.34731,-0.196371 z"
       id="path110" />
    <path
       style="fill:#ffdf00;fill-opacity:0.74902;stroke:#000000;stroke-width:0.0606174;stroke-opacity:1"
       d="m 101.85012,18.741705 c 0.0586,-0.0152 0.15432,-0.0152 0.21285,0 0.0586,0.0152 0.0106,0.02763 -0.10642,0.02763 -0.11707,0 -0.16496,-0.01243 -0.10644,-0.02763 z"
       id="path112" />
    <path
       style="fill:#ffdf00;fill-opacity:0.74902;stroke:#000000;stroke-width:0.0606174;stroke-opacity:1"
       d="m 101.61093,18.591339 c -0.10648,-0.03564 -0.26894,-0.142986 -0.36106,-0.238513 l -0.16748,-0.173682 h 1.17847 c 1.04925,0 1.16553,0.0097 1.06043,0.08871 -0.065,0.04879 -0.16259,0.08958 -0.21703,0.09063 -0.0545,9.55e-4 -0.13019,0.03928 -0.16835,0.08497 -0.0383,0.04565 -0.19887,0.09856 -0.35712,0.117513 -0.15827,0.01895 -0.39723,0.04812 -0.53103,0.06484 -0.13379,0.0167 -0.33036,9.55e-4 -0.43683,-0.03446 z"
       id="path118" />
    <path
       style="display:inline;fill:#ffdf00;fill-opacity:0.74902;stroke:#000000;stroke-width:0.0606174;stroke-opacity:1"
       d="m 102.71673,22.648267 c -0.23414,-0.06159 -0.65778,-0.229074 -0.94144,-0.372178 -0.4864,-0.245399 -0.52611,-0.28044 -0.69815,-0.616083 -0.16004,-0.312234 -0.18524,-0.432002 -0.20552,-0.976542 -0.0216,-0.579964 -0.0125,-0.639979 0.13827,-0.915294 0.0888,-0.16205 0.22178,-0.364469 0.29557,-0.449828 l 0.13416,-0.155194 0.83349,0.09156 0.83349,0.09156 -0.11186,0.156599 c -0.0615,0.08613 -0.19549,0.297763 -0.2977,0.470298 l -0.18583,0.313694 0.1169,0.486313 c 0.14817,0.616375 0.24149,0.830448 0.47142,1.081589 0.10145,0.110765 0.29799,0.362266 0.43681,0.558893 l 0.2524,0.357506 -0.32315,-0.0054 c -0.17773,-0.003 -0.51472,-0.05584 -0.74886,-0.117437 z m -0.2367,-2.460118 c 0.11764,-0.153949 0.10262,-0.207309 -0.0521,-0.185467 -0.0879,0.01237 -0.14377,0.0679 -0.15627,0.155255 -0.0232,0.162377 0.0944,0.179428 0.20845,0.0302 z"
       id="path1041" />
    <path
       style="display:inline;fill:#ffdf00;fill-opacity:0.74902;stroke:#000000;stroke-width:0.0606174;stroke-opacity:1"
       d="m 108.22043,23.320611 c -0.25086,-0.05858 -0.55188,-0.137296 -0.66896,-0.174929 -0.11701,-0.03764 -0.4044,-0.09684 -0.63855,-0.131575 -0.82599,-0.122535 -1.18212,-0.361059 -1.50983,-1.011155 -0.43495,-0.862957 -0.45418,-1.423942 -0.0678,-1.98339 0.24071,-0.348635 0.54908,-0.556412 0.6625,-0.446371 0.0911,0.08842 0.46962,0.06537 0.58172,-0.03544 0.0909,-0.08169 0.12538,-0.08169 0.3221,0 0.12126,0.05033 0.35756,0.09148 0.52523,0.09148 0.28384,0 0.30722,0.01146 0.33873,0.166157 0.0476,0.233778 0.22774,0.57637 0.31815,0.60517 0.10735,0.0342 0.0955,-0.195948 -0.0216,-0.421079 -0.0537,-0.103143 -0.11239,-0.40088 -0.13032,-0.661631 -0.0336,-0.487092 -0.11161,-0.615118 -0.17695,-0.290451 l -0.0371,0.18364 -0.20837,-0.307407 c -0.11458,-0.169075 -0.27255,-0.336465 -0.351,-0.371978 -0.15653,-0.07085 -0.42135,-0.733519 -0.38637,-0.966829 0.0158,-0.105506 0.0828,-0.04931 0.37259,0.312702 0.1943,0.242734 0.40695,0.545839 0.47254,0.67357 0.0657,0.127734 0.14438,0.232238 0.17509,0.232238 0.17679,0 0.14261,-1.685549 -0.0534,-2.635472 -0.0625,-0.303022 -0.17057,-0.67865 -0.24007,-0.834732 -0.0695,-0.156082 -0.19931,-0.586966 -0.28849,-0.957514 -0.20415,-0.848296 -0.28402,-0.938272 -0.99666,-1.122845 -0.67077,-0.173732 -1.1953,-0.390708 -1.64928,-0.682246 -0.31714,-0.203636 -0.36291,-0.256462 -0.34631,-0.399618 0.0181,-0.157051 0.038,-0.166398 0.41297,-0.195162 0.34399,-0.0264 0.40354,-0.04935 0.47041,-0.181268 0.0421,-0.08308 0.0769,-0.297475 0.0775,-0.476441 5.8e-4,-0.270158 -0.025,-0.34916 -0.1512,-0.465445 l -0.15211,-0.140058 -0.15991,0.158875 c -0.13553,0.134651 -0.14877,0.176568 -0.087,0.274961 0.0783,0.12446 0.0377,0.224067 -0.053,0.1305 -0.0613,-0.06323 -0.0828,-0.173521 -0.0721,-0.371746 0.005,-0.09361 0.11276,-0.200843 0.35687,-0.355173 0.19234,-0.121596 0.46449,-0.32552 0.60477,-0.453172 0.24584,-0.2236657 0.26129,-0.2288787 0.42571,-0.1436737 0.0939,0.04864 0.26701,0.08858 0.38481,0.08879 0.26133,4.62e-4 0.56987,0.236597 0.91425,0.699753 0.18397,0.247429 0.26867,0.445766 0.36423,0.852943 0.0684,0.2918 0.21621,0.694057 0.32829,0.893904 0.11212,0.199847 0.24789,0.512898 0.30178,0.695669 0.054,0.182777 0.17765,0.481865 0.27502,0.664636 0.0974,0.182776 0.25,0.590616 0.33917,0.906317 0.20178,0.714451 0.65446,1.966153 0.88498,2.447059 0.0955,0.199388 0.2726,0.59364 0.39338,0.876109 0.12075,0.282469 0.31225,0.682178 0.4255,0.888245 0.11329,0.206066 0.28714,0.641099 0.3864,0.966738 0.0992,0.325644 0.22248,0.700831 0.2738,0.833761 0.0514,0.132925 0.0945,0.327627 0.096,0.43267 8.7e-4,0.105038 0.0535,0.353365 0.11573,0.551837 0.0944,0.30106 0.10066,0.389557 0.0385,0.534067 -0.0917,0.212733 -0.77414,0.868977 -1.06399,1.022989 -0.30438,0.161731 -1.49591,0.179649 -2.12823,0.032 z"
       id="path1045" />
    <path
       style="display:inline;fill:#ffdf00;fill-opacity:0.74902;stroke:#000000;stroke-width:0.0606174;stroke-opacity:1"
       d="m 104.37714,19.331606 c -0.27772,-0.230172 -0.55679,-0.506118 -0.62017,-0.613217 -0.12396,-0.209616 -0.27987,-0.916573 -0.28,-1.270037 -6e-5,-0.202492 0.14076,-0.417213 0.27361,-0.417213 0.0282,0 0.0945,-0.0361 0.14725,-0.08019 0.0528,-0.04412 0.26886,-0.152868 0.4801,-0.241687 0.32399,-0.136222 0.47285,-0.161494 0.95125,-0.161494 h 0.56715 l 0.29616,0.264555 c 0.29105,0.259995 0.29738,0.273292 0.36651,0.770373 0.0386,0.278196 0.0892,0.553393 0.11226,0.611548 0.0344,0.08694 0.008,0.105738 -0.14709,0.105738 -0.31055,0 -0.22044,0.16283 0.16058,0.290142 0.26906,0.0899 0.61212,0.358619 0.71831,0.562641 0.11624,0.223363 0.11302,0.234801 -0.0663,0.234801 -0.24679,0 -0.53268,-0.146746 -0.73756,-0.378568 -0.22008,-0.249035 -0.54977,-1.055291 -0.64028,-1.565739 -0.0409,-0.230707 -0.0915,-0.351702 -0.14707,-0.351702 -0.10736,0 -0.10556,0.114827 0.009,0.604215 0.12986,0.554113 0.31564,1.075546 0.48816,1.370232 0.0814,0.138847 0.14778,0.267997 0.14778,0.287004 0,0.06514 -0.28077,0.03462 -0.37661,-0.04099 -0.14763,-0.116394 -0.6876,-1.058307 -0.84812,-1.479432 -0.079,-0.207211 -0.16412,-0.377144 -0.18921,-0.377632 -0.0251,-4.67e-4 -0.0455,0.101075 -0.0455,0.225695 3e-5,0.239802 0.24808,0.818047 0.55628,1.296886 0.19569,0.304048 0.18778,0.410011 -0.0308,0.410011 -0.15728,0 -0.52367,-0.355702 -0.67616,-0.656439 -0.13204,-0.260364 -0.56945,-0.733247 -0.67826,-0.733247 -0.12576,0 -0.1071,0.04288 0.19019,0.435747 0.15052,0.198933 0.27367,0.384544 0.27367,0.412462 0,0.02793 0.10942,0.176418 0.24325,0.330004 0.26804,0.307673 0.32596,0.574002 0.12486,0.574002 -0.0652,0 -0.34562,-0.188323 -0.62334,-0.418492 z"
       id="path1051" />
    <path
       style="display:inline;fill:#191964;fill-opacity:1;stroke:#000000;stroke-width:0.0606174;stroke-opacity:1"
       d="m 107.9416,26.031073 c -0.10196,-0.101248 -0.41397,-0.366348 -0.69344,-0.589106 -0.27947,-0.222761 -0.55724,-0.472995 -0.61724,-0.556072 -0.0645,-0.08935 -0.13339,-0.349007 -0.16855,-0.635625 -0.0775,-0.631403 -0.0973,-0.673459 -0.36062,-0.766244 -0.29506,-0.10395 -1.80926,-0.09649 -2.80728,0.01382 -0.4181,0.04623 -1.12964,0.08316 -1.58118,0.0821 -1.865474,-0.0046 -2.860444,-0.513325 -3.343882,-1.710467 -0.420917,-1.042323 -0.416718,-1.396228 0.02696,-2.271666 0.151908,-0.299756 0.276198,-0.56485 0.276198,-0.5891 0,-0.09912 -0.16949,-0.03369 -0.316153,0.122063 -0.318407,0.338119 -0.459456,0.735008 -0.531454,1.495423 -0.03589,0.379286 -0.04795,0.203637 -0.05598,-0.81569 -0.0079,-1.0013 0.01235,-1.40292 0.08832,-1.752214 0.169188,-0.778153 0.138369,-0.745649 0.660907,-0.697 0.26489,0.02465 0.64155,0.01304 0.91553,-0.02819 0.25601,-0.03856 0.47762,-0.05804 0.49245,-0.04329 0.0148,0.01474 -0.26042,0.237732 -0.61168,0.49554 -0.63504,0.466093 -0.946028,0.782913 -0.946028,0.963781 0,0.143365 0.06578,0.117527 0.396418,-0.155687 0.16662,-0.137691 0.65872,-0.514605 1.09354,-0.837577 l 0.790584,-0.587226 0.63855,0.07226 c 0.66725,0.0755 0.88411,0.15539 1.32196,0.486979 l 0.25767,0.195154 -0.77461,0.04104 c -1.06794,0.05654 -1.1699,0.07752 -1.1699,0.240748 0,0.153687 0.24147,0.397244 0.54484,0.549556 0.26932,0.135216 1.02349,0.09195 1.54758,-0.08878 0.19755,-0.06813 0.36859,-0.123876 0.38008,-0.123876 0.0738,0 -5.6e-4,0.263025 -0.10337,0.365111 -0.11559,0.11491 -0.19223,0.122838 -1.10986,0.114935 l -0.98565,-0.0085 -0.19804,0.284975 c -0.29606,0.426009 -0.40174,0.856538 -0.36223,1.475719 0.0757,1.187446 0.48252,1.649542 1.78828,2.031647 0.68305,0.199879 1.75921,0.276959 1.81595,0.130071 0.0234,-0.06054 -0.0537,-0.18667 -0.21474,-0.351579 -0.57454,-0.588208 -1.21762,-1.730116 -1.21762,-2.162124 0,-0.169748 0.46226,-0.888918 0.71625,-1.114309 0.1201,-0.106585 0.12512,-0.106585 0.15505,0 0.017,0.06059 0.0482,0.273286 0.0692,0.472681 0.1035,0.983485 0.30456,1.722002 0.46884,1.722002 0.0855,0 0.0282,-1.308703 -0.0722,-1.650077 -0.0372,-0.126603 -0.0591,-0.255569 -0.0487,-0.286594 0.0103,-0.03102 0.18327,0.05208 0.38394,0.184673 0.20069,0.132596 0.3991,0.241167 0.44092,0.241275 0.0985,2.37e-4 0.096,0.0283 -0.0221,0.255456 -0.16906,0.324833 -0.0917,1.064032 0.16951,1.617795 0.26623,0.564573 0.64994,1.049929 0.95043,1.202246 0.12629,0.06401 0.60059,0.186736 1.05402,0.272727 0.83014,0.157437 1.47628,0.338051 1.58077,0.441868 0.0774,0.07681 0.0842,0.315814 0.0269,0.937039 l -0.0487,0.527668 0.20569,0.197388 c 0.11316,0.108562 0.28738,0.255969 0.3872,0.327564 0.16173,0.115993 0.17156,0.140218 0.0902,0.222331 -0.0745,0.07529 -0.81082,0.221494 -1.11544,0.221494 -0.04,0 -0.15617,-0.08284 -0.25807,-0.184086 z"
       id="path1057" />
    <path
       style="display:inline;fill:#191964;fill-opacity:1;stroke:#000000;stroke-width:0.0606174;stroke-opacity:1"
       d="m 107.90413,25.990045 c -0.14378,-0.12819 -0.48552,-0.418311 -0.75942,-0.644709 -0.54294,-0.448806 -0.5959,-0.541751 -0.69201,-1.214706 -0.0731,-0.512678 -0.16695,-0.619673 -0.60754,-0.693467 -0.36901,-0.06181 -1.70949,-0.03117 -2.56803,0.05871 -0.8496,0.08893 -2.2723,0.07434 -2.81532,-0.02891 -0.942814,-0.179223 -1.599854,-0.628261 -1.961314,-1.340395 -0.242039,-0.476862 -0.436081,-1.122671 -0.436081,-1.451371 0,-0.278627 0.244594,-0.967785 0.479181,-1.350105 0.22906,-0.373318 0.1038,-0.503357 -0.187197,-0.194337 -0.23245,0.246843 -0.36211,0.533668 -0.48482,1.072474 l -0.110077,0.483369 0.02578,-1.238632 c 0.02531,-1.216647 0.112832,-1.854803 0.27674,-2.017648 0.04085,-0.04058 0.34723,-0.06909 0.778844,-0.07248 0.39134,-0.003 0.79086,-0.02742 0.88783,-0.05413 0.25758,-0.0709 0.17032,0.02932 -0.40315,0.463048 -0.60563,0.458045 -0.959031,0.81307 -0.959031,0.963434 0,0.15864 0.05234,0.143434 0.364881,-0.106044 0.15052,-0.120137 0.6445,-0.497163 1.09773,-0.837839 l 0.824084,-0.619401 0.62606,0.08055 c 0.65846,0.08472 0.99329,0.209045 1.34203,0.498324 l 0.21062,0.174713 -0.81589,0.04483 c -1.14007,0.06264 -1.26214,0.12837 -0.94155,0.506921 0.33771,0.398745 1.1235,0.477463 1.93866,0.194213 0.4291,-0.149102 0.40098,-0.146899 0.40098,-0.03143 0,0.05135 -0.0672,0.160119 -0.14928,0.241688 -0.14601,0.145065 -0.17047,0.148306 -1.11933,0.148306 h -0.97008 l -0.19055,0.285831 c -0.2903,0.435427 -0.3907,0.854473 -0.35087,1.464387 0.0794,1.215898 0.54016,1.708249 1.93643,2.069175 0.56672,0.146493 1.63514,0.191409 1.67669,0.07048 0.0128,-0.03723 -0.13518,-0.248394 -0.32885,-0.469216 -0.41399,-0.472018 -0.89081,-1.263684 -1.03552,-1.719233 l -0.10246,-0.322686 0.17979,-0.33023 c 0.0989,-0.181631 0.29339,-0.457855 0.43221,-0.613839 l 0.25241,-0.283608 0.0336,0.211473 c 0.22,1.382805 0.27971,1.693678 0.36267,1.88816 0.0532,0.12462 0.12959,0.226582 0.16985,0.226582 0.0843,0 0.037,-1.245277 -0.0631,-1.659885 -0.0319,-0.131997 -0.0474,-0.25049 -0.0345,-0.263319 0.0128,-0.01284 0.18602,0.07477 0.38469,0.194671 0.19866,0.119901 0.3922,0.218002 0.43009,0.218002 0.0471,0 0.0397,0.06941 -0.0232,0.218854 -0.26136,0.62147 0.0288,1.6875 0.67488,2.479309 0.27685,0.339305 0.58066,0.471443 1.51363,0.658308 0.43482,0.0871 0.96847,0.21719 1.18588,0.289099 l 0.39529,0.130752 v 0.781039 0.78104 l 0.33449,0.271699 c 0.18395,0.149432 0.33447,0.299772 0.33447,0.334092 0,0.07769 -0.37648,0.188128 -0.83322,0.24442 -0.34083,0.04201 -0.35112,0.03877 -0.60814,-0.190347 z"
       id="path1061" />
    <path
       style="display:inline;fill:#ffdf00;fill-opacity:0.74902;stroke:#000000;stroke-width:0.0606174;stroke-opacity:1"
       d="m 108.09881,23.251943 c -0.25087,-0.06299 -0.72578,-0.169727 -1.05538,-0.237183 -0.32959,-0.06747 -0.71271,-0.172526 -0.8514,-0.233476 -0.52275,-0.229747 -1.0044,-1.034476 -1.0587,-1.768899 -0.0377,-0.510942 0.0469,-0.759619 0.38642,-1.134832 l 0.27119,-0.299673 0.32295,0.03312 c 0.19376,0.01988 0.37578,0.0051 0.45494,-0.03703 0.094,-0.04997 0.19749,-0.05276 0.35965,-0.0097 0.12526,0.03328 0.35583,0.07647 0.51242,0.09604 0.24855,0.03108 0.28935,0.05659 0.32131,0.201075 0.0465,0.210103 0.25469,0.553372 0.3357,0.553372 0.0859,0 0.0756,-0.226506 -0.0232,-0.513576 -0.0457,-0.13293 -0.10234,-0.426707 -0.12589,-0.652845 -0.0436,-0.419471 -0.1394,-0.513658 -0.22234,-0.218787 -0.0226,0.08062 -0.0439,0.115331 -0.0473,0.07714 -0.003,-0.03821 -0.16532,-0.244049 -0.36001,-0.45747 -0.24078,-0.26397 -0.37899,-0.476944 -0.43231,-0.66613 -0.13231,-0.469539 -0.0441,-0.449109 0.3481,0.08059 0.20695,0.279526 0.41663,0.562606 0.46595,0.629071 0.15408,0.207592 0.21354,-0.0021 0.21436,-0.755264 8.7e-4,-0.889662 -0.0945,-1.655889 -0.28219,-2.265795 -0.0819,-0.265855 -0.22919,-0.768858 -0.32748,-1.117792 -0.31617,-1.12266 -0.29117,-1.096617 -1.38997,-1.448149 -0.94712,-0.303001 -1.60779,-0.674867 -1.63663,-0.921185 -0.0183,-0.155702 -0.005,-0.16302 0.35192,-0.203207 0.46512,-0.05228 0.54881,-0.15337 0.54881,-0.662905 0,-0.314807 -0.0221,-0.389433 -0.1514,-0.510073 -0.14963,-0.139669 -0.1529,-0.139966 -0.28083,-0.02562 -0.0712,0.06362 -0.15186,0.170056 -0.17924,0.236516 -0.0492,0.1193 -0.0498,0.119254 -0.0537,-0.0037 -0.005,-0.167883 0.0839,-0.266985 0.51305,-0.570988 0.20069,-0.142138 0.43515,-0.322839 0.521,-0.401553 0.13094,-0.1200397 0.18487,-0.1340087 0.33447,-0.08664 0.0981,0.03108 0.28263,0.0737 0.41006,0.09476 0.48309,0.07982 0.98297,0.703836 1.23527,1.541982 0.0851,0.282475 0.24644,0.717507 0.35869,0.966744 0.44839,0.995697 0.71368,1.677928 1.0856,2.791883 0.36117,1.081785 0.9952,2.615346 1.47055,3.556945 0.29175,0.57793 0.61763,1.545244 0.8199,2.433746 0.15937,0.70002 0.16827,0.793247 0.09,0.943534 -0.1407,0.270299 -0.93027,0.959086 -1.17772,1.02737 -0.37181,0.102604 -1.56374,0.0673 -2.07673,-0.06151 z"
       id="path1063" />
    <path
       style="display:inline;fill:#ffdf00;fill-opacity:0.74902;stroke:#000000;stroke-width:0.0606174;stroke-opacity:1"
       d="m 102.72333,22.618778 c -0.16362,-0.04463 -0.55474,-0.204721 -0.86916,-0.355744 -0.56938,-0.273492 -0.57239,-0.276116 -0.75104,-0.655407 -0.15865,-0.336829 -0.18034,-0.451481 -0.18781,-0.992595 -0.009,-0.604816 -0.006,-0.615945 0.21587,-0.978658 0.12338,-0.201787 0.25057,-0.383003 0.28266,-0.402704 0.0763,-0.04684 1.46933,0.09597 1.5385,0.157715 0.0292,0.02609 -0.0461,0.205014 -0.16724,0.397568 -0.12126,0.192555 -0.22041,0.31507 -0.22041,0.27226 0,-0.146966 -0.27219,-0.04966 -0.29422,0.105161 -0.0168,0.118315 8.7e-4,0.138729 0.1,0.113072 0.10526,-0.02732 0.12973,0.0152 0.19329,0.336238 0.11996,0.605761 0.28285,0.953596 0.69896,1.492424 0.21746,0.281596 0.39568,0.532389 0.39601,0.557311 8.7e-4,0.07249 -0.61049,0.04201 -0.93538,-0.04664 z"
       id="path1067" />
    <path
       style="display:inline;fill:#ffdf00;fill-opacity:1;stroke:#000000;stroke-width:0.0606174;stroke-opacity:1"
       d="m 107.40658,25.585637 c -0.39746,-0.341437 -0.75818,-0.686139 -0.80161,-0.766003 -0.0434,-0.07986 -0.0967,-0.28116 -0.11843,-0.447317 -0.12023,-0.920953 -0.15993,-0.945918 -1.4991,-0.943406 -0.53457,9.55e-4 -1.31232,0.03363 -1.72837,0.07248 -1.01086,0.09443 -2.67944,0.04324 -3.12699,-0.09592 -1.039624,-0.32327 -1.526174,-0.826221 -1.924418,-1.989273 -0.235579,-0.688012 -0.174976,-1.128385 0.277994,-2.019913 0.10717,-0.210915 0.17892,-0.399293 0.15946,-0.418634 -0.0761,-0.07556 -0.376087,0.226372 -0.533251,0.536619 -0.09095,0.179546 -0.206865,0.516782 -0.25757,0.7494 -0.09117,0.418239 -0.09193,0.409149 -0.06797,-0.815685 0.02429,-1.240969 0.104374,-1.816188 0.282633,-2.029583 0.06509,-0.07791 0.15056,-0.09039 0.418698,-0.06113 0.1853,0.02024 0.56786,0.01012 0.85012,-0.02249 0.28227,-0.03261 0.52398,-0.04858 0.53714,-0.03549 0.0131,0.01309 -0.23243,0.226542 -0.54576,0.474371 -0.61327,0.485079 -0.960698,0.840054 -0.960698,0.981585 0,0.04869 0.0166,0.08853 0.03685,0.08853 0.02025,0 0.259738,-0.172695 0.532128,-0.383758 0.27239,-0.211069 0.76892,-0.587705 1.103404,-0.836972 l 0.60814,-0.453207 0.48652,0.05219 c 0.66457,0.07129 1.04117,0.192781 1.38905,0.448098 0.16192,0.118828 0.28499,0.225401 0.2735,0.236829 -0.0116,0.01146 -0.34331,0.04015 -0.73735,0.0639 -1.20812,0.07272 -1.34398,0.152113 -0.9277,0.542182 0.3909,0.366288 1.01469,0.41578 1.87258,0.148574 0.20903,-0.06511 0.3869,-0.11873 0.39526,-0.119157 0.008,-4.68e-4 0.0152,0.05163 0.0152,0.11568 0,0.06404 -0.0721,0.172808 -0.16024,0.241682 -0.14669,0.114636 -0.24115,0.125227 -1.11698,0.125227 h -0.95676 l -0.15642,0.234846 c -0.36576,0.54912 -0.47609,1.134375 -0.34975,1.855178 0.16913,0.964936 0.65693,1.404036 1.91403,1.722926 0.55016,0.13956 1.48205,0.211948 1.60908,0.124995 0.0657,-0.04493 -0.0103,-0.17234 -0.35244,-0.592793 -0.46322,-0.568908 -1.03906,-1.61477 -1.0381,-1.885407 5.8e-4,-0.202471 0.27621,-0.682686 0.5948,-1.036796 0.28578,-0.317665 0.23709,-0.411153 0.42917,0.823803 0.12783,0.822032 0.25414,1.230518 0.3804,1.230518 0.0862,0 0.0358,-1.18383 -0.0691,-1.624241 -0.0346,-0.145624 -0.0492,-0.278452 -0.0323,-0.295189 0.0168,-0.01674 0.19764,0.06843 0.40175,0.189242 0.20414,0.120811 0.3949,0.219656 0.42392,0.219656 0.029,0 0.0103,0.125621 -0.043,0.279162 -0.19976,0.582459 0.0116,1.459334 0.52991,2.192659 0.3888,0.550696 0.56091,0.640857 1.67603,0.877963 0.53257,0.113246 1.10515,0.256668 1.27239,0.318716 l 0.30406,0.11282 v 0.772612 c 0,0.860425 -0.0412,0.765708 0.52004,1.195749 0.15002,0.114961 0.19134,0.179701 0.14509,0.227375 -0.0726,0.0748 -0.82622,0.246026 -1.06042,0.240911 -0.10259,-0.0025 -0.38674,-0.204946 -0.87468,-0.62411 z"
       id="path1075" />
    <path
       style="display:inline;fill:#ffdf00;fill-opacity:0.74902;stroke:#000000;stroke-width:0.0606174;stroke-opacity:1"
       d="m 102.88275,22.646639 c -0.37908,-0.07425 -1.38198,-0.52605 -1.55975,-0.70268 -0.26035,-0.25867 -0.4003,-0.736083 -0.4003,-1.365611 0,-0.535978 0.009,-0.57164 0.23148,-0.949364 0.26149,-0.443316 0.18921,-0.42263 1.1702,-0.334872 0.64128,0.05737 0.67249,0.08596 0.4782,0.437975 -0.13095,0.237265 -0.18715,0.285576 -0.33448,0.287538 -0.13644,0.0021 -0.18153,0.03358 -0.1965,0.138312 -0.0143,0.100283 0.0111,0.13595 0.0968,0.13595 0.0919,0 0.13242,0.07264 0.19385,0.347418 0.13316,0.595634 0.29352,0.933922 0.69459,1.465216 0.21323,0.282469 0.37576,0.533976 0.36113,0.558898 -0.0335,0.05701 -0.39536,0.04776 -0.73517,-0.0188 z"
       id="path1077" />
    <path
       style="display:inline;fill:#ffdf00;fill-opacity:0.74902;stroke:#000000;stroke-width:0.0606174;stroke-opacity:1"
       d="m 108.4941,23.315023 c -0.7336,-0.102959 -2.3224,-0.526328 -2.52007,-0.671528 -0.23335,-0.17141 -0.58218,-0.680427 -0.70838,-1.033679 -0.0508,-0.142205 -0.10839,-0.427222 -0.12809,-0.633366 -0.0309,-0.324293 -0.0143,-0.418182 0.12282,-0.696686 0.0872,-0.17703 0.2401,-0.399556 0.33985,-0.494499 0.16917,-0.161021 0.21937,-0.173824 0.74704,-0.190489 0.31113,-0.0098 0.73706,0.01038 0.94651,0.04483 l 0.38084,0.06272 0.1665,0.338739 c 0.0915,0.186305 0.2007,0.348858 0.24251,0.361229 0.0933,0.02763 0.10093,-0.216568 0.0141,-0.443989 -0.0343,-0.0892 -0.0896,-0.355487 -0.12333,-0.591761 -0.0668,-0.467941 -0.15957,-0.641556 -0.22003,-0.411804 -0.0348,0.131894 -0.0505,0.12401 -0.30243,-0.152091 -0.33668,-0.36882 -0.54647,-0.715818 -0.59614,-0.986042 l -0.0389,-0.211475 0.22172,0.241687 c 0.12204,0.132925 0.32937,0.398019 0.46089,0.589106 0.13153,0.19108 0.26497,0.347419 0.29652,0.347419 0.11161,0 0.13765,-0.330106 0.0996,-1.262396 -0.0445,-1.091532 -0.0687,-1.228386 -0.43868,-2.483715 -0.48501,-1.645742 -0.43596,-1.577736 -1.35279,-1.875406 -1.12282,-0.364541 -1.90698,-0.815557 -1.81808,-1.045688 0.02,-0.05177 0.16225,-0.105003 0.34879,-0.130491 0.44548,-0.06087 0.54503,-0.180281 0.54503,-0.653785 0,-0.333599 -0.02,-0.400838 -0.15793,-0.528685 l -0.15791,-0.146482 -0.17656,0.209193 c -0.10671,0.126465 -0.17656,0.172752 -0.17656,0.117042 0,-0.107084 0.17321,-0.2717 0.75125,-0.714015 0.40248,-0.3079727 0.42648,-0.3175037 0.69937,-0.2777847 0.80239,0.1167837 1.19412,0.5335017 1.59123,1.6927227 0.0911,0.265855 0.34426,0.904812 0.56264,1.419899 0.21838,0.515091 0.54777,1.371563 0.732,1.903268 0.58066,1.676042 0.74262,2.075639 1.53037,3.776323 0.50852,1.097799 1.00518,2.721412 1.00518,3.285923 0,0.252488 -0.3697,0.686457 -0.88544,1.039361 -0.34239,0.234282 -0.34553,0.235062 -0.99092,0.246314 -0.35611,0.0063 -0.81165,-0.01176 -1.01234,-0.03995 z"
       id="path1079" />
    <path
       style="fill:#ffdf00;fill-opacity:0.74902;stroke:#000000;stroke-width:0.0606174;stroke-opacity:1"
       d="m 101.50043,18.495098 c -0.10034,-0.06331 -0.22,-0.160298 -0.2659,-0.215532 -0.077,-0.09272 -0.0258,-0.100016 0.66895,-0.09513 0.41385,0.003 0.88688,0.02332 1.05121,0.0453 l 0.29879,0.04 -0.31067,0.134256 c -0.18645,0.08057 -0.50047,0.14864 -0.7853,0.170214 -0.40266,0.03051 -0.5023,0.01849 -0.65708,-0.07915 z"
       id="path1083" />
    <path
       style="fill:#ffdf00;fill-opacity:0.74902;stroke:#000000;stroke-width:0.013958;stroke-opacity:1"
       d="m 104.34167,11.638707 c 0,-0.157679 8.6e-4,-0.166953 0.0279,-0.166953 0.0187,0 0.0279,-0.0092 0.0279,-0.02784 0,-0.01546 0.009,-0.02784 0.021,-0.02784 0.0116,0 0.021,0.01237 0.021,0.02784 0,0.01853 0.009,0.02784 0.0279,0.02784 0.0186,0 0.0279,0.0092 0.0279,0.02784 0,0.01855 -0.009,0.02784 -0.0279,0.02784 -0.025,0 -0.0279,0.0092 -0.0279,0.08348 v 0.08347 h 0.0769 c 0.0677,0 0.077,-0.0037 0.077,-0.02784 0,-0.01854 0.009,-0.02784 0.0279,-0.02784 0.0187,0 0.0279,-0.0092 0.0279,-0.02784 0,-0.02629 0.009,-0.02784 0.16805,-0.02784 h 0.16804 v 0.05566 c 0,0.04021 -0.005,0.05566 -0.021,0.05566 -0.0116,0 -0.021,0.01237 -0.021,0.02784 0,0.02254 -0.009,0.02784 -0.049,0.02784 -0.0396,0 -0.049,0.0053 -0.049,0.02784 0,0.0268 -0.009,0.02784 -0.25206,0.02784 h -0.25197 z"
       id="path1295" />
    <path
       style="fill:#ffdf00;fill-opacity:0.74902;stroke:#000000;stroke-width:0.013958;stroke-opacity:1"
       d="m 104.8458,11.096109 c 0,-0.01853 -0.009,-0.02784 -0.0279,-0.02784 -0.0233,0 -0.0279,-0.0092 -0.0279,-0.05566 0,-0.05433 -8.7e-4,-0.05566 -0.049,-0.05566 -0.0582,0 -0.0652,-0.02141 -0.0103,-0.03236 0.0213,-0.0041 0.0559,-0.0119 0.077,-0.01709 0.033,-0.008 0.0385,-0.0051 0.0385,0.02003 0,0.01689 0.009,0.02948 0.021,0.02948 0.0164,0 0.021,0.01854 0.021,0.08347 0,0.06493 -0.005,0.08347 -0.021,0.08347 -0.0116,0 -0.021,-0.01237 -0.021,-0.02784 z"
       id="path1297" />
    <path
       style="fill:#ffdf00;fill-opacity:0.74902;stroke:#000000;stroke-width:0.013958;stroke-opacity:1"
       d="m 104.94382,11.096109 c 0,-0.01546 0.009,-0.02784 0.021,-0.02784 0.0116,0 0.021,0.01237 0.021,0.02784 0,0.01546 -0.009,0.02784 -0.021,0.02784 -0.0116,0 -0.021,-0.01237 -0.021,-0.02784 z"
       id="path1299" />
    <path
       style="fill:#ffdf00;fill-opacity:0.74902;stroke:#000000;stroke-width:0.013958;stroke-opacity:1"
       d="m 104.94382,11.040459 c 0,-0.01545 0.009,-0.02784 0.021,-0.02784 0.0116,0 0.021,0.01237 0.021,0.02784 0,0.01546 -0.009,0.02784 -0.021,0.02784 -0.0116,0 -0.021,-0.01237 -0.021,-0.02784 z"
       id="path1303" />
    <path
       style="display:inline;fill:#ffdf00;fill-opacity:0.74902;stroke:#000000;stroke-width:0.0516793;stroke-opacity:1"
       d="m 108.39516,23.332499 c -0.19963,-0.03856 -0.50669,-0.107673 -0.68237,-0.153559 -0.17571,-0.04592 -0.54556,-0.129653 -0.82189,-0.186146 -0.27635,-0.05648 -0.59922,-0.145394 -0.71749,-0.197567 -0.30294,-0.133618 -0.58386,-0.466924 -0.82779,-0.982181 -0.17838,-0.376814 -0.21303,-0.505887 -0.23263,-0.866942 -0.0206,-0.377929 -0.008,-0.453792 0.11046,-0.695408 0.0735,-0.149164 0.22655,-0.361423 0.34022,-0.47169 0.20342,-0.19733 0.21244,-0.200346 0.57275,-0.191313 0.20134,0.0051 0.4139,-0.01628 0.47239,-0.04735 0.0772,-0.04114 0.15401,-0.04088 0.28127,9.55e-4 0.0962,0.03154 0.31801,0.07353 0.49285,0.09331 l 0.3179,0.03595 0.12461,0.305101 c 0.0684,0.167807 0.15974,0.339978 0.20264,0.382609 0.12616,0.125349 0.1577,-0.04807 0.0614,-0.338087 -0.045,-0.135628 -0.10749,-0.431675 -0.13887,-0.657888 -0.0313,-0.226209 -0.0684,-0.429414 -0.082,-0.45157 -0.0415,-0.06657 -0.12152,0.01191 -0.12152,0.118977 0,0.05499 -0.0233,0.09998 -0.0519,0.09998 -0.0285,0 -0.0517,-0.02235 -0.0517,-0.04961 0,-0.02726 -0.14192,-0.200375 -0.3154,-0.384615 -0.33042,-0.350932 -0.5153,-0.719227 -0.51275,-1.02152 l 8.6e-4,-0.166861 0.15412,0.18029 c 0.0849,0.09916 0.2954,0.383122 0.46807,0.631024 0.1727,0.247901 0.33496,0.450726 0.36062,0.450726 0.0897,0 0.11817,-0.386757 0.0887,-1.207388 -0.0309,-0.859994 -0.14853,-1.590498 -0.34891,-2.166693 -0.0591,-0.169963 -0.18983,-0.5987 -0.29048,-0.952749 -0.10067,-0.354048 -0.22847,-0.716792 -0.28401,-0.8061 -0.11612,-0.186685 -0.36727,-0.312636 -0.95453,-0.478706 -0.80429,-0.227457 -1.78871,-0.766341 -1.78871,-0.979172 0,-0.135389 0.0767,-0.172993 0.43929,-0.215474 0.42047,-0.04925 0.49395,-0.143464 0.49395,-0.633257 0,-0.339372 -0.0128,-0.382814 -0.14564,-0.509627 l -0.14564,-0.138626 -0.14598,0.151398 c -0.1147,0.118875 -0.13859,0.180702 -0.11148,0.28784 0.0226,0.08887 0.0155,0.124899 -0.0194,0.103334 -0.0296,-0.01822 -0.054,-0.123553 -0.054,-0.234091 0,-0.191106 0.0197,-0.215398 0.40182,-0.494385 0.221,-0.161376 0.48086,-0.361413 0.57745,-0.444528 0.13525,-0.1163567 0.2068,-0.1435867 0.31109,-0.1183597 0.0744,0.01802 0.25209,0.05648 0.39468,0.08546 0.33071,0.06723 0.59146,0.245543 0.84711,0.579332 0.26998,0.352478 0.29757,0.410834 0.51079,1.08006 0.1008,0.316508 0.24777,0.702968 0.32654,0.858788 0.0788,0.155825 0.20251,0.445575 0.27502,0.643897 0.0726,0.198323 0.20122,0.511261 0.28602,0.695413 0.0849,0.184158 0.24107,0.612992 0.34726,0.952969 0.3742,1.198077 1.10104,2.9906 1.66568,4.1079 0.26413,0.522636 0.66135,1.730141 0.82197,2.498686 0.12127,0.580206 0.13311,0.705673 0.0789,0.835635 -0.0856,0.205255 -0.84188,0.916973 -1.08026,1.016569 -0.26481,0.110636 -1.42103,0.138251 -1.90148,0.0454 z"
       id="path842" />
    <path
       style="display:inline;fill:#ffdf00;fill-opacity:0.74902;stroke:#000000;stroke-width:0.0516793;stroke-opacity:1"
       d="m 108.39516,23.332499 c -0.19963,-0.03856 -0.50669,-0.107673 -0.68237,-0.153559 -0.17571,-0.04592 -0.54556,-0.129653 -0.82189,-0.186146 -0.27635,-0.05648 -0.59922,-0.145394 -0.71749,-0.197567 -0.30294,-0.133618 -0.58386,-0.466924 -0.82779,-0.982181 -0.17838,-0.376814 -0.21303,-0.505887 -0.23263,-0.866942 -0.0206,-0.377929 -0.008,-0.453792 0.11046,-0.695408 0.0735,-0.149164 0.22655,-0.361423 0.34022,-0.47169 0.20342,-0.19733 0.21244,-0.200346 0.57275,-0.191313 0.20134,0.0051 0.4139,-0.01628 0.47239,-0.04735 0.0772,-0.04114 0.15401,-0.04088 0.28127,9.55e-4 0.0962,0.03154 0.31801,0.07353 0.49285,0.09331 l 0.3179,0.03595 0.12461,0.305101 c 0.0684,0.167807 0.15974,0.339978 0.20264,0.382609 0.12616,0.125349 0.1577,-0.04807 0.0614,-0.338087 -0.045,-0.135628 -0.10749,-0.431675 -0.13887,-0.657888 -0.0313,-0.226209 -0.0684,-0.429414 -0.082,-0.45157 -0.0415,-0.06657 -0.12152,0.01191 -0.12152,0.118977 0,0.05499 -0.0233,0.09998 -0.0519,0.09998 -0.0285,0 -0.0517,-0.02235 -0.0517,-0.04961 0,-0.02726 -0.14192,-0.200375 -0.3154,-0.384615 -0.33042,-0.350932 -0.5153,-0.719227 -0.51275,-1.02152 l 8.6e-4,-0.166861 0.15412,0.18029 c 0.0849,0.09916 0.2954,0.383122 0.46807,0.631024 0.1727,0.247901 0.33496,0.450726 0.36062,0.450726 0.0897,0 0.11817,-0.386757 0.0887,-1.207388 -0.0309,-0.859994 -0.14853,-1.590498 -0.34891,-2.166693 -0.0591,-0.169963 -0.18983,-0.5987 -0.29048,-0.952749 -0.10067,-0.354048 -0.22847,-0.716792 -0.28401,-0.8061 -0.11612,-0.186685 -0.36727,-0.312636 -0.95453,-0.478706 -0.80429,-0.227457 -1.78871,-0.766341 -1.78871,-0.979172 0,-0.135389 0.0767,-0.172993 0.43929,-0.215474 0.42047,-0.04925 0.49395,-0.143464 0.49395,-0.633257 0,-0.339372 -0.0128,-0.382814 -0.14564,-0.509627 l -0.14564,-0.138626 -0.14598,0.151398 c -0.1147,0.118875 -0.13859,0.180702 -0.11148,0.28784 0.0226,0.08887 0.0155,0.124899 -0.0194,0.103334 -0.0296,-0.01822 -0.054,-0.123553 -0.054,-0.234091 0,-0.191106 0.0197,-0.215398 0.40182,-0.494385 0.221,-0.161376 0.48086,-0.361413 0.57745,-0.444528 0.13525,-0.1163567 0.2068,-0.1435867 0.31109,-0.1183597 0.0744,0.01802 0.25209,0.05648 0.39468,0.08546 0.33071,0.06723 0.59146,0.245543 0.84711,0.579332 0.26998,0.352478 0.29757,0.410834 0.51079,1.08006 0.1008,0.316508 0.24777,0.702968 0.32654,0.858788 0.0788,0.155825 0.20251,0.445575 0.27502,0.643897 0.0726,0.198323 0.20122,0.511261 0.28602,0.695413 0.0849,0.184158 0.24107,0.612992 0.34726,0.952969 0.3742,1.198077 1.10104,2.9906 1.66568,4.1079 0.26413,0.522636 0.66135,1.730141 0.82197,2.498686 0.12127,0.580206 0.13311,0.705673 0.0789,0.835635 -0.0856,0.205255 -0.84188,0.916973 -1.08026,1.016569 -0.26481,0.110636 -1.42103,0.138251 -1.90148,0.0454 z"
       id="path844" />
    <path
       id="path846"
       style="display:inline;fill:#ffdf00;fill-opacity:0;stroke:#000000;stroke-width:0.0516793;stroke-opacity:1"
       d="m 100.65477,17.172436 -1.094974,0.824004 c -0.60224,0.453207 -1.117952,0.824049 -1.146029,0.824049 -0.224185,0 0.263719,-0.544477 1.055109,-1.177441 0.22341,-0.178683 0.39836,-0.331257 0.38883,-0.339058 -0.01,-0.0078 -0.18065,0.0046 -0.38027,0.02733 -0.1996,0.02285 -0.58755,0.04268 -0.86208,0.04416 -0.380183,0.0021 -0.514701,0.02121 -0.564349,0.08067 -0.1544,0.184836 -0.217228,0.67318 -0.238457,1.853699 l -0.02126,1.18475 0.118766,-0.44591 c 0.074,-0.277801 0.18601,-0.543841 0.297154,-0.705669 0.166398,-0.242268 0.381476,-0.418234 0.440046,-0.360047 0.014,0.01392 -0.0906,0.279161 -0.232352,0.589486 -0.392041,0.857965 -0.419892,1.112619 -0.199376,1.823593 0.359578,1.15935 1.027758,1.809837 2.091462,2.035973 0.58436,0.124236 1.63011,0.151156 2.76165,0.07113 0.56279,-0.0398 1.459,-0.07236 1.99162,-0.07236 0.904,0 0.97812,0.0072 1.11466,0.108546 0.16979,0.125982 0.24279,0.311721 0.32872,0.835985 0.0748,0.456248 0.13177,0.528388 1.00972,1.279461 0.69947,0.598386 0.70926,0.601673 1.36412,0.45314 0.55176,-0.125149 0.55419,-0.133027 0.15281,-0.492505 l -0.34995,-0.31341 v -0.765977 -0.76593 l -0.40185,-0.124985 c -0.221,-0.06873 -0.74011,-0.198353 -1.15359,-0.288093 -1.01273,-0.21979 -1.32748,-0.373606 -1.63196,-0.79753 -0.31781,-0.4425 -0.53411,-0.92028 -0.63157,-1.395027 -0.0799,-0.38949 -0.0681,-0.585507 0.0628,-1.036346 0.0272,-0.09352 -0.0247,-0.139689 -0.36617,-0.325885 -0.21877,-0.1193 -0.40891,-0.20581 -0.42254,-0.192268 -0.0136,0.01356 -4.3e-4,0.15543 0.0293,0.315313 0.0881,0.472665 0.13222,1.501708 0.0663,1.542146 -0.13796,0.08471 -0.3012,-0.443841 -0.4516,-1.462186 -0.13121,-0.888194 -0.0978,-0.843256 -0.38783,-0.523565 -0.35795,0.394697 -0.58988,0.84602 -0.55246,1.075094 0.065,0.398194 0.55115,1.245232 1.10649,1.928129 0.40506,0.498104 0.38041,0.531747 -0.36064,0.492013 -1.05737,-0.05671 -1.99874,-0.376913 -2.44288,-0.830948 -0.3335,-0.340922 -0.45501,-0.690662 -0.48573,-1.398083 -0.0292,-0.671203 0.0395,-0.970548 0.32683,-1.425178 l 0.18721,-0.296191 0.89035,-0.003 c 1.00385,-0.003 1.2237,-0.04833 1.30073,-0.266532 0.0273,-0.07736 0.0371,-0.153114 0.0219,-0.168352 -0.0153,-0.01525 -0.17718,0.0206 -0.35964,0.07968 -0.47287,0.153103 -1.22266,0.191964 -1.52089,0.0788 -0.21391,-0.08117 -0.59955,-0.43059 -0.59955,-0.543224 0,-0.02726 0.0451,-0.07359 0.10043,-0.102969 0.1187,-0.06311 0.93099,-0.154074 1.38711,-0.155342 0.17654,-4.68e-4 0.33377,-0.02147 0.34944,-0.04669 0.0348,-0.05575 -0.22731,-0.259348 -0.53241,-0.41374 -0.22478,-0.113744 -0.70871,-0.221736 -1.26035,-0.281233 z" />
    <path
       style="display:inline;fill:#ffdf00;fill-opacity:0.74902;stroke:#000000;stroke-width:0.031928;stroke-opacity:1"
       d="m 108.74144,23.386644 c -0.16736,-0.01587 -0.56924,-0.09444 -0.89307,-0.17458 -0.3238,-0.08014 -0.74752,-0.174102 -0.94158,-0.208818 -0.83452,-0.149298 -1.15739,-0.36298 -1.47366,-0.975305 -0.37616,-0.72826 -0.44991,-1.277185 -0.23416,-1.742723 0.10093,-0.217848 0.34367,-0.529399 0.49029,-0.629354 0.11636,-0.07931 0.13443,-0.08194 0.44276,-0.06452 0.28139,0.01587 0.33711,0.01017 0.44695,-0.04581 0.1241,-0.06322 0.12757,-0.06326 0.30113,-0.0041 0.0965,0.03302 0.27743,0.06781 0.40188,0.07729 0.43411,0.03312 0.42735,0.0303 0.47823,0.200515 0.0476,0.159292 0.17746,0.423549 0.25821,0.525481 0.0578,0.07307 0.14645,0.04684 0.14645,-0.04339 0,-0.0359 -0.0363,-0.168283 -0.0804,-0.294224 -0.0442,-0.125935 -0.10195,-0.394188 -0.12808,-0.596111 -0.0625,-0.480894 -0.0767,-0.542172 -0.12641,-0.542172 -0.0229,0 -0.0586,0.06657 -0.0792,0.147932 -0.0206,0.08136 -0.0481,0.135061 -0.0613,0.119342 -0.013,-0.01572 -0.1066,-0.138273 -0.2077,-0.272327 -0.10119,-0.134055 -0.23414,-0.281775 -0.29549,-0.328268 -0.12229,-0.0927 -0.26662,-0.350177 -0.347,-0.619236 -0.0577,-0.192992 -0.0679,-0.384073 -0.0206,-0.384073 0.0468,0 0.4772,0.546342 0.72064,0.914956 0.11855,0.179412 0.22796,0.326204 0.24328,0.326204 0.0906,0 0.11006,-0.157874 0.10826,-0.875175 -0.003,-1.124494 -0.088,-1.70866 -0.37077,-2.54597 -0.0886,-0.262553 -0.21711,-0.688315 -0.28546,-0.946144 -0.0684,-0.257829 -0.15564,-0.541211 -0.19397,-0.629739 -0.10285,-0.237451 -0.29313,-0.388473 -0.61363,-0.486923 -0.85839,-0.263656 -1.03097,-0.324119 -1.32386,-0.463781 -0.58879,-0.280765 -0.87799,-0.492768 -0.87799,-0.643636 0,-0.09773 0.073,-0.186763 0.15444,-0.188252 0.14513,-0.0025 0.5183,-0.06407 0.59202,-0.09744 0.10801,-0.04889 0.17221,-0.187799 0.19998,-0.432752 0.0358,-0.315553 -8.7e-4,-0.471789 -0.15312,-0.634793 -0.0718,-0.07746 -0.13977,-0.136802 -0.1509,-0.131883 -0.0116,0.0051 -0.0827,0.07678 -0.15882,0.159667 l -0.13858,0.150714 0.0514,0.127749 c 0.0455,0.112932 0.0458,0.127753 0.003,0.127753 -0.0632,0 -0.11109,-0.128549 -0.11109,-0.298163 0,-0.156529 0.0644,-0.228304 0.43243,-0.482172 0.12332,-0.08507 0.3441,-0.252189 0.4906,-0.371392 0.14651,-0.1192027 0.28775,-0.2167277 0.3139,-0.2167277 0.0261,0 0.0892,0.02142 0.14015,0.04761 0.051,0.0262 0.19733,0.06234 0.32531,0.08038 0.29437,0.0415 0.43804,0.12498 0.71261,0.41416 0.29625,0.312014 0.42202,0.519416 0.53534,0.882838 0.053,0.170214 0.13219,0.423026 0.17582,0.5618 0.0436,0.13878 0.15753,0.418039 0.25311,0.620581 0.0957,0.202539 0.2256,0.511467 0.28894,0.686504 0.0633,0.175037 0.18512,0.468614 0.27067,0.652402 0.0855,0.183788 0.23684,0.591942 0.3362,0.907001 0.46812,1.484639 0.84717,2.428718 1.60422,3.995541 0.22988,0.475753 0.3613,0.805224 0.55856,1.400282 0.14187,0.42798 0.27328,0.884912 0.29201,1.015402 0.0187,0.130496 0.0689,0.37055 0.11148,0.533463 0.13799,0.527632 0.11521,0.587713 -0.41646,1.101608 -0.38893,0.375882 -0.60143,0.514049 -0.8577,0.557662 -0.29456,0.05012 -0.9883,0.06823 -1.33905,0.03492 z"
       id="path1673" />
    <path
       style="display:inline;fill:#ffdf00;fill-opacity:0.74902;stroke:#000000;stroke-width:0.031928;stroke-opacity:1"
       d="m 108.74144,23.386644 c -0.16736,-0.01587 -0.56924,-0.09444 -0.89307,-0.17458 -0.3238,-0.08014 -0.74752,-0.174102 -0.94158,-0.208818 -0.83452,-0.149298 -1.15739,-0.36298 -1.47366,-0.975305 -0.37616,-0.72826 -0.44991,-1.277185 -0.23416,-1.742723 0.10093,-0.217848 0.34367,-0.529399 0.49029,-0.629354 0.11636,-0.07931 0.13443,-0.08194 0.44276,-0.06452 0.28139,0.01587 0.33711,0.01017 0.44695,-0.04581 0.1241,-0.06322 0.12757,-0.06326 0.30113,-0.0041 0.0965,0.03302 0.27743,0.06781 0.40188,0.07729 0.43411,0.03312 0.42735,0.0303 0.47823,0.200515 0.0476,0.159292 0.17746,0.423549 0.25821,0.525481 0.0578,0.07307 0.14645,0.04684 0.14645,-0.04339 0,-0.0359 -0.0363,-0.168283 -0.0804,-0.294224 -0.0442,-0.125935 -0.10195,-0.394188 -0.12808,-0.596111 -0.0625,-0.480894 -0.0767,-0.542172 -0.12641,-0.542172 -0.0229,0 -0.0586,0.06657 -0.0792,0.147932 -0.0206,0.08136 -0.0481,0.135061 -0.0613,0.119342 -0.013,-0.01572 -0.1066,-0.138273 -0.2077,-0.272327 -0.10119,-0.134055 -0.23414,-0.281775 -0.29549,-0.328268 -0.12229,-0.0927 -0.26662,-0.350177 -0.347,-0.619236 -0.0577,-0.192992 -0.0679,-0.384073 -0.0206,-0.384073 0.0468,0 0.4772,0.546342 0.72064,0.914956 0.11855,0.179412 0.22796,0.326204 0.24328,0.326204 0.0906,0 0.11006,-0.157874 0.10826,-0.875175 -0.003,-1.124494 -0.088,-1.70866 -0.37077,-2.54597 -0.0886,-0.262553 -0.21711,-0.688315 -0.28546,-0.946144 -0.0684,-0.257829 -0.15564,-0.541211 -0.19397,-0.629739 -0.10285,-0.237451 -0.29313,-0.388473 -0.61363,-0.486923 -0.85839,-0.263656 -1.03097,-0.324119 -1.32386,-0.463781 -0.58879,-0.280765 -0.87799,-0.492768 -0.87799,-0.643636 0,-0.09773 0.073,-0.186763 0.15444,-0.188252 0.14513,-0.0025 0.5183,-0.06407 0.59202,-0.09744 0.10801,-0.04889 0.17221,-0.187799 0.19998,-0.432752 0.0358,-0.315553 -8.7e-4,-0.471789 -0.15312,-0.634793 -0.0718,-0.07746 -0.13977,-0.136802 -0.1509,-0.131883 -0.0116,0.0051 -0.0827,0.07678 -0.15882,0.159667 l -0.13858,0.150714 0.0514,0.127749 c 0.0455,0.112932 0.0458,0.127753 0.003,0.127753 -0.0632,0 -0.11109,-0.128549 -0.11109,-0.298163 0,-0.156529 0.0644,-0.228304 0.43243,-0.482172 0.12332,-0.08507 0.3441,-0.252189 0.4906,-0.371392 0.14651,-0.1192027 0.28775,-0.2167277 0.3139,-0.2167277 0.0261,0 0.0892,0.02142 0.14015,0.04761 0.051,0.0262 0.19733,0.06234 0.32531,0.08038 0.29437,0.0415 0.43804,0.12498 0.71261,0.41416 0.29625,0.312014 0.42202,0.519416 0.53534,0.882838 0.053,0.170214 0.13219,0.423026 0.17582,0.5618 0.0436,0.13878 0.15753,0.418039 0.25311,0.620581 0.0957,0.202539 0.2256,0.511467 0.28894,0.686504 0.0633,0.175037 0.18512,0.468614 0.27067,0.652402 0.0855,0.183788 0.23684,0.591942 0.3362,0.907001 0.46812,1.484639 0.84717,2.428718 1.60422,3.995541 0.22988,0.475753 0.3613,0.805224 0.55856,1.400282 0.14187,0.42798 0.27328,0.884912 0.29201,1.015402 0.0187,0.130496 0.0689,0.37055 0.11148,0.533463 0.13799,0.527632 0.11521,0.587713 -0.41646,1.101608 -0.38893,0.375882 -0.60143,0.514049 -0.8577,0.557662 -0.29456,0.05012 -0.9883,0.06823 -1.33905,0.03492 z"
       id="path1675" />
    <path
       style="display:inline;fill:#ffdf00;fill-opacity:0.74902;stroke:#000000;stroke-width:0.031928;stroke-opacity:1"
       d="m 108.74144,23.386644 c -0.16736,-0.01587 -0.56924,-0.09444 -0.89307,-0.17458 -0.3238,-0.08014 -0.74752,-0.174102 -0.94158,-0.208818 -0.83452,-0.149298 -1.15739,-0.36298 -1.47366,-0.975305 -0.37616,-0.72826 -0.44991,-1.277185 -0.23416,-1.742723 0.10093,-0.217848 0.34367,-0.529399 0.49029,-0.629354 0.11636,-0.07931 0.13443,-0.08194 0.44276,-0.06452 0.28139,0.01587 0.33711,0.01017 0.44695,-0.04581 0.1241,-0.06322 0.12757,-0.06326 0.30113,-0.0041 0.0965,0.03302 0.27743,0.06781 0.40188,0.07729 0.43411,0.03312 0.42735,0.0303 0.47823,0.200515 0.0476,0.159292 0.17746,0.423549 0.25821,0.525481 0.0578,0.07307 0.14645,0.04684 0.14645,-0.04339 0,-0.0359 -0.0363,-0.168283 -0.0804,-0.294224 -0.0442,-0.125935 -0.10195,-0.394188 -0.12808,-0.596111 -0.0625,-0.480894 -0.0767,-0.542172 -0.12641,-0.542172 -0.0229,0 -0.0586,0.06657 -0.0792,0.147932 -0.0206,0.08136 -0.0481,0.135061 -0.0613,0.119342 -0.013,-0.01572 -0.1066,-0.138273 -0.2077,-0.272327 -0.10119,-0.134055 -0.23414,-0.281775 -0.29549,-0.328268 -0.12229,-0.0927 -0.26662,-0.350177 -0.347,-0.619236 -0.0577,-0.192992 -0.0679,-0.384073 -0.0206,-0.384073 0.0468,0 0.4772,0.546342 0.72064,0.914956 0.11855,0.179412 0.22796,0.326204 0.24328,0.326204 0.0906,0 0.11006,-0.157874 0.10826,-0.875175 -0.003,-1.124494 -0.088,-1.70866 -0.37077,-2.54597 -0.0886,-0.262553 -0.21711,-0.688315 -0.28546,-0.946144 -0.0684,-0.257829 -0.15564,-0.541211 -0.19397,-0.629739 -0.10285,-0.237451 -0.29313,-0.388473 -0.61363,-0.486923 -0.85839,-0.263656 -1.03097,-0.324119 -1.32386,-0.463781 -0.58879,-0.280765 -0.87799,-0.492768 -0.87799,-0.643636 0,-0.09773 0.073,-0.186763 0.15444,-0.188252 0.14513,-0.0025 0.5183,-0.06407 0.59202,-0.09744 0.10801,-0.04889 0.17221,-0.187799 0.19998,-0.432752 0.0358,-0.315553 -8.7e-4,-0.471789 -0.15312,-0.634793 -0.0718,-0.07746 -0.13977,-0.136802 -0.1509,-0.131883 -0.0116,0.0051 -0.0827,0.07678 -0.15882,0.159667 l -0.13858,0.150714 0.0514,0.127749 c 0.0455,0.112932 0.0458,0.127753 0.003,0.127753 -0.0632,0 -0.11109,-0.128549 -0.11109,-0.298163 0,-0.156529 0.0644,-0.228304 0.43243,-0.482172 0.12332,-0.08507 0.3441,-0.252189 0.4906,-0.371392 0.14651,-0.1192027 0.28775,-0.2167277 0.3139,-0.2167277 0.0261,0 0.0892,0.02142 0.14015,0.04761 0.051,0.0262 0.19733,0.06234 0.32531,0.08038 0.29437,0.0415 0.43804,0.12498 0.71261,0.41416 0.29625,0.312014 0.42202,0.519416 0.53534,0.882838 0.053,0.170214 0.13219,0.423026 0.17582,0.5618 0.0436,0.13878 0.15753,0.418039 0.25311,0.620581 0.0957,0.202539 0.2256,0.511467 0.28894,0.686504 0.0633,0.175037 0.18512,0.468614 0.27067,0.652402 0.0855,0.183788 0.23684,0.591942 0.3362,0.907001 0.46812,1.484639 0.84717,2.428718 1.60422,3.995541 0.22988,0.475753 0.3613,0.805224 0.55856,1.400282 0.14187,0.42798 0.27328,0.884912 0.29201,1.015402 0.0187,0.130496 0.0689,0.37055 0.11148,0.533463 0.13799,0.527632 0.11521,0.587713 -0.41646,1.101608 -0.38893,0.375882 -0.60143,0.514049 -0.8577,0.557662 -0.29456,0.05012 -0.9883,0.06823 -1.33905,0.03492 z"
       id="path1677" />
    <path
       style="display:inline;fill:#ffdf00;fill-opacity:0.74902;stroke:#000000;stroke-width:0.031928;stroke-opacity:1"
       d="m 108.74144,23.386644 c -0.16736,-0.01587 -0.56924,-0.09444 -0.89307,-0.17458 -0.3238,-0.08014 -0.74752,-0.174102 -0.94158,-0.208818 -0.83452,-0.149298 -1.15739,-0.36298 -1.47366,-0.975305 -0.37616,-0.72826 -0.44991,-1.277185 -0.23416,-1.742723 0.10093,-0.217848 0.34367,-0.529399 0.49029,-0.629354 0.11636,-0.07931 0.13443,-0.08194 0.44276,-0.06452 0.28139,0.01587 0.33711,0.01017 0.44695,-0.04581 0.1241,-0.06322 0.12757,-0.06326 0.30113,-0.0041 0.0965,0.03302 0.27743,0.06781 0.40188,0.07729 0.43411,0.03312 0.42735,0.0303 0.47823,0.200515 0.0476,0.159292 0.17746,0.423549 0.25821,0.525481 0.0578,0.07307 0.14645,0.04684 0.14645,-0.04339 0,-0.0359 -0.0363,-0.168283 -0.0804,-0.294224 -0.0442,-0.125935 -0.10195,-0.394188 -0.12808,-0.596111 -0.0625,-0.480894 -0.0767,-0.542172 -0.12641,-0.542172 -0.0229,0 -0.0586,0.06657 -0.0792,0.147932 -0.0206,0.08136 -0.0481,0.135061 -0.0613,0.119342 -0.013,-0.01572 -0.1066,-0.138273 -0.2077,-0.272327 -0.10119,-0.134055 -0.23414,-0.281775 -0.29549,-0.328268 -0.12229,-0.0927 -0.26662,-0.350177 -0.347,-0.619236 -0.0577,-0.192992 -0.0679,-0.384073 -0.0206,-0.384073 0.0468,0 0.4772,0.546342 0.72064,0.914956 0.11855,0.179412 0.22796,0.326204 0.24328,0.326204 0.0906,0 0.11006,-0.157874 0.10826,-0.875175 -0.003,-1.124494 -0.088,-1.70866 -0.37077,-2.54597 -0.0886,-0.262553 -0.21711,-0.688315 -0.28546,-0.946144 -0.0684,-0.257829 -0.15564,-0.541211 -0.19397,-0.629739 -0.10285,-0.237451 -0.29313,-0.388473 -0.61363,-0.486923 -0.85839,-0.263656 -1.03097,-0.324119 -1.32386,-0.463781 -0.58879,-0.280765 -0.87799,-0.492768 -0.87799,-0.643636 0,-0.09773 0.073,-0.186763 0.15444,-0.188252 0.14513,-0.0025 0.5183,-0.06407 0.59202,-0.09744 0.10801,-0.04889 0.17221,-0.187799 0.19998,-0.432752 0.0358,-0.315553 -8.7e-4,-0.471789 -0.15312,-0.634793 -0.0718,-0.07746 -0.13977,-0.136802 -0.1509,-0.131883 -0.0116,0.0051 -0.0827,0.07678 -0.15882,0.159667 l -0.13858,0.150714 0.0514,0.127749 c 0.0455,0.112932 0.0458,0.127753 0.003,0.127753 -0.0632,0 -0.11109,-0.128549 -0.11109,-0.298163 0,-0.156529 0.0644,-0.228304 0.43243,-0.482172 0.12332,-0.08507 0.3441,-0.252189 0.4906,-0.371392 0.14651,-0.1192027 0.28775,-0.2167277 0.3139,-0.2167277 0.0261,0 0.0892,0.02142 0.14015,0.04761 0.051,0.0262 0.19733,0.06234 0.32531,0.08038 0.29437,0.0415 0.43804,0.12498 0.71261,0.41416 0.29625,0.312014 0.42202,0.519416 0.53534,0.882838 0.053,0.170214 0.13219,0.423026 0.17582,0.5618 0.0436,0.13878 0.15753,0.418039 0.25311,0.620581 0.0957,0.202539 0.2256,0.511467 0.28894,0.686504 0.0633,0.175037 0.18512,0.468614 0.27067,0.652402 0.0855,0.183788 0.23684,0.591942 0.3362,0.907001 0.46812,1.484639 0.84717,2.428718 1.60422,3.995541 0.22988,0.475753 0.3613,0.805224 0.55856,1.400282 0.14187,0.42798 0.27328,0.884912 0.29201,1.015402 0.0187,0.130496 0.0689,0.37055 0.11148,0.533463 0.13799,0.527632 0.11521,0.587713 -0.41646,1.101608 -0.38893,0.375882 -0.60143,0.514049 -0.8577,0.557662 -0.29456,0.05012 -0.9883,0.06823 -1.33905,0.03492 z"
       id="path1679" />
  </g>
</svg>
