<?xml version="1.0" encoding="UTF-8" standalone="no"?>
<svg
   xmlns:dc="http://purl.org/dc/elements/1.1/"
   xmlns:cc="http://creativecommons.org/ns#"
   xmlns:rdf="http://www.w3.org/1999/02/22-rdf-syntax-ns#"
   xmlns:svg="http://www.w3.org/2000/svg"
   xmlns="http://www.w3.org/2000/svg"
   xmlns:sodipodi="http://sodipodi.sourceforge.net/DTD/sodipodi-0.dtd"
   xmlns:inkscape="http://www.inkscape.org/namespaces/inkscape"
   width="26.565891mm"
   height="33.21508mm"
   viewBox="0 0 26.565891 33.21508"
   version="1.1"
   id="svg784"
   inkscape:version="1.0.1 (3bc2e813f5, 2020-09-07)"
   sodipodi:docname="bras.svg">
  <defs
     id="defs778" />
  <sodipodi:namedview
     id="base"
     pagecolor="#ffffff"
     bordercolor="#666666"
     borderopacity="1.0"
     inkscape:pageopacity="0.0"
     inkscape:pageshadow="2"
     inkscape:zoom="0.66449955"
     inkscape:cx="-236.66789"
     inkscape:cy="531.13964"
     inkscape:document-units="mm"
     inkscape:current-layer="layer1"
     inkscape:document-rotation="0"
     showgrid="false"
     inkscape:window-width="1920"
     inkscape:window-height="1017"
     inkscape:window-x="-8"
     inkscape:window-y="-8"
     inkscape:window-maximized="1"
     fit-margin-top="1"
     fit-margin-left="0"
     fit-margin-right="0"
     fit-margin-bottom="0" />
  <metadata
     id="metadata781">
    <rdf:RDF>
      <cc:Work
         rdf:about="">
        <dc:format>image/svg+xml</dc:format>
        <dc:type
           rdf:resource="http://purl.org/dc/dcmitype/StillImage" />
        <dc:title></dc:title>
      </cc:Work>
    </rdf:RDF>
  </metadata>
  <g
     inkscape:label="Calque 1"
     inkscape:groupmode="layer"
     id="layer1"
     transform="translate(-91.804121,-7.6359695)">
    <path
       style="display:inline;fill:#ffdf00;fill-opacity:0.74902;stroke:#000000;stroke-width:0.112152;stroke-opacity:1"
       d="m 101.46805,33.984398 c -0.0262,-0.0288 -0.41223,-0.1353 -0.85784,-0.2366 -0.976303,-0.22192 -2.283203,-0.8975 -2.679583,-1.38514 -0.45084,-0.55466 -0.72714,-1.61652 -0.72597,-2.79002 8e-4,-0.90226 0.0337,-1.06758 0.31643,-1.59486 0.17348,-0.32354 0.40789,-0.71633 0.52091,-0.87286 l 0.20549,-0.28461 1.10846,0.16261 c 0.60966,0.0894 1.346203,0.15108 1.636763,0.13701 l 0.52829,-0.0256 -0.27598,0.32408 c -0.15179,0.17824 -0.42806,0.62434 -0.61394,0.99133 l -0.33796,0.66725 0.15354,0.86222 c 0.17114,0.96101 0.54451,1.96142 0.76712,2.05543 0.0802,0.0338 0.37189,0.42913 0.64829,0.87841 0.27641,0.44927 0.54407,0.8451 0.59482,0.87962 0.23378,0.159 0.0468,0.28417 -0.42446,0.28417 -0.28421,0 -0.53818,-0.0236 -0.56438,-0.0524 z m -1.3342,-5.18306 c 0.13414,-0.22529 0.14202,-0.29413 0.0337,-0.29413 -0.180903,0 -0.398033,0.23746 -0.398033,0.43531 0,0.24494 0.17478,0.17722 0.364353,-0.14118 z"
       id="path104" />
    <path
       style="fill:#ffdf00;fill-opacity:0.74902;stroke:#000000;stroke-width:0.112152;stroke-opacity:1"
       d="m 99.642537,25.956158 c 0.0772,-0.034 0.16939,-0.0298 0.20491,0.009 0.0355,0.0391 -0.0276,0.0669 -0.14032,0.0618 -0.12454,-0.006 -0.14987,-0.0335 -0.0646,-0.0711 z"
       id="path106" />
    <path
       style="display:inline;fill:#ffdf00;fill-opacity:0.74902;stroke:#000000;stroke-width:0.112152;stroke-opacity:1"
       d="m 111.0485,35.227418 c -0.1176,-0.0558 -0.57464,-0.16751 -1.01564,-0.2483 -0.44101,-0.0808 -0.92422,-0.21567 -1.07381,-0.29977 -0.14959,-0.0841 -0.63068,-0.18961 -1.0691,-0.23448 -1.44029,-0.14742 -2.08907,-0.64824 -2.71432,-2.09534 -0.73819,-1.70847 -0.75848,-2.88902 -0.0656,-3.81413 0.17911,-0.23911 0.32565,-0.49408 0.32565,-0.56658 0,-0.0725 0.18235,-0.21065 0.40522,-0.30699 0.33788,-0.14606 0.42741,-0.14903 0.53876,-0.0178 0.27345,0.32213 1.08418,0.10802 1.09056,-0.28801 0.003,-0.18524 0.0116,-0.18588 0.10615,-0.008 0.12684,0.23906 1.04856,0.49492 1.5506,0.43042 0.34872,-0.0448 0.37128,-0.0269 0.37128,0.29503 0,0.35259 0.3988,1.25715 0.55424,1.25715 0.11628,0 0.11223,-0.43971 -0.005,-0.5193 -0.19585,-0.13321 -0.46264,-1.51147 -0.39237,-2.0271 0.0893,-0.65564 -0.11114,-0.68935 -0.21152,-0.0356 l -0.0732,0.47698 -0.21439,-0.44757 c -0.25948,-0.54167 -0.69439,-1.06737 -0.9597,-1.16004 -0.10724,-0.0375 -0.19499,-0.17229 -0.19499,-0.29962 0,-0.12733 -0.0737,-0.35532 -0.1638,-0.50662 -0.15692,-0.26355 -0.35288,-1.48139 -0.23837,-1.48139 0.0304,0 0.28016,0.30443 0.55505,0.6765 0.27489,0.37207 0.57415,0.77579 0.66501,0.89716 0.0909,0.12137 0.2778,0.46512 0.41542,0.76388 0.32405,0.70348 0.3945,0.51708 0.40796,-1.07942 0.019,-2.24816 -0.32742,-4.44845 -0.87875,-5.58212 -0.063,-0.12959 -0.21438,-0.75829 -0.33636,-1.39711 -0.12198,-0.63882 -0.2795,-1.28803 -0.35005,-1.44269 -0.15853,-0.34753 -0.84837,-0.68249 -1.83699,-0.89197 -1.20264,-0.25483 -3.15698,-1.45639 -3.15698,-1.94096 0,-0.4778 0.0859,-0.53449 0.74756,-0.4933 0.86386,0.0538 0.98048,-0.0849 1.00083,-1.1905 0.0109,-0.59402 -0.0231,-0.84904 -0.11341,-0.84916 -0.071,-9e-5 -0.20174,-0.10607 -0.2906,-0.23548 -0.15967,-0.23254 -0.16161,-0.23219 -0.16497,0.0294 -0.002,0.18503 -0.0678,0.26471 -0.21722,0.26471 -0.25843,0 -0.2691,0.0907 -0.043,0.36569 0.22526,0.27391 0.10475,0.50252 -0.17732,0.3364 -0.22877,-0.13474 -0.2812,-0.68331 -0.10077,-1.05434 0.0586,-0.12051 0.32508,-0.33921 0.59215,-0.486 0.26707,-0.1467795 0.72749,-0.5261795 1.02315,-0.8430995 0.51948,-0.55685 0.54456,-0.56927 0.7454,-0.36925 0.13243,0.13189 0.3925,0.21096 0.71677,0.21793 0.46711,0.0101 0.55926,0.0646 1.12138,0.66376 0.33685,0.3590395 0.61245,0.7129795 0.61245,0.7865295 0,0.0736 0.0893,0.20292 0.19851,0.28747 0.1319,0.10215 0.24122,0.42435 0.32582,0.96027 0.16072,1.01823 0.40632,1.83192 0.64434,2.13475 0.2389,0.30397 0.6488,1.4235 0.6488,1.77206 0,0.14852 0.0783,0.35615 0.1739,0.46141 0.19508,0.21468 0.77892,1.77123 0.78461,2.09179 0.004,0.22973 0.6048,2.25299 0.96889,3.26326 0.12826,0.35589 0.30405,0.85885 0.39064,1.11769 0.0866,0.25883 0.22213,0.55002 0.3012,0.64708 0.0791,0.0971 0.17857,0.3353 0.22113,0.52943 0.0836,0.38116 1.07099,2.71054 1.27176,3.00011 0.15272,0.22029 0.55491,1.56111 0.64047,2.1352 0.0352,0.23609 0.1517,0.55375 0.25895,0.70591 0.12817,0.18186 0.21677,0.57038 0.25857,1.1339 0.035,0.47148 0.1384,1.02228 0.22984,1.22399 0.32143,0.70905 0.23077,1.01844 -0.56491,1.92793 -1.01458,1.15968 -1.48152,1.3894 -2.90376,1.42856 -0.61741,0.017 -1.21878,-0.0147 -1.33638,-0.0705 z"
       id="path108" />
    <path
       style="display:inline;fill:#ffdf00;fill-opacity:0.74902;stroke:#000000;stroke-width:0.112152;stroke-opacity:1"
       d="m 103.98517,27.770748 c -1.01385,-0.88869 -1.54292,-1.43602 -1.54292,-1.59615 0,-0.094 -0.0753,-0.23157 -0.16742,-0.30567 -0.0921,-0.0741 -0.18475,-0.31817 -0.20594,-0.5424 -0.0212,-0.22423 -0.0973,-0.73033 -0.16909,-1.12467 -0.17418,-0.95657 -0.0882,-1.28845 0.38241,-1.47572 0.20562,-0.0818 0.37386,-0.1867 0.37386,-0.23305 0,-0.0464 0.22852,-0.17927 0.50782,-0.29535 0.2793,-0.11609 0.6281,-0.27897 0.7751,-0.36196 0.34497,-0.19477 2.0037,-0.19357 2.32302,0.002 0.13105,0.0801 0.42344,0.33879 0.64975,0.57479 0.36505,0.38067 0.41286,0.49555 0.42368,1.01799 0.0109,0.52728 0.13969,1.24487 0.31219,1.73955 0.051,0.14627 -0.006,0.16333 -0.32665,0.0972 -0.2988,-0.0617 -0.38852,-0.0416 -0.38852,0.0871 0,0.10259 0.20998,0.22655 0.54279,0.32041 0.63729,0.17975 1.42041,0.93702 1.51154,1.46167 l 0.0581,0.33462 -0.48994,-0.0808 c -0.81319,-0.1342 -1.29863,-0.60496 -1.71913,-1.66713 -0.4022,-1.01596 -0.64854,-1.93043 -0.65048,-2.41476 -10e-4,-0.2861 -0.16506,-0.54241 -0.27177,-0.42498 -0.0791,0.087 0.35222,2.17031 0.52575,2.53961 0.0948,0.20175 0.17238,0.44149 0.17238,0.53274 0,0.0913 0.11058,0.34535 0.24573,0.56468 0.40045,0.64988 0.42266,0.79865 0.13125,0.87914 -0.25045,0.0692 -0.79367,-0.24187 -0.80126,-0.45879 -0.002,-0.0529 -0.11804,-0.26462 -0.25822,-0.4706 -0.14018,-0.20599 -0.28637,-0.48886 -0.32487,-0.62861 -0.0385,-0.13975 -0.1403,-0.3183 -0.22623,-0.39677 -0.0859,-0.0785 -0.15622,-0.24697 -0.15622,-0.37444 0,-0.12746 -0.0962,-0.36636 -0.21382,-0.53089 -0.11761,-0.16453 -0.21382,-0.45083 -0.21382,-0.63623 0,-0.18539 -0.0481,-0.33709 -0.10691,-0.33709 -0.16638,0 -0.12594,0.59272 0.0803,1.17652 0.2129,0.60275 0.83191,1.83472 1.08418,2.15776 0.15528,0.19884 0.15225,0.23006 -0.037,0.38237 -0.32014,0.25761 -0.64586,0.20244 -0.81113,-0.13739 -0.0811,-0.16678 -0.23673,-0.3558 -0.34582,-0.42005 -0.10909,-0.0643 -0.28528,-0.34001 -0.39153,-0.61279 -0.22429,-0.57582 -1.02146,-1.53832 -1.18306,-1.42841 -0.0643,0.0437 0.0455,0.25597 0.26345,0.50902 0.20555,0.23871 0.50064,0.71429 0.65575,1.05683 0.15511,0.34254 0.39215,0.70221 0.52674,0.79926 0.41403,0.29854 0.46274,1.10672 0.0665,1.10415 -0.0966,-4.5e-4 -0.37137,-0.1727 -0.61057,-0.38237 z"
       id="path110" />
    <path
       style="fill:#ffdf00;fill-opacity:0.74902;stroke:#000000;stroke-width:0.112152;stroke-opacity:1"
       d="m 99.047857,26.073078 c 0.1029,-0.0296 0.27128,-0.0296 0.37418,0 0.1029,0.0296 0.0187,0.0538 -0.18709,0.0538 -0.2058,0 -0.28999,-0.0242 -0.18709,-0.0538 z"
       id="path112" />
    <path
       style="fill:#ffdf00;fill-opacity:0.74902;stroke:#000000;stroke-width:0.112152;stroke-opacity:1"
       d="m 98.627357,25.780288 c -0.18717,-0.0694 -0.47279,-0.27842 -0.63473,-0.46443 l -0.29442,-0.33819 h 2.07172 c 1.844553,0 2.048973,0.0189 1.864203,0.17273 -0.11414,0.095 -0.28583,0.17442 -0.38153,0.17648 -0.0957,0.002 -0.22888,0.0765 -0.29596,0.16546 -0.0671,0.0889 -0.3496,0.19191 -0.62782,0.22882 -0.27823,0.0369 -0.698313,0.0937 -0.933513,0.12624 -0.2352,0.0325 -0.58078,0.002 -0.76795,-0.0671 z"
       id="path118" />
    <path
       style="fill:#191970;fill-opacity:1;stroke-width:0.112152"
       d="m 114.52307,40.395868 c -1.225,-0.4459 -1.83359,-0.73314 -2.1382,-1.00921 -0.0882,-0.0799 -0.28063,-0.18434 -0.42764,-0.23199 -0.65161,-0.21128 -0.80798,-0.80401 -0.48109,-1.8236 0.20362,-0.6351 0.20419,-1.17294 0.002,-1.49124 l -0.15875,-0.24944 1.30804,-0.0433 c 1.29449,-0.0428 1.31425,-0.0477 1.90766,-0.47056 0.32979,-0.235 0.71294,-0.60478 0.85142,-0.82173 0.13848,-0.21696 0.29231,-0.4131 0.34183,-0.43588 0.0495,-0.0228 0.18048,-0.14824 0.291,-0.27879 0.20058,-0.23693 0.20184,-0.23657 0.68127,0.19577 0.56601,0.51039 0.90986,0.9864 1.34982,1.86861 0.29992,0.6014 0.32164,0.72803 0.31945,1.86241 -0.002,0.95734 -0.0475,1.32659 -0.21382,1.72999 -0.11631,0.28207 -0.21147,0.56359 -0.21147,0.62558 0,0.062 -0.15636,0.31997 -0.34746,0.57329 -0.34478,0.45702 -0.35322,0.46052 -1.09583,0.45408 -0.56865,-0.005 -1.0436,-0.11395 -1.97782,-0.454 z"
       id="path124" />
    <path
       style="display:inline;fill:#ffdf00;fill-opacity:0.74902;stroke:#000000;stroke-width:0.112152;stroke-opacity:1"
       d="m 100.57132,33.679888 c -0.4116,-0.11993 -1.156363,-0.44605 -1.655013,-0.7247 -0.85508,-0.47784 -0.92489,-0.54607 -1.22732,-1.19963 -0.28134,-0.60798 -0.32566,-0.84119 -0.36132,-1.90151 -0.038,-1.1293 -0.022,-1.24616 0.24309,-1.78225 0.15606,-0.31554 0.38987,-0.70969 0.5196,-0.8759 l 0.23585,-0.30219 1.46525,0.17828 1.465253,0.17828 -0.19665,0.30493 c -0.10816,0.16771 -0.34367,0.5798 -0.52335,0.91576 l -0.32669,0.61082 0.20551,0.94694 c 0.26049,1.2002 0.42453,1.61704 0.82876,2.10606 0.17829,0.21568 0.52384,0.7054 0.76789,1.08827 l 0.44372,0.69613 -0.5681,-0.0106 c -0.31246,-0.006 -0.90487,-0.10874 -1.31648,-0.22867 z m -0.4161,-4.79031 c 0.20679,-0.29977 0.1804,-0.40367 -0.0917,-0.36114 -0.154593,0.0241 -0.252753,0.13219 -0.274713,0.30231 -0.0408,0.31618 0.16601,0.34938 0.366433,0.0588 z"
       id="path1041" />
    <path
       style="display:inline;fill:#ffdf00;fill-opacity:0.74902;stroke:#000000;stroke-width:0.112152;stroke-opacity:1"
       d="m 110.24668,34.989068 c -0.44101,-0.11406 -0.97021,-0.26734 -1.17601,-0.34062 -0.20581,-0.0733 -0.71095,-0.18857 -1.12256,-0.2562 -1.45205,-0.2386 -2.07816,-0.70305 -2.65422,-1.96891 -0.76468,-1.68034 -0.79846,-2.77268 -0.11942,-3.86203 0.42316,-0.67886 0.96528,-1.08344 1.16465,-0.86917 0.16018,0.17217 0.82558,0.12729 1.02264,-0.069 0.15973,-0.15907 0.22031,-0.15907 0.56627,0 0.21307,0.098 0.62858,0.17813 0.92334,0.17813 0.49897,0 0.54006,0.0223 0.59547,0.32354 0.0838,0.45521 0.40036,1.1223 0.55929,1.17838 0.18878,0.0666 0.16803,-0.38155 -0.0379,-0.81992 -0.0944,-0.20084 -0.19747,-0.78059 -0.22909,-1.28832 -0.0591,-0.94846 -0.19621,-1.19775 -0.3111,-0.56556 l -0.065,0.35758 -0.3663,-0.59858 c -0.20147,-0.32922 -0.47915,-0.65516 -0.61706,-0.72431 -0.27516,-0.13796 -0.74071,-1.4283 -0.67923,-1.8826 0.0278,-0.20544 0.14556,-0.096 0.65498,0.60889 0.3416,0.47265 0.71543,1.06285 0.83073,1.31157 0.1153,0.24872 0.25382,0.45221 0.30782,0.45221 0.31079,0 0.25068,-3.28208 -0.094,-5.13176 -0.10995,-0.59004 -0.29986,-1.32146 -0.42202,-1.62538 -0.12217,-0.30392 -0.35039,-1.14293 -0.50717,-1.86446 -0.35889,-1.65179 -0.49929,-1.82699 -1.7521,-2.18639 -1.17919,-0.33829 -2.10129,-0.76078 -2.89941,-1.32846 -0.55749,-0.39652 -0.63797,-0.49938 -0.60879,-0.77813 0.032,-0.30581 0.0668,-0.32401 0.726,-0.38002 0.60472,-0.0514 0.7094,-0.0961 0.82697,-0.35296 0.074,-0.16177 0.13532,-0.57924 0.13619,-0.92772 0.001,-0.52605 -0.0438,-0.67988 -0.26583,-0.90631 l -0.2674,-0.27272 -0.28111,0.30936 c -0.23826,0.26219 -0.26155,0.34381 -0.15283,0.5354 0.13753,0.24235 0.0664,0.4363 -0.0932,0.25411 -0.10786,-0.12312 -0.14546,-0.33788 -0.12673,-0.72386 0.009,-0.18227 0.19827,-0.39108 0.62739,-0.69159 0.33811,-0.2367695 0.81653,-0.6338495 1.06318,-0.8824095 0.43216,-0.43552 0.45932,-0.44567 0.74836,-0.27976 0.16497,0.0947 0.46938,0.17249 0.67649,0.17289 0.45942,9e-4 1.0018,0.4607 1.60722,1.3625495 0.32342,0.48179 0.47231,0.86799 0.6403,1.66084 0.12039,0.56819 0.3801,1.35146 0.57714,1.7406 0.19704,0.38914 0.43577,0.99871 0.53051,1.3546 0.0947,0.3559 0.31231,0.93828 0.48349,1.29417 0.17118,0.3559 0.43949,1.15004 0.59623,1.76477 0.35472,1.39117 1.15053,3.82847 1.55579,4.76488 0.16802,0.38825 0.47921,1.15593 0.69153,1.70595 0.21232,0.55002 0.54894,1.32833 0.74803,1.72958 0.19911,0.40125 0.50478,1.24834 0.67929,1.88242 0.1745,0.63409 0.39109,1.36465 0.48131,1.62349 0.0902,0.25883 0.16614,0.63795 0.16872,0.84249 0.002,0.20453 0.0941,0.68807 0.20341,1.07453 0.16579,0.58622 0.177,0.75854 0.0676,1.03993 -0.16102,0.41423 -1.36092,1.69206 -1.87046,1.99195 -0.53509,0.31492 -2.62976,0.34981 -3.74137,0.0623 z"
       id="path1045" />
    <path
       style="display:inline;fill:#ffdf00;fill-opacity:0.74902;stroke:#000000;stroke-width:0.112152;stroke-opacity:1"
       d="m 103.49028,27.221728 c -0.48822,-0.44819 -0.97882,-0.98551 -1.09022,-1.19405 -0.21803,-0.40816 -0.49203,-1.78474 -0.49224,-2.473 -1.1e-4,-0.39429 0.24742,-0.81239 0.48097,-0.81239 0.0495,0 0.16603,-0.0703 0.25886,-0.15614 0.0928,-0.0859 0.47264,-0.29766 0.84401,-0.47061 0.56957,-0.26525 0.83127,-0.31446 1.67227,-0.31446 h 0.99704 l 0.52065,0.51514 c 0.51167,0.50626 0.52279,0.53215 0.64431,1.50006 0.068,0.5417 0.15678,1.07756 0.19726,1.1908 0.0605,0.16929 0.0146,0.20589 -0.25856,0.20589 -0.54594,0 -0.38753,0.31706 0.28228,0.56496 0.47301,0.17506 1.0761,0.6983 1.26278,1.09557 0.20438,0.43493 0.19869,0.4572 -0.11664,0.4572 -0.43384,0 -0.93644,-0.28574 -1.29659,-0.73714 -0.38689,-0.48492 -0.9665,-2.05485 -1.12559,-3.04879 -0.0719,-0.44923 -0.16086,-0.68483 -0.25856,-0.68483 -0.18865,0 -0.1856,0.22359 0.016,1.17652 0.22829,1.07896 0.55486,2.09429 0.85814,2.6681 0.1429,0.27036 0.25981,0.52184 0.25981,0.55885 0,0.12684 -0.4936,0.0674 -0.66208,-0.0798 -0.25953,-0.22664 -1.20877,-2.06072 -1.49095,-2.88073 -0.13885,-0.40348 -0.28853,-0.73437 -0.33263,-0.73532 -0.0441,-9.1e-4 -0.0801,0.19681 -0.0801,0.43947 8e-5,0.46694 0.43612,1.59289 0.97792,2.52528 0.34403,0.59204 0.33011,0.79837 -0.0539,0.79837 -0.27648,0 -0.92059,-0.69262 -1.18868,-1.27821 -0.23211,-0.50698 -1.00106,-1.42777 -1.19234,-1.42777 -0.22111,0 -0.18821,0.0835 0.33435,0.84848 0.2646,0.38736 0.48109,0.74878 0.48109,0.80314 0,0.0544 0.19244,0.34352 0.42764,0.64258 0.47118,0.5991 0.57302,1.11769 0.21948,1.11769 -0.11448,0 -0.60761,-0.3667 -1.09583,-0.81488 z"
       id="path1051" />
    <path
       style="display:inline;fill:#191964;fill-opacity:1;stroke:#000000;stroke-width:0.112152;stroke-opacity:1"
       d="m 109.75647,40.266848 c -0.17915,-0.19715 -0.72771,-0.71335 -1.21901,-1.1471 -0.49131,-0.43376 -0.9796,-0.92101 -1.08509,-1.08278 -0.11345,-0.17397 -0.2345,-0.67958 -0.29632,-1.23768 -0.13617,-1.22946 -0.17097,-1.31135 -0.63395,-1.49202 -0.51871,-0.20241 -3.18064,-0.18789 -4.93513,0.0269 -0.73501,0.09 -1.985853,0.16193 -2.779663,0.15987 -3.27944,-0.009 -5.02856,-0.99954 -5.87843,-3.3306 -0.73996,-2.0296 -0.73258,-2.71872 0.0474,-4.42336 0.26706,-0.58368 0.48556,-1.09987 0.48556,-1.14709 0,-0.19301 -0.29797,-0.0656 -0.5558,0.23768 -0.55975,0.65838 -0.80771,1.4312 -0.93428,2.91187 -0.0631,0.73854 -0.0843,0.39652 -0.0984,-1.5883 -0.0138,-1.94972 0.0218,-2.73175 0.15528,-3.41189 0.29743,-1.51521 0.24325,-1.45192 1.16185,-1.35719 0.46568,0.048 1.12783,0.0254 1.60948,-0.0549 0.45006,-0.0751 0.83964,-0.11302 0.86571,-0.0843 0.0261,0.0287 -0.45782,0.46291 -1.07532,0.96491 -1.11638,0.90757 -1.66308,1.52448 -1.66308,1.87666 0,0.27916 0.11564,0.22885 0.69688,-0.30315 0.29292,-0.26811 1.15801,-1.00203 1.92242,-1.63092 l 1.38982,-1.14344 1.12256,0.1407 c 1.17299,0.14702 1.55422,0.30257 2.323933,0.94824 l 0.453,0.38 -1.361743,0.0799 c -1.87742,0.1101 -2.05665,0.15095 -2.05665,0.46878 0,0.29926 0.42449,0.77351 0.95781,1.07009 0.47346,0.26329 1.799253,0.17904 2.720593,-0.17288 0.34731,-0.13266 0.64799,-0.24121 0.66819,-0.24121 0.12983,0 -10e-4,0.51216 -0.18167,0.71094 -0.20332,0.22375 -0.33791,0.23919 -1.951113,0.2238 l -1.73272,-0.0165 -0.34816,0.5549 c -0.52046,0.82952 -0.70624,1.66784 -0.63678,2.8735 0.13321,2.31218 0.84825,3.21197 3.143733,3.956 1.20077,0.3892 3.09265,0.53929 3.19239,0.25327 0.0411,-0.1179 -0.0943,-0.36348 -0.37749,-0.68459 -1.01004,-1.14535 -2.14057,-3.36886 -2.14057,-4.21006 0,-0.33053 0.81266,-1.73089 1.25916,-2.16977 0.21115,-0.20754 0.21997,-0.20754 0.27259,0 0.0299,0.11797 0.0846,0.53214 0.12144,0.9204 0.18192,1.91503 0.5354,3.35306 0.82421,3.35306 0.15017,0 0.0495,-2.54829 -0.12691,-3.21301 -0.0654,-0.24652 -0.10387,-0.49764 -0.0854,-0.55805 0.0184,-0.0604 0.32217,0.10141 0.67497,0.35959 0.3528,0.25819 0.7016,0.4696 0.7751,0.46981 0.173,4.6e-4 0.16871,0.0551 -0.0391,0.49742 -0.29722,0.63251 -0.16106,2.07187 0.298,3.15015 0.46803,1.09933 1.14255,2.04441 1.67083,2.341 0.22201,0.12464 1.05582,0.36361 1.85292,0.53105 1.45937,0.30656 2.59528,0.65825 2.77897,0.8604 0.1359,0.14956 0.14795,0.61495 0.0472,1.82459 l -0.0855,1.02747 0.3616,0.38435 c 0.19888,0.21139 0.50519,0.49842 0.68068,0.63783 0.28431,0.22586 0.30161,0.27303 0.15872,0.43292 -0.13101,0.14659 -1.4254,0.43129 -1.9609,0.43129 -0.0704,0 -0.27454,-0.16131 -0.45368,-0.35845 z"
       id="path1057" />
    <path
       style="display:inline;fill:#191964;fill-opacity:1;stroke:#000000;stroke-width:0.112152;stroke-opacity:1"
       d="m 109.69064,40.186958 c -0.25278,-0.24961 -0.85356,-0.81453 -1.33505,-1.25537 -0.95449,-0.87391 -1.04758,-1.05489 -1.21654,-2.36526 -0.12872,-0.99828 -0.2935,-1.20662 -1.06803,-1.35031 -0.64871,-0.12035 -3.00524,-0.0607 -4.51452,0.11432 -1.49358,0.17317 -3.994633,0.14475 -4.949253,-0.0563 -1.65742,-0.34898 -2.81249,-1.22334 -3.44792,-2.61 -0.4255,-0.92854 -0.76662,-2.18605 -0.76662,-2.82609 0,-0.54254 0.42999,-1.88446 0.84238,-2.62891 0.40269,-0.72692 0.1825,-0.98013 -0.32908,-0.37841 -0.40864,0.48065 -0.63658,1.03915 -0.8523,2.08831 l -0.19352,0.94121 0.0453,-2.41185 c 0.0445,-2.36904 0.19836,-3.61165 0.4865,-3.92874 0.0718,-0.079 0.61042,-0.13452 1.36919,-0.14112 0.68796,-0.006 1.39032,-0.0534 1.56079,-0.1054 0.45281,-0.13807 0.2994,0.0571 -0.70874,0.90164 -1.06468,0.8919 -1.68595,1.5832 -1.68595,1.87599 0,0.3089 0.092,0.27929 0.64146,-0.20649 0.2646,-0.23393 1.13301,-0.96807 1.92978,-1.63143 l 1.44869,-1.20609 1.1006,0.15685 c 1.15756,0.16496 1.74617,0.40705 2.359263,0.97033 l 0.37027,0.3402 -1.434323,0.0873 c -2.00422,0.12199 -2.21881,0.24996 -1.65521,0.98707 0.59368,0.77643 1.97507,0.92971 3.408093,0.37817 0.75435,-0.29033 0.70491,-0.28604 0.70491,-0.0612 0,0.10001 -0.11809,0.31178 -0.26242,0.47061 -0.25668,0.28247 -0.29969,0.28878 -1.967763,0.28878 h -1.70534 l -0.33498,0.55654 c -0.51033,0.84786 -0.68684,1.66382 -0.61682,2.85144 0.13958,2.36758 0.94958,3.32628 3.404183,4.02907 0.99627,0.28525 2.87454,0.37271 2.94758,0.13725 0.0225,-0.0725 -0.23766,-0.48367 -0.57813,-0.91365 -0.72777,-0.91911 -1.56602,-2.46063 -1.82039,-3.34767 l -0.18018,-0.62833 0.31608,-0.64302 c 0.17384,-0.35367 0.51576,-0.89153 0.75982,-1.19526 l 0.44375,-0.55224 0.0591,0.41178 c 0.38675,2.69258 0.49173,3.29791 0.63756,3.6766 0.0934,0.24266 0.22782,0.4412 0.29859,0.4412 0.1482,0 0.0649,-2.42479 -0.11103,-3.23211 -0.056,-0.25702 -0.0833,-0.48775 -0.0606,-0.51273 0.0227,-0.025 0.32702,0.14559 0.67627,0.37906 0.34924,0.23347 0.68947,0.42449 0.75607,0.42449 0.0827,0 0.0698,0.13516 -0.0407,0.42615 -0.45946,1.21012 0.0506,3.28588 1.1864,4.82768 0.4867,0.66069 1.02081,0.91799 2.66092,1.28185 0.76441,0.16959 1.70254,0.42291 2.08475,0.56293 l 0.69491,0.2546 v 1.52083 1.52083 l 0.588,0.52905 c 0.32341,0.29097 0.58801,0.58371 0.58801,0.65054 0,0.15128 -0.66184,0.36632 -1.46477,0.47593 -0.59918,0.0818 -0.61725,0.0755 -1.0691,-0.37064 z"
       id="path1061" />
    <path
       style="display:inline;fill:#ffdf00;fill-opacity:0.74902;stroke:#000000;stroke-width:0.112152;stroke-opacity:1"
       d="m 110.03286,34.855358 c -0.44101,-0.12266 -1.2759,-0.33049 -1.85531,-0.46184 -0.57942,-0.13137 -1.25295,-0.33594 -1.49674,-0.45462 -0.91899,-0.44736 -1.7657,-2.01432 -1.86119,-3.44438 -0.0664,-0.9949 0.0824,-1.47912 0.67934,-2.20973 l 0.47674,-0.58352 0.56775,0.0645 c 0.34059,0.0387 0.66059,0.01 0.79975,-0.0721 0.16523,-0.0973 0.3472,-0.10275 0.63227,-0.0189 0.22016,0.0648 0.62552,0.14891 0.90081,0.187 0.43695,0.0605 0.50869,0.11018 0.56485,0.39153 0.0816,0.40911 0.44774,1.07752 0.59016,1.07752 0.15079,0 0.13281,-0.44105 -0.0408,-1.00003 -0.0804,-0.25884 -0.18001,-0.83088 -0.2214,-1.27121 -0.0768,-0.81679 -0.24504,-1.00019 -0.39084,-0.42602 -0.0399,0.15698 -0.0773,0.22457 -0.0831,0.15021 -0.006,-0.0744 -0.29065,-0.47521 -0.63287,-0.89078 -0.42328,-0.514 -0.66627,-0.9287 -0.75999,-1.29708 -0.23261,-0.91428 -0.0775,-0.8745 0.61192,0.15693 0.36382,0.54429 0.73244,1.0955 0.81915,1.22492 0.27085,0.40422 0.37539,-0.004 0.37684,-1.47064 0.002,-1.73234 -0.16606,-3.22433 -0.4961,-4.41193 -0.14386,-0.51767 -0.40291,-1.49711 -0.57567,-2.17655 -0.55583,-2.18603 -0.51189,-2.13532 -2.44354,-2.81982 -1.66501,-0.59 -2.82644,-1.31409 -2.87714,-1.79372 -0.0321,-0.30318 -0.01,-0.31743 0.61865,-0.39568 0.81767,-0.1018 0.96479,-0.29864 0.96479,-1.2908 0,-0.61299 -0.0389,-0.7583 -0.26616,-0.99321 -0.26305,-0.27196 -0.2688,-0.27254 -0.49371,-0.0499 -0.12516,0.12388 -0.26694,0.33113 -0.31507,0.46054 -0.0864,0.2323 -0.0876,0.23221 -0.0943,-0.007 -0.009,-0.3269 0.14739,-0.51987 0.90195,-1.1118195 0.3528,-0.27677 0.76496,-0.62863 0.9159,-0.7819 0.23018,-0.23374 0.325,-0.26094 0.588,-0.16871 0.17247,0.0605 0.49685,0.1435 0.72086,0.18451 0.84925,0.15544 1.72804,1.3704995 2.17158,3.0025295 0.14948,0.55003 0.43322,1.39712 0.63054,1.88243 0.78829,1.93881 1.25465,3.26724 1.90846,5.43632 0.63494,2.10644 1.74952,5.09257 2.58517,6.92604 0.51291,1.12534 1.0858,3.00888 1.4414,4.73896 0.28016,1.36307 0.29579,1.5446 0.15828,1.83724 -0.24732,0.52632 -1.63538,1.86752 -2.07038,2.00048 -0.65363,0.19979 -2.74903,0.13105 -3.65085,-0.11978 z"
       id="path1063" />
    <path
       style="display:inline;fill:#ffdf00;fill-opacity:0.74902;stroke:#000000;stroke-width:0.112152;stroke-opacity:1"
       d="m 100.58291,33.622468 c -0.28763,-0.0869 -0.975203,-0.39863 -1.527943,-0.6927 -1.00095,-0.53254 -1.00624,-0.53765 -1.3203,-1.2762 -0.27889,-0.65587 -0.31703,-0.87912 -0.33016,-1.93277 -0.0147,-1.17769 -0.0104,-1.19936 0.3795,-1.90563 0.21689,-0.39292 0.44049,-0.74578 0.49689,-0.78414 0.13408,-0.0912 2.583053,0.18687 2.704633,0.3071 0.0514,0.0508 -0.0809,0.3992 -0.294,0.77414 -0.21312,0.37494 -0.38748,0.6135 -0.38748,0.53014 0,-0.28617 -0.478483,-0.0967 -0.517223,0.20477 -0.0296,0.23038 0.002,0.27013 0.17574,0.22017 0.185043,-0.0532 0.228053,0.0296 0.339803,0.65472 0.21088,1.17953 0.49726,1.85683 1.22876,2.90603 0.38229,0.54832 0.69557,1.03666 0.69619,1.08519 0.002,0.14113 -1.07324,0.0818 -1.64441,-0.0908 z"
       id="path1067" />
    <path
       style="display:inline;fill:#ffdf00;fill-opacity:1;stroke:#000000;stroke-width:0.112152;stroke-opacity:1"
       d="m 108.81593,39.399498 c -0.69872,-0.66484 -1.33285,-1.33604 -1.40918,-1.49155 -0.0763,-0.15551 -0.17002,-0.54747 -0.20816,-0.87101 -0.21144,-1.79327 -0.28117,-1.84188 -2.63537,-1.83699 -0.93975,0.002 -2.30704,0.0655 -3.03843,0.14114 -1.777073,0.18387 -4.710363,0.0842 -5.497143,-0.18677 -1.82763,-0.62947 -2.68297,-1.60881 -3.38307,-3.87349 -0.41414,-1.33969 -0.3076,-2.19718 0.48871,-3.93315 0.18839,-0.41069 0.31453,-0.7775 0.28032,-0.81516 -0.1337,-0.14712 -0.66115,0.44079 -0.93744,1.0449 -0.15989,0.34961 -0.36366,1.00627 -0.4528,1.45922 -0.16027,0.81439 -0.1616,0.79669 -0.11948,-1.58829 0.0427,-2.4164 0.18349,-3.53646 0.49686,-3.95198 0.11441,-0.15171 0.26468,-0.17601 0.73605,-0.11904 0.32575,0.0394 0.99828,0.0197 1.49449,-0.0438 0.49621,-0.0635 0.92113,-0.0946 0.94427,-0.0691 0.0231,0.0255 -0.40861,0.44112 -0.95942,0.92369 -1.07812,0.94454 -1.68888,1.63574 -1.68888,1.91133 0,0.0948 0.0292,0.17239 0.0648,0.17239 0.0356,0 0.45661,-0.33627 0.93546,-0.74725 0.47886,-0.41099 1.35174,-1.14437 1.93975,-1.62974 l 1.06909,-0.88248 0.85528,0.10163 c 1.16831,0.13883 1.83035,0.37538 2.441933,0.87253 0.28465,0.23138 0.501,0.4389 0.48079,0.46115 -0.0202,0.0223 -0.60353,0.0782 -1.296243,0.12441 -2.12384,0.14159 -2.36268,0.29619 -1.63087,1.05573 0.6872,0.71323 1.7838,0.8096 3.291933,0.2893 0.36747,-0.12678 0.68016,-0.23119 0.69486,-0.23202 0.0147,-9.1e-4 0.0267,0.10052 0.0267,0.22525 0,0.12471 -0.12677,0.33649 -0.2817,0.4706 -0.25786,0.22322 -0.42394,0.24384 -1.963623,0.24384 h -1.68194 l -0.27499,0.45729 c -0.64298,1.06924 -0.83695,2.20884 -0.61485,3.61238 0.29732,1.87891 1.15487,2.73392 3.364823,3.35486 0.96714,0.27175 2.60539,0.4127 2.82871,0.24339 0.11539,-0.0875 -0.0178,-0.33558 -0.6196,-1.15428 -0.81431,-1.10777 -1.82662,-3.14426 -1.82493,-3.67124 10e-4,-0.39425 0.48557,-1.32932 1.04563,-2.01884 0.50241,-0.61855 0.41679,-0.80059 0.75446,1.6041 0.22477,1.60065 0.44676,2.39605 0.66874,2.39605 0.15129,0 0.0628,-2.30514 -0.1214,-3.1627 -0.0609,-0.28356 -0.0865,-0.5422 -0.0569,-0.57479 0.0296,-0.0326 0.34743,0.13324 0.70628,0.36849 0.35886,0.23524 0.6942,0.42771 0.74522,0.42771 0.051,0 0.017,0.24461 -0.0755,0.54358 -0.35116,1.13416 0.0214,2.8416 0.93155,4.26952 0.68351,1.07231 0.98609,1.24787 2.94641,1.70956 0.93626,0.22051 1.94283,0.49978 2.23683,0.6206 l 0.53455,0.21968 v 1.50442 c 0,1.67541 -0.0724,1.49098 0.91419,2.32835 0.26374,0.22385 0.33637,0.34991 0.25507,0.44274 -0.12756,0.14566 -1.45247,0.47906 -1.86417,0.4691 -0.18047,-0.005 -0.67989,-0.39907 -1.53766,-1.21526 z"
       id="path1075" />
    <path
       style="display:inline;fill:#ffdf00;fill-opacity:0.74902;stroke:#000000;stroke-width:0.112152;stroke-opacity:1"
       d="m 100.86319,33.676718 c -0.66642,-0.14457 -2.429483,-1.02432 -2.742003,-1.36825 -0.45769,-0.50368 -0.70371,-1.43329 -0.70371,-2.6591 0,-1.04365 0.0153,-1.11309 0.40695,-1.84859 0.45968,-0.86322 0.3326,-0.82294 2.05716,-0.65206 1.127333,0.1117 1.182233,0.16738 0.840673,0.85282 -0.23022,0.462 -0.32901,0.55607 -0.58801,0.55989 -0.239863,0.004 -0.319143,0.0654 -0.345463,0.26932 -0.0252,0.19527 0.0194,0.26472 0.17008,0.26472 0.161543,0 0.232793,0.14144 0.340783,0.67649 0.2341,1.15981 0.51602,1.81852 1.22109,2.85305 0.37486,0.55002 0.66055,1.03975 0.63486,1.08828 -0.0588,0.11102 -0.69504,0.093 -1.29241,-0.0366 z"
       id="path1077" />
    <path
       style="display:inline;fill:#ffdf00;fill-opacity:0.74902;stroke:#000000;stroke-width:0.112152;stroke-opacity:1"
       d="m 110.72777,34.978188 c -1.28965,-0.20048 -4.08271,-1.02486 -4.43021,-1.30759 -0.41023,-0.33377 -1.02346,-1.32492 -1.24531,-2.01277 -0.0893,-0.2769 -0.19064,-0.83188 -0.22517,-1.23328 -0.0543,-0.63146 -0.0253,-0.81428 0.21585,-1.35658 0.15325,-0.34471 0.42211,-0.77801 0.59746,-0.96288 0.29738,-0.31354 0.38564,-0.33847 1.31327,-0.37092 0.54695,-0.0191 1.29572,0.0202 1.66395,0.0873 l 0.6695,0.12211 0.29269,0.65959 c 0.16098,0.36277 0.35283,0.67929 0.42633,0.70338 0.16403,0.0538 0.17753,-0.4217 0.0245,-0.86453 -0.06,-0.17369 -0.15761,-0.6922 -0.21691,-1.15227 -0.11742,-0.91117 -0.28051,-1.24923 -0.38682,-0.80186 -0.061,0.25682 -0.0886,0.24147 -0.53167,-0.29615 -0.59187,-0.71816 -0.96066,-1.39383 -1.04798,-1.92001 l -0.0683,-0.41178 0.3898,0.47061 c 0.2144,0.25883 0.57899,0.77502 0.81021,1.1471 0.23122,0.37207 0.4658,0.67649 0.52129,0.67649 0.19618,0 0.24197,-0.64278 0.1751,-2.45812 -0.0783,-2.12542 -0.12078,-2.3919 -0.77117,-4.83626 -0.85266,-3.20457 -0.76642,-3.07215 -2.3782,-3.65177 -1.97386,-0.70983 -3.35239,-1.58804 -3.19613,-2.03615 0.0352,-0.10082 0.28524,-0.20446 0.61316,-0.25409 0.78316,-0.11853 0.95816,-0.35104 0.95816,-1.27304 0,-0.64958 -0.0353,-0.78051 -0.27762,-1.02945 l -0.27762,-0.28523 -0.31038,0.40734 c -0.18765,0.24625 -0.31039,0.33638 -0.31039,0.2279 0,-0.20851 0.30449,-0.52905 1.32069,-1.3903195 0.70755,-0.59968 0.74973,-0.61824 1.22946,-0.5409 1.41057,0.2274 2.09922,1.0388295 2.79734,3.2960495 0.16011,0.51767 0.6052,1.76184 0.98911,2.76481 0.38391,1.00298 0.96298,2.67069 1.28683,3.70602 1.02081,3.26357 1.3055,4.04166 2.69036,7.35321 0.89392,2.13762 1.76704,5.2991 1.76704,6.39831 0,0.49164 -0.64992,1.33666 -1.55657,2.02383 -0.6019,0.45619 -0.60743,0.45771 -1.742,0.47962 -0.62601,0.0121 -1.42685,-0.0229 -1.77966,-0.0778 z"
       id="path1079" />
    <path
       style="fill:#ffdf00;fill-opacity:0.74902;stroke:#000000;stroke-width:0.112152;stroke-opacity:1"
       d="m 98.433117,25.592888 c -0.1764,-0.12328 -0.38675,-0.31213 -0.46745,-0.41968 -0.13547,-0.18054 -0.0453,-0.19475 1.176,-0.18523 0.72751,0.006 1.559103,0.0454 1.847993,0.0882 l 0.52524,0.0779 -0.54615,0.26142 c -0.32775,0.15689 -0.8798,0.28943 -1.380523,0.33144 -0.70785,0.0594 -0.88301,0.036 -1.15511,-0.15412 z"
       id="path1083" />
    <circle
       id="path1249"
       style="fill:#000080;stroke:#000000;stroke-width:0.264583"
       cx="104.3465"
       cy="4.9117966"
       r="0.028199328" />
    <path
       style="fill:#ffdf00;fill-opacity:0.74902;stroke:#000000;stroke-width:0.0258245;stroke-opacity:1"
       d="m 103.42793,12.242208 c 0,-0.30703 0.003,-0.32509 0.0492,-0.32509 0.0328,0 0.0492,-0.018 0.0492,-0.0542 0,-0.0301 0.0164,-0.0542 0.0369,-0.0542 0.0205,0 0.0369,0.0241 0.0369,0.0542 0,0.0361 0.0164,0.0542 0.0492,0.0542 0.0328,0 0.0492,0.018 0.0492,0.0542 0,0.0361 -0.0164,0.0542 -0.0492,0.0542 -0.0438,0 -0.0492,0.018 -0.0492,0.16255 v 0.16254 h 0.1354 c 0.11898,0 0.13539,-0.007 0.13539,-0.0542 0,-0.0361 0.0164,-0.0542 0.0492,-0.0542 0.0328,0 0.0492,-0.018 0.0492,-0.0542 0,-0.0512 0.0164,-0.0542 0.29541,-0.0542 h 0.29541 v 0.10837 c 0,0.0783 -0.0103,0.10836 -0.0369,0.10836 -0.0205,0 -0.0369,0.0241 -0.0369,0.0542 0,0.0439 -0.0164,0.0542 -0.0862,0.0542 -0.0697,0 -0.0862,0.0103 -0.0862,0.0542 0,0.0522 -0.0164,0.0542 -0.44312,0.0542 h -0.44311 z"
       id="path1295" />
    <path
       style="fill:#ffdf00;fill-opacity:0.74902;stroke:#000000;stroke-width:0.0258245;stroke-opacity:1"
       d="m 104.31416,11.185668 c 0,-0.0361 -0.0164,-0.0542 -0.0492,-0.0542 -0.041,0 -0.0492,-0.018 -0.0492,-0.10836 0,-0.10578 -0.002,-0.10836 -0.0862,-0.10836 -0.1024,0 -0.11462,-0.0417 -0.0185,-0.063 0.0372,-0.008 0.0982,-0.0232 0.13539,-0.0333 0.0578,-0.0156 0.0677,-0.01 0.0677,0.039 0,0.0329 0.0157,0.0574 0.0369,0.0574 0.0287,0 0.0369,0.0361 0.0369,0.16254 0,0.12642 -0.008,0.16254 -0.0369,0.16254 -0.0205,0 -0.0369,-0.0241 -0.0369,-0.0542 z"
       id="path1297" />
    <path
       style="fill:#ffdf00;fill-opacity:0.74902;stroke:#000000;stroke-width:0.0258245;stroke-opacity:1"
       d="m 104.48648,11.185668 c 0,-0.0301 0.0164,-0.0542 0.0369,-0.0542 0.0205,0 0.0369,0.0241 0.0369,0.0542 0,0.0301 -0.0164,0.0542 -0.0369,0.0542 -0.0205,0 -0.0369,-0.0241 -0.0369,-0.0542 z"
       id="path1299" />
    <path
       style="fill:#ffdf00;fill-opacity:0.74902;stroke:#000000;stroke-width:0.0258245;stroke-opacity:1"
       d="m 104.48648,11.077308 c 0,-0.0301 0.0164,-0.0542 0.0369,-0.0542 0.0205,0 0.0369,0.0241 0.0369,0.0542 0,0.0301 -0.0164,0.0542 -0.0369,0.0542 -0.0205,0 -0.0369,-0.0241 -0.0369,-0.0542 z"
       id="path1303" />
    <path
       style="display:inline;fill:#ffdf00;fill-opacity:0.74902;stroke:#000000;stroke-width:0.0956152;stroke-opacity:1"
       d="m 110.55383,35.012218 c -0.35091,-0.0751 -0.89073,-0.20966 -1.1996,-0.29901 -0.30887,-0.0894 -0.95905,-0.25246 -1.44485,-0.36246 -0.48579,-0.11 -1.05339,-0.28311 -1.26133,-0.3847 -0.53256,-0.26018 -1.02639,-0.90919 -1.4552,-1.91249 -0.31361,-0.73373 -0.3745,-0.98506 -0.40898,-1.6881 -0.0361,-0.7359 -0.0149,-0.88362 0.19429,-1.35409 0.12914,-0.29045 0.39829,-0.70376 0.59812,-0.91847 0.35761,-0.38424 0.37345,-0.39011 1.00687,-0.37252 0.35394,0.01 0.72765,-0.0317 0.83046,-0.0922 0.13597,-0.0801 0.27073,-0.0796 0.49446,0.002 0.16914,0.0614 0.55903,0.14319 0.86641,0.18169 l 0.55886,0.07 0.21911,0.59409 c 0.12051,0.32675 0.28082,0.662 0.35624,0.74501 0.22181,0.24408 0.27721,-0.0936 0.10801,-0.65832 -0.0791,-0.26409 -0.189,-0.84055 -0.24414,-1.28103 -0.0551,-0.44047 -0.12008,-0.83615 -0.1443,-0.87929 -0.0728,-0.12962 -0.21375,0.0232 -0.21375,0.23167 0,0.10707 -0.041,0.19468 -0.0911,0.19468 -0.0501,0 -0.0911,-0.0435 -0.0911,-0.0966 0,-0.0531 -0.24951,-0.39017 -0.55447,-0.74892 -0.58086,-0.68333 -0.90585,-1.40047 -0.90141,-1.98909 l 0.002,-0.32491 0.27092,0.35106 c 0.14901,0.19308 0.5193,0.74601 0.82287,1.22872 0.30357,0.48271 0.58884,0.87765 0.63395,0.87765 0.15779,0 0.20774,-0.75309 0.15593,-2.35101 -0.0543,-1.67457 -0.2611,-3.097 -0.61338,-4.21896 -0.10391,-0.33095 -0.33371,-1.16578 -0.51066,-1.85518 -0.17695,-0.6894 -0.40163,-1.39573 -0.49929,-1.56963 -0.20416,-0.36351 -0.64564,-0.60876 -1.67801,-0.93213 -1.41394,-0.4429 -3.14452,-1.49221 -3.14452,-1.90663 0,-0.26363 0.13477,-0.33685 0.77226,-0.41957 0.73918,-0.0959 0.86836,-0.27935 0.86836,-1.23307 0,-0.66082 -0.0218,-0.74541 -0.25603,-0.99234 l -0.25602,-0.26993 -0.25665,0.2948 c -0.20152,0.23147 -0.24363,0.35186 -0.19605,0.56048 0.0395,0.17304 0.0275,0.2432 -0.0342,0.20121 -0.0521,-0.0355 -0.0948,-0.24058 -0.0948,-0.45582 0,-0.37212 0.0347,-0.41942 0.70638,-0.96266 0.38851,-0.3142295 0.84533,-0.7037395 1.01514,-0.8655795 0.23774,-0.22657 0.36355,-0.27959 0.54688,-0.23047 0.13096,0.0351 0.44319,0.10997 0.69384,0.16641 0.58139,0.1309 1.03978,0.47812 1.48921,1.1280695 0.47459,0.68634 0.52311,0.79997 0.89793,2.10308 0.17727,0.6163 0.43559,1.36881 0.57404,1.67222 0.13844,0.30342 0.35601,0.86762 0.48349,1.25379 0.12746,0.38617 0.35374,0.99552 0.50282,1.3541 0.14909,0.35859 0.4238,1.19361 0.61047,1.85561 0.65783,2.33288 1.93559,5.82326 2.92822,7.99885 0.46433,1.01767 1.16262,3.36891 1.44499,4.86541 0.21317,1.12977 0.234,1.37408 0.13875,1.62714 -0.15044,0.39967 -1.48002,1.78552 -1.89907,1.97945 -0.46553,0.21543 -2.49813,0.2692 -3.34273,0.0884 z"
       id="path842" />
    <path
       style="display:inline;fill:#ffdf00;fill-opacity:0.74902;stroke:#000000;stroke-width:0.0956152;stroke-opacity:1"
       d="m 110.55383,35.012218 c -0.35091,-0.0751 -0.89073,-0.20966 -1.1996,-0.29901 -0.30887,-0.0894 -0.95905,-0.25246 -1.44485,-0.36246 -0.48579,-0.11 -1.05339,-0.28311 -1.26133,-0.3847 -0.53256,-0.26018 -1.02639,-0.90919 -1.4552,-1.91249 -0.31361,-0.73373 -0.3745,-0.98506 -0.40898,-1.6881 -0.0361,-0.7359 -0.0149,-0.88362 0.19429,-1.35409 0.12914,-0.29045 0.39829,-0.70376 0.59812,-0.91847 0.35761,-0.38424 0.37345,-0.39011 1.00687,-0.37252 0.35394,0.01 0.72765,-0.0317 0.83046,-0.0922 0.13597,-0.0801 0.27073,-0.0796 0.49446,0.002 0.16914,0.0614 0.55903,0.14319 0.86641,0.18169 l 0.55886,0.07 0.21911,0.59409 c 0.12051,0.32675 0.28082,0.662 0.35624,0.74501 0.22181,0.24408 0.27721,-0.0936 0.10801,-0.65832 -0.0791,-0.26409 -0.189,-0.84055 -0.24414,-1.28103 -0.0551,-0.44047 -0.12008,-0.83615 -0.1443,-0.87929 -0.0728,-0.12962 -0.21375,0.0232 -0.21375,0.23167 0,0.10707 -0.041,0.19468 -0.0911,0.19468 -0.0501,0 -0.0911,-0.0435 -0.0911,-0.0966 0,-0.0531 -0.24951,-0.39017 -0.55447,-0.74892 -0.58086,-0.68333 -0.90585,-1.40047 -0.90141,-1.98909 l 0.002,-0.32491 0.27092,0.35106 c 0.14901,0.19308 0.5193,0.74601 0.82287,1.22872 0.30357,0.48271 0.58884,0.87765 0.63395,0.87765 0.15779,0 0.20774,-0.75309 0.15593,-2.35101 -0.0543,-1.67457 -0.2611,-3.097 -0.61338,-4.21896 -0.10391,-0.33095 -0.33371,-1.16578 -0.51066,-1.85518 -0.17695,-0.6894 -0.40163,-1.39573 -0.49929,-1.56963 -0.20416,-0.36351 -0.64564,-0.60876 -1.67801,-0.93213 -1.41394,-0.4429 -3.14452,-1.49221 -3.14452,-1.90663 0,-0.26363 0.13477,-0.33685 0.77226,-0.41957 0.73918,-0.0959 0.86836,-0.27935 0.86836,-1.23307 0,-0.66082 -0.0218,-0.74541 -0.25603,-0.99234 l -0.25602,-0.26993 -0.25665,0.2948 c -0.20152,0.23147 -0.24363,0.35186 -0.19605,0.56048 0.0395,0.17304 0.0275,0.2432 -0.0342,0.20121 -0.0521,-0.0355 -0.0948,-0.24058 -0.0948,-0.45582 0,-0.37212 0.0347,-0.41942 0.70638,-0.96266 0.38851,-0.3142295 0.84533,-0.7037395 1.01514,-0.8655795 0.23774,-0.22657 0.36355,-0.27959 0.54688,-0.23047 0.13096,0.0351 0.44319,0.10997 0.69384,0.16641 0.58139,0.1309 1.03978,0.47812 1.48921,1.1280695 0.47459,0.68634 0.52311,0.79997 0.89793,2.10308 0.17727,0.6163 0.43559,1.36881 0.57404,1.67222 0.13844,0.30342 0.35601,0.86762 0.48349,1.25379 0.12746,0.38617 0.35374,0.99552 0.50282,1.3541 0.14909,0.35859 0.4238,1.19361 0.61047,1.85561 0.65783,2.33288 1.93559,5.82326 2.92822,7.99885 0.46433,1.01767 1.16262,3.36891 1.44499,4.86541 0.21317,1.12977 0.234,1.37408 0.13875,1.62714 -0.15044,0.39967 -1.48002,1.78552 -1.89907,1.97945 -0.46553,0.21543 -2.49813,0.2692 -3.34273,0.0884 z"
       id="path844" />
    <path
       id="path846"
       style="display:inline;fill:#ffdf00;fill-opacity:0;stroke:#000000;stroke-width:0.0956152;stroke-opacity:1"
       d="m 96.946467,23.017418 -1.92493,1.60449 c -1.05871,0.88248 -1.96532,1.60458 -2.01468,1.60458 -0.39411,0 0.46362,-1.0602 1.85485,-2.2927 0.39275,-0.34793 0.70031,-0.64502 0.68355,-0.66021 -0.0168,-0.0152 -0.31758,0.009 -0.6685,0.0532 -0.3509,0.0445 -1.03289,0.0831 -1.51552,0.086 -0.66834,0.004 -0.90482,0.0413 -0.9921,0.15708 -0.27143,0.35991 -0.38188,1.31081 -0.4192,3.6095 l -0.0374,2.30693 0.2088,-0.86827 c 0.13007,-0.54093 0.327,-1.05896 0.52239,-1.37407 0.29252,-0.47174 0.67063,-0.81438 0.77359,-0.70108 0.0246,0.0271 -0.15918,0.54358 -0.40847,1.14784 -0.6892,1.67062 -0.73816,2.16648 -0.3505,3.55088 0.63214,2.25747 1.80678,3.52409 3.67673,3.96442 1.02729,0.24191 2.86569,0.29433 4.854903,0.1385 0.98933,-0.0775 2.56487,-0.14091 3.50119,-0.14091 1.58921,0 1.71951,0.014 1.95957,0.21136 0.29845,0.24531 0.4268,0.60698 0.57787,1.62782 0.13147,0.8884 0.23163,1.02887 1.77504,2.49135 1.22965,1.16517 1.24688,1.17157 2.39807,0.88235 0.96998,-0.24369 0.97428,-0.25903 0.26865,-0.959 l -0.61521,-0.61027 v -1.4915 -1.49141 l -0.70642,-0.24337 c -0.38851,-0.13383 -1.30109,-0.38623 -2.02798,-0.56097 -1.78035,-0.42797 -2.33368,-0.72748 -2.86894,-1.55294 -0.55872,-0.86163 -0.93897,-1.79196 -1.11028,-2.71638 -0.14054,-0.75841 -0.11965,-1.14009 0.11036,-2.01796 0.0477,-0.18211 -0.0434,-0.272 -0.64372,-0.63456 -0.38461,-0.2323 -0.71886,-0.40075 -0.74281,-0.37438 -0.024,0.0264 -8e-4,0.30265 0.0515,0.61397 0.15461,0.92037 0.23243,2.92411 0.11664,3.00285 -0.24252,0.16495 -0.52947,-0.86424 -0.7939,-2.84715 -0.23063,-1.72948 -0.17211,-1.64198 -0.68179,-1.01948 -0.62925,0.76855 -1.03697,1.64736 -0.9712,2.09341 0.11433,0.77536 0.96889,2.4247 1.94518,3.75443 0.71209,0.9699 0.66875,1.03541 -0.634,0.95804 -1.85881,-0.11042 -3.513713,-0.73392 -4.294503,-1.61801 -0.58627,-0.66384 -0.79988,-1.34485 -0.8539,-2.72233 -0.0513,-1.30696 0.0694,-1.88984 0.57457,-2.77509 l 0.3291,-0.57674 1.56521,-0.006 c 1.764743,-0.006 2.151223,-0.0941 2.286633,-0.51899 0.048,-0.15063 0.0653,-0.29814 0.0383,-0.32781 -0.027,-0.0297 -0.3115,0.0401 -0.63224,0.15514 -0.83127,0.29812 -2.149393,0.37379 -2.673673,0.15345 -0.37604,-0.15804 -1.054,-0.83844 -1.054,-1.05776 0,-0.0531 0.0794,-0.1433 0.17657,-0.2005 0.20867,-0.1229 1.63666,-0.30001 2.43849,-0.30248 0.310353,-9.1e-4 0.586793,-0.0418 0.614333,-0.0909 0.061,-0.10857 -0.39962,-0.505 -0.935983,-0.80563 -0.39514,-0.22148 -1.24588,-0.43176 -2.21565,-0.54761 z" />
    <path
       style="display:inline;fill:#ffdf00;fill-opacity:0.74902;stroke:#000000;stroke-width:0.059072;stroke-opacity:1"
       d="m 111.1626,35.117648 c -0.29423,-0.0309 -1.00072,-0.1839 -1.56998,-0.33994 -0.56926,-0.15604 -1.31414,-0.33901 -1.65529,-0.40661 -1.46705,-0.29071 -2.03464,-0.70679 -2.59065,-1.8991 -0.66128,-1.41806 -0.79095,-2.48692 -0.41165,-3.39341 0.17749,-0.42419 0.60417,-1.03084 0.86191,-1.22547 0.2045,-0.15442 0.23633,-0.15956 0.77836,-0.12565 0.49468,0.0309 0.59264,0.0198 0.78573,-0.0892 0.21804,-0.1231 0.22416,-0.12318 0.52936,-0.008 0.16982,0.0643 0.48774,0.13203 0.7065,0.15051 0.76316,0.0645 0.75128,0.059 0.84073,0.39044 0.0837,0.31017 0.31197,0.82473 0.45392,1.02321 0.10176,0.14229 0.25746,0.0912 0.25746,-0.0845 0,-0.0699 -0.0637,-0.32768 -0.14156,-0.57291 -0.0778,-0.24522 -0.17924,-0.76756 -0.2253,-1.16074 -0.1097,-0.93639 -0.13482,-1.05571 -0.22219,-1.05571 -0.0403,0 -0.10297,0.12962 -0.13922,0.28805 -0.0362,0.15843 -0.0847,0.26299 -0.10769,0.23238 -0.023,-0.0306 -0.1873,-0.26924 -0.36514,-0.53027 -0.17785,-0.26103 -0.4116,-0.54867 -0.51945,-0.6392 -0.21503,-0.1805 -0.46869,-0.68186 -0.61002,-1.20577 -0.10137,-0.37579 -0.11942,-0.74786 -0.0363,-0.74786 0.0824,0 0.83888,1.06383 1.26686,1.78159 0.20831,0.34935 0.40076,0.63518 0.42767,0.63518 0.15928,0 0.19361,-0.30741 0.19026,-1.70413 -0.005,-2.1896 -0.15479,-3.32708 -0.6518,-4.95748 -0.15584,-0.51124 -0.38167,-1.34028 -0.50183,-1.84232 -0.12016,-0.50204 -0.27361,-1.05384 -0.34099,-1.22622 -0.18074,-0.46236 -0.51534,-0.75643 -1.07878,-0.94813 -1.50901,-0.51339 -1.8124,-0.63112 -2.32729,-0.90307 -1.03508,-0.5467 -1.54348,-0.95951 -1.54348,-1.25328 0,-0.19029 0.12841,-0.36366 0.2715,-0.36656 0.25515,-0.005 0.91118,-0.12476 1.04075,-0.18973 0.1899,-0.0952 0.30274,-0.36568 0.35158,-0.84265 0.0629,-0.61444 -0.003,-0.91866 -0.2692,-1.23606 -0.12633,-0.15083 -0.24571,-0.26638 -0.26528,-0.2568 -0.0196,0.01 -0.14521,0.1495 -0.27919,0.3109 l -0.24361,0.29347 0.0904,0.24875 c 0.0799,0.2199 0.0805,0.24876 0.005,0.24876 -0.11107,0 -0.19524,-0.25031 -0.19524,-0.58058 0,-0.30479 0.11315,-0.44455 0.76019,-0.9388795 0.2168,-0.16564 0.6049,-0.49106 0.86246,-0.72317 0.25755,-0.23211 0.50587,-0.42201 0.55182,-0.42201 0.046,0 0.15682,0.0417 0.24637,0.0927 0.0896,0.051 0.34691,0.12139 0.57191,0.1565 0.51747,0.0808 0.77004,0.24336 1.25274,0.80645 0.5208,0.6075495 0.74189,1.0113995 0.9411,1.7190495 0.0933,0.33144 0.23239,0.82371 0.30909,1.09393 0.0767,0.27023 0.27693,0.814 0.44497,1.20839 0.16803,0.39438 0.3966,0.99592 0.50792,1.33675 0.11132,0.34083 0.32546,0.91248 0.47586,1.27035 0.15041,0.35787 0.41635,1.15262 0.591,1.7661 0.82294,2.89087 1.48931,4.72917 2.82018,7.78007 0.40411,0.92638 0.63515,1.56792 0.98193,2.72661 0.24941,0.83336 0.48042,1.72309 0.51336,1.97718 0.0329,0.2541 0.12115,0.72153 0.19605,1.03875 0.24257,1.0274 0.20264,1.14439 -0.73213,2.14504 -0.68372,0.73191 -1.0573,1.00095 -1.5078,1.08587 -0.51783,0.0976 -1.73739,0.13286 -2.354,0.068 z"
       id="path1673" />
    <path
       style="display:inline;fill:#ffdf00;fill-opacity:0.74902;stroke:#000000;stroke-width:0.059072;stroke-opacity:1"
       d="m 111.1626,35.117648 c -0.29423,-0.0309 -1.00072,-0.1839 -1.56998,-0.33994 -0.56926,-0.15604 -1.31414,-0.33901 -1.65529,-0.40661 -1.46705,-0.29071 -2.03464,-0.70679 -2.59065,-1.8991 -0.66128,-1.41806 -0.79095,-2.48692 -0.41165,-3.39341 0.17749,-0.42419 0.60417,-1.03084 0.86191,-1.22547 0.2045,-0.15442 0.23633,-0.15956 0.77836,-0.12565 0.49468,0.0309 0.59264,0.0198 0.78573,-0.0892 0.21804,-0.1231 0.22416,-0.12318 0.52936,-0.008 0.16982,0.0643 0.48774,0.13203 0.7065,0.15051 0.76316,0.0645 0.75128,0.059 0.84073,0.39044 0.0837,0.31017 0.31197,0.82473 0.45392,1.02321 0.10176,0.14229 0.25746,0.0912 0.25746,-0.0845 0,-0.0699 -0.0637,-0.32768 -0.14156,-0.57291 -0.0778,-0.24522 -0.17924,-0.76756 -0.2253,-1.16074 -0.1097,-0.93639 -0.13482,-1.05571 -0.22219,-1.05571 -0.0403,0 -0.10297,0.12962 -0.13922,0.28805 -0.0362,0.15843 -0.0847,0.26299 -0.10769,0.23238 -0.023,-0.0306 -0.1873,-0.26924 -0.36514,-0.53027 -0.17785,-0.26103 -0.4116,-0.54867 -0.51945,-0.6392 -0.21503,-0.1805 -0.46869,-0.68186 -0.61002,-1.20577 -0.10137,-0.37579 -0.11942,-0.74786 -0.0363,-0.74786 0.0824,0 0.83888,1.06383 1.26686,1.78159 0.20831,0.34935 0.40076,0.63518 0.42767,0.63518 0.15928,0 0.19361,-0.30741 0.19026,-1.70413 -0.005,-2.1896 -0.15479,-3.32708 -0.6518,-4.95748 -0.15584,-0.51124 -0.38167,-1.34028 -0.50183,-1.84232 -0.12016,-0.50204 -0.27361,-1.05384 -0.34099,-1.22622 -0.18074,-0.46236 -0.51534,-0.75643 -1.07878,-0.94813 -1.50901,-0.51339 -1.8124,-0.63112 -2.32729,-0.90307 -1.03508,-0.5467 -1.54348,-0.95951 -1.54348,-1.25328 0,-0.19029 0.12841,-0.36366 0.2715,-0.36656 0.25515,-0.005 0.91118,-0.12476 1.04075,-0.18973 0.1899,-0.0952 0.30274,-0.36568 0.35158,-0.84265 0.0629,-0.61444 -0.003,-0.91866 -0.2692,-1.23606 -0.12633,-0.15083 -0.24571,-0.26638 -0.26528,-0.2568 -0.0196,0.01 -0.14521,0.1495 -0.27919,0.3109 l -0.24361,0.29347 0.0904,0.24875 c 0.0799,0.2199 0.0805,0.24876 0.005,0.24876 -0.11107,0 -0.19524,-0.25031 -0.19524,-0.58058 0,-0.30479 0.11315,-0.44455 0.76019,-0.9388795 0.2168,-0.16564 0.6049,-0.49106 0.86246,-0.72317 0.25755,-0.23211 0.50587,-0.42201 0.55182,-0.42201 0.046,0 0.15682,0.0417 0.24637,0.0927 0.0896,0.051 0.34691,0.12139 0.57191,0.1565 0.51747,0.0808 0.77004,0.24336 1.25274,0.80645 0.5208,0.6075495 0.74189,1.0113995 0.9411,1.7190495 0.0933,0.33144 0.23239,0.82371 0.30909,1.09393 0.0767,0.27023 0.27693,0.814 0.44497,1.20839 0.16803,0.39438 0.3966,0.99592 0.50792,1.33675 0.11132,0.34083 0.32546,0.91248 0.47586,1.27035 0.15041,0.35787 0.41635,1.15262 0.591,1.7661 0.82294,2.89087 1.48931,4.72917 2.82018,7.78007 0.40411,0.92638 0.63515,1.56792 0.98193,2.72661 0.24941,0.83336 0.48042,1.72309 0.51336,1.97718 0.0329,0.2541 0.12115,0.72153 0.19605,1.03875 0.24257,1.0274 0.20264,1.14439 -0.73213,2.14504 -0.68372,0.73191 -1.0573,1.00095 -1.5078,1.08587 -0.51783,0.0976 -1.73739,0.13286 -2.354,0.068 z"
       id="path1675" />
    <path
       style="display:inline;fill:#ffdf00;fill-opacity:0.74902;stroke:#000000;stroke-width:0.059072;stroke-opacity:1"
       d="m 111.1626,35.117648 c -0.29423,-0.0309 -1.00072,-0.1839 -1.56998,-0.33994 -0.56926,-0.15604 -1.31414,-0.33901 -1.65529,-0.40661 -1.46705,-0.29071 -2.03464,-0.70679 -2.59065,-1.8991 -0.66128,-1.41806 -0.79095,-2.48692 -0.41165,-3.39341 0.17749,-0.42419 0.60417,-1.03084 0.86191,-1.22547 0.2045,-0.15442 0.23633,-0.15956 0.77836,-0.12565 0.49468,0.0309 0.59264,0.0198 0.78573,-0.0892 0.21804,-0.1231 0.22416,-0.12318 0.52936,-0.008 0.16982,0.0643 0.48774,0.13203 0.7065,0.15051 0.76316,0.0645 0.75128,0.059 0.84073,0.39044 0.0837,0.31017 0.31197,0.82473 0.45392,1.02321 0.10176,0.14229 0.25746,0.0912 0.25746,-0.0845 0,-0.0699 -0.0637,-0.32768 -0.14156,-0.57291 -0.0778,-0.24522 -0.17924,-0.76756 -0.2253,-1.16074 -0.1097,-0.93639 -0.13482,-1.05571 -0.22219,-1.05571 -0.0403,0 -0.10297,0.12962 -0.13922,0.28805 -0.0362,0.15843 -0.0847,0.26299 -0.10769,0.23238 -0.023,-0.0306 -0.1873,-0.26924 -0.36514,-0.53027 -0.17785,-0.26103 -0.4116,-0.54867 -0.51945,-0.6392 -0.21503,-0.1805 -0.46869,-0.68186 -0.61002,-1.20577 -0.10137,-0.37579 -0.11942,-0.74786 -0.0363,-0.74786 0.0824,0 0.83888,1.06383 1.26686,1.78159 0.20831,0.34935 0.40076,0.63518 0.42767,0.63518 0.15928,0 0.19361,-0.30741 0.19026,-1.70413 -0.005,-2.1896 -0.15479,-3.32708 -0.6518,-4.95748 -0.15584,-0.51124 -0.38167,-1.34028 -0.50183,-1.84232 -0.12016,-0.50204 -0.27361,-1.05384 -0.34099,-1.22622 -0.18074,-0.46236 -0.51534,-0.75643 -1.07878,-0.94813 -1.50901,-0.51339 -1.8124,-0.63112 -2.32729,-0.90307 -1.03508,-0.5467 -1.54348,-0.95951 -1.54348,-1.25328 0,-0.19029 0.12841,-0.36366 0.2715,-0.36656 0.25515,-0.005 0.91118,-0.12476 1.04075,-0.18973 0.1899,-0.0952 0.30274,-0.36568 0.35158,-0.84265 0.0629,-0.61444 -0.003,-0.91866 -0.2692,-1.23606 -0.12633,-0.15083 -0.24571,-0.26638 -0.26528,-0.2568 -0.0196,0.01 -0.14521,0.1495 -0.27919,0.3109 l -0.24361,0.29347 0.0904,0.24875 c 0.0799,0.2199 0.0805,0.24876 0.005,0.24876 -0.11107,0 -0.19524,-0.25031 -0.19524,-0.58058 0,-0.30479 0.11315,-0.44455 0.76019,-0.9388795 0.2168,-0.16564 0.6049,-0.49106 0.86246,-0.72317 0.25755,-0.23211 0.50587,-0.42201 0.55182,-0.42201 0.046,0 0.15682,0.0417 0.24637,0.0927 0.0896,0.051 0.34691,0.12139 0.57191,0.1565 0.51747,0.0808 0.77004,0.24336 1.25274,0.80645 0.5208,0.6075495 0.74189,1.0113995 0.9411,1.7190495 0.0933,0.33144 0.23239,0.82371 0.30909,1.09393 0.0767,0.27023 0.27693,0.814 0.44497,1.20839 0.16803,0.39438 0.3966,0.99592 0.50792,1.33675 0.11132,0.34083 0.32546,0.91248 0.47586,1.27035 0.15041,0.35787 0.41635,1.15262 0.591,1.7661 0.82294,2.89087 1.48931,4.72917 2.82018,7.78007 0.40411,0.92638 0.63515,1.56792 0.98193,2.72661 0.24941,0.83336 0.48042,1.72309 0.51336,1.97718 0.0329,0.2541 0.12115,0.72153 0.19605,1.03875 0.24257,1.0274 0.20264,1.14439 -0.73213,2.14504 -0.68372,0.73191 -1.0573,1.00095 -1.5078,1.08587 -0.51783,0.0976 -1.73739,0.13286 -2.354,0.068 z"
       id="path1677" />
    <path
       style="display:inline;fill:#ffdf00;fill-opacity:0.74902;stroke:#000000;stroke-width:0.059072;stroke-opacity:1"
       d="m 111.1626,35.117648 c -0.29423,-0.0309 -1.00072,-0.1839 -1.56998,-0.33994 -0.56926,-0.15604 -1.31414,-0.33901 -1.65529,-0.40661 -1.46705,-0.29071 -2.03464,-0.70679 -2.59065,-1.8991 -0.66128,-1.41806 -0.79095,-2.48692 -0.41165,-3.39341 0.17749,-0.42419 0.60417,-1.03084 0.86191,-1.22547 0.2045,-0.15442 0.23633,-0.15956 0.77836,-0.12565 0.49468,0.0309 0.59264,0.0198 0.78573,-0.0892 0.21804,-0.1231 0.22416,-0.12318 0.52936,-0.008 0.16982,0.0643 0.48774,0.13203 0.7065,0.15051 0.76316,0.0645 0.75128,0.059 0.84073,0.39044 0.0837,0.31017 0.31197,0.82473 0.45392,1.02321 0.10176,0.14229 0.25746,0.0912 0.25746,-0.0845 0,-0.0699 -0.0637,-0.32768 -0.14156,-0.57291 -0.0778,-0.24522 -0.17924,-0.76756 -0.2253,-1.16074 -0.1097,-0.93639 -0.13482,-1.05571 -0.22219,-1.05571 -0.0403,0 -0.10297,0.12962 -0.13922,0.28805 -0.0362,0.15843 -0.0847,0.26299 -0.10769,0.23238 -0.023,-0.0306 -0.1873,-0.26924 -0.36514,-0.53027 -0.17785,-0.26103 -0.4116,-0.54867 -0.51945,-0.6392 -0.21503,-0.1805 -0.46869,-0.68186 -0.61002,-1.20577 -0.10137,-0.37579 -0.11942,-0.74786 -0.0363,-0.74786 0.0824,0 0.83888,1.06383 1.26686,1.78159 0.20831,0.34935 0.40076,0.63518 0.42767,0.63518 0.15928,0 0.19361,-0.30741 0.19026,-1.70413 -0.005,-2.1896 -0.15479,-3.32708 -0.6518,-4.95748 -0.15584,-0.51124 -0.38167,-1.34028 -0.50183,-1.84232 -0.12016,-0.50204 -0.27361,-1.05384 -0.34099,-1.22622 -0.18074,-0.46236 -0.51534,-0.75643 -1.07878,-0.94813 -1.50901,-0.51339 -1.8124,-0.63112 -2.32729,-0.90307 -1.03508,-0.5467 -1.54348,-0.95951 -1.54348,-1.25328 0,-0.19029 0.12841,-0.36366 0.2715,-0.36656 0.25515,-0.005 0.91118,-0.12476 1.04075,-0.18973 0.1899,-0.0952 0.30274,-0.36568 0.35158,-0.84265 0.0629,-0.61444 -0.003,-0.91866 -0.2692,-1.23606 -0.12633,-0.15083 -0.24571,-0.26638 -0.26528,-0.2568 -0.0196,0.01 -0.14521,0.1495 -0.27919,0.3109 l -0.24361,0.29347 0.0904,0.24875 c 0.0799,0.2199 0.0805,0.24876 0.005,0.24876 -0.11107,0 -0.19524,-0.25031 -0.19524,-0.58058 0,-0.30479 0.11315,-0.44455 0.76019,-0.9388795 0.2168,-0.16564 0.6049,-0.49106 0.86246,-0.72317 0.25755,-0.23211 0.50587,-0.42201 0.55182,-0.42201 0.046,0 0.15682,0.0417 0.24637,0.0927 0.0896,0.051 0.34691,0.12139 0.57191,0.1565 0.51747,0.0808 0.77004,0.24336 1.25274,0.80645 0.5208,0.6075495 0.74189,1.0113995 0.9411,1.7190495 0.0933,0.33144 0.23239,0.82371 0.30909,1.09393 0.0767,0.27023 0.27693,0.814 0.44497,1.20839 0.16803,0.39438 0.3966,0.99592 0.50792,1.33675 0.11132,0.34083 0.32546,0.91248 0.47586,1.27035 0.15041,0.35787 0.41635,1.15262 0.591,1.7661 0.82294,2.89087 1.48931,4.72917 2.82018,7.78007 0.40411,0.92638 0.63515,1.56792 0.98193,2.72661 0.24941,0.83336 0.48042,1.72309 0.51336,1.97718 0.0329,0.2541 0.12115,0.72153 0.19605,1.03875 0.24257,1.0274 0.20264,1.14439 -0.73213,2.14504 -0.68372,0.73191 -1.0573,1.00095 -1.5078,1.08587 -0.51783,0.0976 -1.73739,0.13286 -2.354,0.068 z"
       id="path1679" />
  </g>
</svg>
